SplineFontDB: 3.0
FontName: Samim
FullName: Samim
FamilyName: Samim
Weight: Regular
Copyright: Copyright (c) 2003 by Bitstream, Inc. All Rights Reserved.\nDejaVu changes are in public domain\nCopyright (c) 2015 by Saber Rastikerdar. All Rights Reserved.
Version: 0.10
ItalicAngle: 0
UnderlinePosition: -100
UnderlineWidth: 100
Ascent: 1536
Descent: 512
InvalidEm: 0
LayerCount: 2
Layer: 0 1 "Back" 1
Layer: 1 1 "Fore" 0
XUID: [1021 502 1027637223 6329498]
UniqueID: 4046467
UseUniqueID: 1
FSType: 0
OS2Version: 1
OS2_WeightWidthSlopeOnly: 0
OS2_UseTypoMetrics: 1
CreationTime: 1431850356
ModificationTime: 1452413098
PfmFamily: 33
TTFWeight: 400
TTFWidth: 5
LineGap: 0
VLineGap: 0
Panose: 2 11 6 3 3 8 4 2 2 4
OS2TypoAscent: 2000
OS2TypoAOffset: 0
OS2TypoDescent: -750
OS2TypoDOffset: 0
OS2TypoLinegap: 0
OS2WinAscent: 2000
OS2WinAOffset: 0
OS2WinDescent: 750
OS2WinDOffset: 0
HheadAscent: 2000
HheadAOffset: 0
HheadDescent: -750
HheadDOffset: 0
OS2SubXSize: 1331
OS2SubYSize: 1433
OS2SubXOff: 0
OS2SubYOff: 286
OS2SupXSize: 1331
OS2SupYSize: 1433
OS2SupXOff: 0
OS2SupYOff: 983
OS2StrikeYSize: 102
OS2StrikeYPos: 530
OS2Vendor: 'PfEd'
OS2CodePages: 600001ff.dfff0000
Lookup: 1 0 0 "'case' Case-Sensitive Forms in Latin lookup 0" { "'case' Case-Sensitive Forms in Latin lookup 0 subtable"  } ['case' ('DFLT' <'dflt' > 'latn' <'CAT ' 'ESP ' 'GAL ' 'dflt' > ) ]
Lookup: 6 1 0 "'ccmp' Glyph Composition/Decomposition lookup 2" { "'ccmp' Glyph Composition/Decomposition lookup 2 subtable"  } ['ccmp' ('arab' <'KUR ' 'SND ' 'URD ' 'dflt' > 'hebr' <'dflt' > 'nko ' <'dflt' > ) ]
Lookup: 6 0 0 "'ccmp' Glyph Composition/Decomposition lookup 3" { "'ccmp' Glyph Composition/Decomposition lookup 3 subtable"  } ['ccmp' ('cyrl' <'MKD ' 'SRB ' 'dflt' > 'grek' <'dflt' > 'latn' <'ISM ' 'KSM ' 'LSM ' 'MOL ' 'NSM ' 'ROM ' 'SKS ' 'SSM ' 'dflt' > ) ]

StartChar: exclam
Encoding: 33 33 1
Width: 827
GlyphClass: 2
Flags: W
LayerCount: 2
Fore
SplineSet
512.5 32.2998046875 m 2,0,1
 512.5 0.2998046875 512.5 0.2998046875 486.5 0.2998046875 c 2,2,-1
 344.5 0.2998046875 l 2,3,4
 315.5 0.2998046875 315.5 0.2998046875 315.5 32.2998046875 c 2,5,-1
 315.5 174.299804688 l 2,6,7
 315.5 204.299804688 315.5 204.299804688 344.5 204.299804688 c 2,8,-1
 483.5 204.299804688 l 2,9,10
 512.5 204.299804688 512.5 204.299804688 512.5 175.299804688 c 2,11,-1
 512.5 32.2998046875 l 2,0,1
318.94140625 1406 m 1,12,-1
 508.056640625 1406 l 1,13,-1
 488.490234375 351 l 1,14,-1
 339.487304688 351 l 1,15,-1
 318.94140625 1406 l 1,12,-1
EndSplineSet
EndChar

StartChar: period
Encoding: 46 46 2
Width: 657
GlyphClass: 2
Flags: W
LayerCount: 2
Fore
SplineSet
425.5 32.2998046875 m 2,0,1
 425.5 0.2998046875 425.5 0.2998046875 399.5 0.2998046875 c 2,2,-1
 257.5 0.2998046875 l 2,3,4
 228.5 0.2998046875 228.5 0.2998046875 228.5 32.2998046875 c 2,5,-1
 228.5 174.299804688 l 2,6,7
 228.5 204.299804688 228.5 204.299804688 257.5 204.299804688 c 2,8,-1
 396.5 204.299804688 l 2,9,10
 425.5 204.299804688 425.5 204.299804688 425.5 175.299804688 c 2,11,-1
 425.5 32.2998046875 l 2,0,1
EndSplineSet
EndChar

StartChar: colon
Encoding: 58 58 3
Width: 696
GlyphClass: 2
Flags: W
LayerCount: 2
Fore
SplineSet
446.5 783.299804688 m 2,0,-1
 446.5 640.299804688 l 2,1,2
 446.5 608.299804688 446.5 608.299804688 420.5 608.299804688 c 2,3,-1
 278.5 608.299804688 l 2,4,5
 249.5 608.299804688 249.5 608.299804688 249.5 640.299804688 c 2,6,-1
 249.5 782.299804688 l 2,7,8
 249.5 812.299804688 249.5 812.299804688 278.5 812.299804688 c 2,9,-1
 417.5 812.299804688 l 2,10,11
 446.5 812.299804688 446.5 812.299804688 446.5 783.299804688 c 2,0,-1
446.5 32.2998046875 m 2,12,13
 446.5 0.2998046875 446.5 0.2998046875 420.5 0.2998046875 c 2,14,-1
 278.5 0.2998046875 l 2,15,16
 249.5 0.2998046875 249.5 0.2998046875 249.5 32.2998046875 c 2,17,-1
 249.5 174.299804688 l 2,18,19
 249.5 204.299804688 249.5 204.299804688 278.5 204.299804688 c 2,20,-1
 417.5 204.299804688 l 2,21,22
 446.5 204.299804688 446.5 204.299804688 446.5 175.299804688 c 2,23,-1
 446.5 32.2998046875 l 2,12,13
EndSplineSet
EndChar

StartChar: afii57388
Encoding: 1548 1548 5
Width: 670
VWidth: 2054
GlyphClass: 2
Flags: W
LayerCount: 2
Fore
SplineSet
369.673828125 248.680664062 m 1,0,-1
 405.517578125 248.680664062 l 2,1,2
 477.2578125 248.680664062 477.2578125 248.680664062 477.2578125 193.3203125 c 2,3,-1
 477.2578125 62.650390625 l 2,4,5
 477.2578125 -0.859375 477.2578125 -0.859375 421.357421875 -0.859375 c 2,6,-1
 300.078125 -0.859375 l 1,7,8
 236.328125 2.1025390625 236.328125 2.1025390625 236.328125 59.880859375 c 2,9,-1
 236.328125 206.458007812 l 1,10,-1
 236.340820312 206.595703125 l 2,11,12
 255.245522841 411.153077688 255.245522841 411.153077688 448.334960938 575.41015625 c 1,13,-1
 512.052734375 543.58203125 l 1,14,15
 372.705974136 390.346550313 372.705974136 390.346550313 369.673828125 248.680664062 c 1,0,-1
EndSplineSet
EndChar

StartChar: uni0615
Encoding: 1557 1557 6
Width: 6
VWidth: 2186
GlyphClass: 4
Flags: W
AnchorPoint: "Anchor-10" 550.84 1282.5 mark 0
AnchorPoint: "Anchor-9" 550.84 1282.5 mark 0
AnchorPoint: "Anchor-1" 550.84 1978 basemark 0
AnchorPoint: "Anchor-1" 550.84 1282.5 mark 0
LayerCount: 2
Fore
SplineSet
475.366210938 1462.95996094 m 1,0,-1
 555.120117188 1462.95996094 l 2,1,2
 626.667870665 1462.95996094 626.667870665 1462.95996094 662.07421875 1475.47119141 c 0,3,4
 726.510921913 1498.24062366 726.510921913 1498.24062366 728.830078125 1549.7785058 c 0,5,6
 732 1599 732 1599 690.819335938 1605.18457031 c 0,7,8
 656.806311302 1611.06584195 656.806311302 1611.06584195 598.857416938 1573.46038033 c 0,9,10
 521.996162148 1520.82387002 521.996162148 1520.82387002 475.366210938 1462.95996094 c 1,0,-1
820.110351562 1560.70019531 m 0,11,12
 820 1375 820 1375 579.73046875 1374.88964844 c 2,13,-1
 282.639648438 1374.88964844 l 1,14,-1
 282.639648438 1462.95996094 l 1,15,-1
 369.309570312 1462.95996094 l 1,16,-1
 369.309570312 1889.88964844 l 1,17,-1
 458.450195312 1889.88964844 l 1,18,-1
 458.450195312 1528.53515625 l 1,19,20
 521 1618 521 1618 621.809570312 1667.98339844 c 0,21,22
 709 1711 709 1711 777 1661 c 4,23,24
 820 1629 820 1629 820.110351562 1560.70019531 c 0,11,12
EndSplineSet
EndChar

StartChar: uni061B
Encoding: 1563 1563 7
Width: 660
VWidth: 2054
GlyphClass: 2
Flags: W
LayerCount: 2
Fore
SplineSet
281.095703125 353.911132812 m 2,0,1
 217.275390625 353.911132812 217.275390625 353.911132812 217.275390625 414.651367188 c 2,2,-1
 217.275390625 561.229492188 l 1,3,4
 236.205223835 766.057164704 236.205223835 766.057164704 429.283203125 930.1796875 c 1,5,-1
 493 898.352539062 l 1,6,7
 353.652120514 745.06476544 353.652120514 745.06476544 350.62109375 603.451171875 c 1,8,-1
 386.465820312 603.451171875 l 2,9,10
 458.205078125 603.451171875 458.205078125 603.451171875 458.205078125 548.090820312 c 2,11,-1
 458.205078125 428.420898438 l 2,12,13
 458.205078125 353.911132812 458.205078125 353.911132812 402.3046875 353.911132812 c 2,14,-1
 281.095703125 353.911132812 l 2,0,1
434.5 32.2998046875 m 2,15,16
 434.5 0.2998046875 434.5 0.2998046875 408.5 0.2998046875 c 2,17,-1
 266.5 0.2998046875 l 2,18,19
 237.5 0.2998046875 237.5 0.2998046875 237.5 32.2998046875 c 2,20,-1
 237.5 174.299804688 l 2,21,22
 237.5 204.299804688 237.5 204.299804688 266.5 204.299804688 c 2,23,-1
 405.5 204.299804688 l 2,24,25
 434.5 204.299804688 434.5 204.299804688 434.5 175.299804688 c 2,26,-1
 434.5 32.2998046875 l 2,15,16
EndSplineSet
EndChar

StartChar: uni061F
Encoding: 1567 1567 8
Width: 1093
GlyphClass: 2
Flags: W
LayerCount: 2
Fore
SplineSet
700.5 32.2998046875 m 2,0,1
 700.5 0.2998046875 700.5 0.2998046875 674.5 0.2998046875 c 2,2,-1
 532.5 0.2998046875 l 2,3,4
 503.5 0.2998046875 503.5 0.2998046875 503.5 32.2998046875 c 2,5,-1
 503.5 174.299804688 l 2,6,7
 503.5 204.299804688 503.5 204.299804688 532.5 204.299804688 c 2,8,-1
 671.5 204.299804688 l 2,9,10
 700.5 204.299804688 700.5 204.299804688 700.5 175.299804688 c 2,11,-1
 700.5 32.2998046875 l 2,0,1
513.5 35.2998046875 m 1,12,-1
 513.5 29.2998046875 l 1,13,-1
 519.5 29.2998046875 l 1,14,-1
 519.5 35.2998046875 l 1,15,-1
 513.5 35.2998046875 l 1,12,-1
513 361 m 1,16,-1
 513 487 l 2,17,18
 513 585.995401323 513 585.995401323 500.508789062 622.220703125 c 128,-1,19
 488.0390625 658.384765625 488.0390625 658.384765625 464.366210938 686.098632812 c 128,-1,20
 440.693359375 713.8125 440.693359375 713.8125 427.3203125 727.311523438 c 128,-1,21
 413.865234375 740.891601562 413.865234375 740.891601562 404.872070312 750.02734375 c 2,22,-1
 316.853515625 836.044921875 l 2,23,24
 225.56640625 925.18359375 225.56640625 925.18359375 191.283203125 990.220703125 c 128,-1,25
 157 1055.2578125 157 1055.2578125 157 1105.5546875 c 128,-1,26
 157 1155.8515625 157 1155.8515625 160.044921875 1180.06542969 c 128,-1,27
 163.08984375 1204.28027344 163.08984375 1204.28027344 169.176757812 1226.84375 c 128,-1,28
 175.262695312 1249.40722656 175.262695312 1249.40722656 184.39453125 1270.31933594 c 128,-1,29
 193.525390625 1291.23242188 193.525390625 1291.23242188 205.693359375 1310.47460938 c 0,30,31
 310.351103186 1476 310.351103186 1476 565.544921875 1476 c 0,32,33
 754.8590825 1476 754.8590825 1476 937.842773438 1367.34179688 c 1,34,-1
 872.944335938 1237.63671875 l 1,35,36
 566.934766615 1397.10649431 566.934766615 1397.10649431 414.000976562 1269.36230469 c 0,37,38
 346 1212.16210938 346 1212.16210938 346 1120 c 0,39,40
 346 1068.25560281 346 1068.25560281 370.111816406 1024.22301625 c 128,-1,41
 394.223632812 980.190429688 394.223632812 980.190429688 456.1875 918.9140625 c 2,42,-1
 546.13671875 829.963867188 l 2,43,44
 637.524414062 739.72265625 637.524414062 739.72265625 663.755859375 678.684570312 c 128,-1,45
 690 617.6171875 690 617.6171875 690 518 c 2,46,-1
 690 361 l 1,47,-1
 513 361 l 1,16,-1
EndSplineSet
EndChar

StartChar: uni0621
Encoding: 1569 1569 9
Width: 734
VWidth: 2181
GlyphClass: 2
Flags: W
AnchorPoint: "Anchor-7" 359 -196 basechar 0
AnchorPoint: "Anchor-10" 311.5 995.5 basechar 0
LayerCount: 2
Fore
SplineSet
86.1708984375 -8.630859375 m 1,0,-1
 86.1708984375 131.181640625 l 1,1,-1
 284.6015625 209.96875 l 1,2,3
 87.091796875 268.751953125 87.091796875 268.751953125 89.7685546875 463.52734375 c 0,4,5
 92.0634765625 625.548828125 92.0634765625 625.548828125 223.821289062 705.525390625 c 128,-1,6
 355.644425318 785.541604431 355.644425318 785.541604431 560 740.674804688 c 1,7,-1
 560 594.526367188 l 1,8,9
 405.317120528 636.705358549 405.317120528 636.705358549 321.175161826 593.920550368 c 128,-1,10
 237.033203125 551.135742188 237.033203125 551.135742188 237.68359375 455.03515625 c 0,11,12
 237.983836073 331.73889178 237.983836073 331.73889178 391.125976562 305.297851562 c 0,13,14
 427.567382812 299.020507812 427.567382812 299.020507812 474.435058594 300.997070312 c 128,-1,15
 521.298768169 302.973465545 521.298768169 302.973465545 648 359.314453125 c 1,16,-1
 648 213.561523438 l 1,17,-1
 86.1708984375 -8.630859375 l 1,0,-1
EndSplineSet
EndChar

StartChar: uni0627
Encoding: 1575 1575 15
Width: 423
VWidth: 2181
GlyphClass: 2
Flags: W
AnchorPoint: "Anchor-10" 211.5 1573 basechar 0
AnchorPoint: "Anchor-7" 218.5 -221.5 basechar 0
LayerCount: 2
Fore
SplineSet
129.987304688 1407.89746094 m 1,0,-1
 292.940429688 1478.53027344 l 1,1,-1
 292.940429688 1.5 l 1,2,-1
 181.166992188 1.5 l 1,3,-1
 129.987304688 1407.89746094 l 1,0,-1
EndSplineSet
Substitution2: "'fina' Terminal Forms in Arabic lookup 9 subtable" uniFE8E
EndChar

StartChar: uni062D
Encoding: 1581 1581 21
Width: 1227
VWidth: 2181
GlyphClass: 2
Flags: W
AnchorPoint: "Anchor-10" 501.5 1166 basechar 0
AnchorPoint: "Anchor-7" 387.288 -739.291 basechar 0
LayerCount: 2
Fore
SplineSet
112.92578125 582.349609375 m 1,0,1
 273.565221501 818 273.565221501 818 462 818 c 0,2,3
 492.412109375 818 492.412109375 818 529.236328125 807.910644531 c 128,-1,4
 566.060546875 797.821289062 566.060546875 797.821289062 714.608886719 725.297363281 c 128,-1,5
 863.157226562 652.7734375 863.157226562 652.7734375 939.425292969 626.353515625 c 128,-1,6
 1015.6711378 599.941291496 1015.6711378 599.941291496 1103.3984375 588.17578125 c 1,7,-1
 1080.62792969 429.188476562 l 1,8,9
 959.405381944 420.125108507 959.405381944 420.125108507 938.330078125 418.017578125 c 0,10,11
 707.967773438 390.095703125 707.967773438 390.095703125 557.497070312 303.400390625 c 0,12,13
 250.000976562 126.266601562 250.000976562 126.266601562 250.080078125 -132.166015625 c 0,14,15
 250.000976562 -278.559570312 250.000976562 -278.559570312 357.534179688 -365.280761719 c 128,-1,16
 465.067382812 -452.001953125 465.067382812 -452.001953125 732.76953125 -452.520507812 c 0,17,18
 918.583215223 -452.999018942 918.583215223 -452.999018942 1085.90332031 -405.338867188 c 1,19,-1
 1136.85546875 -551.954101562 l 1,20,21
 941.240247643 -612.000139558 941.240247643 -612.000139558 734.818359375 -612.13671875 c 0,22,23
 345.612304688 -611.999023438 345.612304688 -611.999023438 195.158203125 -434.998046875 c 0,24,25
 90.998046875 -313.10546875 90.998046875 -313.10546875 91 -135.216796875 c 128,-1,26
 91.001953125 42.671875 91.001953125 42.671875 187.295898438 187.9765625 c 0,27,28
 329.420452806 402.438270259 329.420452806 402.438270259 646.486328125 498.245117188 c 0,29,30
 736.572265625 525.465820312 736.572265625 525.465820312 820.692382812 531.58203125 c 1,31,32
 756.190429688 547.989257812 756.190429688 547.989257812 633.260253906 605.994628906 c 128,-1,33
 510.330078125 664 510.330078125 664 477.498046875 663.9765625 c 0,34,35
 350.459365903 664.00000083 350.459365903 664.00000083 221.532226562 498.805664062 c 1,36,-1
 112.92578125 582.349609375 l 1,0,1
EndSplineSet
Substitution2: "'fina' Terminal Forms in Arabic lookup 9 subtable" uniFEA2
Substitution2: "'medi' Medial Forms in Arabic lookup 11 subtable" uniFEA4
Substitution2: "'init' Initial Forms in Arabic lookup 13 subtable" uniFEA3
EndChar

StartChar: uni062F
Encoding: 1583 1583 23
Width: 936
VWidth: 2181
GlyphClass: 2
Flags: W
AnchorPoint: "Anchor-10" 385.935 1152.81 basechar 0
AnchorPoint: "Anchor-7" 373.059 -204.422 basechar 0
LayerCount: 2
Fore
SplineSet
92.220703125 188.239257812 m 1,0,1
 218.891792778 146.845743449 218.891792778 146.845743449 395.642185451 154.581563131 c 128,-1,2
 572.392578125 162.317382812 572.392578125 162.317382812 654.536132812 220.36328125 c 0,3,4
 728.796875 275.819335938 728.796875 275.819335938 683.780273438 380.474609375 c 0,5,6
 601.982792046 574.819990568 601.982792046 574.819990568 352.834960938 764.814453125 c 1,7,-1
 442.17578125 902.200195312 l 1,8,9
 799.920165913 634.606850865 799.920165913 634.606850865 844.36328125 357.108398438 c 0,10,11
 874.835458886 162.951577892 874.835458886 162.951577892 708.201171875 62.193359375 c 0,12,13
 597.899809209 -4.49985301528 597.899809209 -4.49985301528 397.927443667 -14.3822507264 c 128,-1,14
 197.868300648 -24.2689368777 197.868300648 -24.2689368777 91.8349609375 13.7783203125 c 1,15,-1
 92.220703125 188.239257812 l 1,0,1
EndSplineSet
Substitution2: "'fina' Terminal Forms in Arabic lookup 9 subtable" uniFEAA
EndChar

StartChar: uni0631
Encoding: 1585 1585 25
Width: 837
VWidth: 2186
GlyphClass: 2
Flags: W
AnchorPoint: "Anchor-7" 423 -672.5 basechar 0
AnchorPoint: "Anchor-10" 446.81 945.01 basechar 0
LayerCount: 2
Fore
SplineSet
664.123046875 569.1953125 m 1,0,1
 771.807110618 264.653834768 771.807110618 264.653834768 741.571289062 51.0791015625 c 0,2,3
 663.046875 -501.346679688 663.046875 -501.346679688 97.8876953125 -505.229492188 c 2,4,-1
 96.09765625 -505.2421875 l 1,5,-1
 24.9853515625 -375.56640625 l 1,6,7
 553.669352305 -338.372556952 553.669352305 -338.372556952 589.688476562 70.0361328125 c 0,8,9
 598.780508774 172.374129172 598.780508774 172.374129172 518.131835938 468.461914062 c 1,10,-1
 664.123046875 569.1953125 l 1,0,1
EndSplineSet
PairPos2: "'kern' Horizontal Kerning lookup 15-1" uni06CA dx=-80 dy=0 dh=-80 dv=0 dx=0 dy=0 dh=0 dv=0
PairPos2: "'kern' Horizontal Kerning lookup 15-1" uniFB90 dx=-290 dy=0 dh=-290 dv=0 dx=0 dy=0 dh=0 dv=0
PairPos2: "'kern' Horizontal Kerning lookup 15-1" uniFB8E dx=-200 dy=0 dh=-200 dv=0 dx=0 dy=0 dh=0 dv=0
PairPos2: "'kern' Horizontal Kerning lookup 15-1" uni06A9 dx=-200 dy=0 dh=-200 dv=0 dx=0 dy=0 dh=0 dv=0
PairPos2: "'kern' Horizontal Kerning lookup 15-1" uni064A dx=-100 dy=0 dh=-100 dv=0 dx=0 dy=0 dh=0 dv=0
PairPos2: "'kern' Horizontal Kerning lookup 15-1" afii57414 dx=-100 dy=0 dh=-100 dv=0 dx=0 dy=0 dh=0 dv=0
PairPos2: "'kern' Horizontal Kerning lookup 15-1" uniFBE8 dx=-200 dy=0 dh=-200 dv=0 dx=0 dy=0 dh=0 dv=0
PairPos2: "'kern' Horizontal Kerning lookup 15-1" uni0649 dx=-100 dy=0 dh=-100 dv=0 dx=0 dy=0 dh=0 dv=0
PairPos2: "'kern' Horizontal Kerning lookup 15-1" uni0648 dx=-80 dy=0 dh=-80 dv=0 dx=0 dy=0 dh=0 dv=0
PairPos2: "'kern' Horizontal Kerning lookup 15-1" afii57412 dx=-80 dy=0 dh=-80 dv=0 dx=0 dy=0 dh=0 dv=0
PairPos2: "'kern' Horizontal Kerning lookup 15-1" uniFEEB dx=-200 dy=0 dh=-200 dv=0 dx=0 dy=0 dh=0 dv=0
PairPos2: "'kern' Horizontal Kerning lookup 15-1" uni0647 dx=-200 dy=0 dh=-200 dv=0 dx=0 dy=0 dh=0 dv=0
PairPos2: "'kern' Horizontal Kerning lookup 15-1" uniFEE7 dx=-200 dy=0 dh=-200 dv=0 dx=0 dy=0 dh=0 dv=0
PairPos2: "'kern' Horizontal Kerning lookup 15-1" uni0646 dx=-150 dy=0 dh=-150 dv=0 dx=0 dy=0 dh=0 dv=0
PairPos2: "'kern' Horizontal Kerning lookup 15-1" uniFEE3 dx=-200 dy=0 dh=-200 dv=0 dx=0 dy=0 dh=0 dv=0
PairPos2: "'kern' Horizontal Kerning lookup 15-1" uni0645 dx=-200 dy=0 dh=-200 dv=0 dx=0 dy=0 dh=0 dv=0
PairPos2: "'kern' Horizontal Kerning lookup 15-1" uniFEFB dx=-200 dy=0 dh=-200 dv=0 dx=0 dy=0 dh=0 dv=0
PairPos2: "'kern' Horizontal Kerning lookup 15-1" uniFEDF dx=-200 dy=0 dh=-200 dv=0 dx=0 dy=0 dh=0 dv=0
PairPos2: "'kern' Horizontal Kerning lookup 15-1" uni0644 dx=-150 dy=0 dh=-150 dv=0 dx=0 dy=0 dh=0 dv=0
PairPos2: "'kern' Horizontal Kerning lookup 15-1" uniFEDB dx=-290 dy=0 dh=-290 dv=0 dx=0 dy=0 dh=0 dv=0
PairPos2: "'kern' Horizontal Kerning lookup 15-1" uni0643 dx=-200 dy=0 dh=-200 dv=0 dx=0 dy=0 dh=0 dv=0
PairPos2: "'kern' Horizontal Kerning lookup 15-1" uniFED7 dx=-200 dy=0 dh=-200 dv=0 dx=0 dy=0 dh=0 dv=0
PairPos2: "'kern' Horizontal Kerning lookup 15-1" uni0642 dx=-150 dy=0 dh=-150 dv=0 dx=0 dy=0 dh=0 dv=0
PairPos2: "'kern' Horizontal Kerning lookup 15-1" uniFED3 dx=-200 dy=0 dh=-200 dv=0 dx=0 dy=0 dh=0 dv=0
PairPos2: "'kern' Horizontal Kerning lookup 15-1" uni0641 dx=-200 dy=0 dh=-200 dv=0 dx=0 dy=0 dh=0 dv=0
PairPos2: "'kern' Horizontal Kerning lookup 15-1" uniFECF dx=-200 dy=0 dh=-200 dv=0 dx=0 dy=0 dh=0 dv=0
PairPos2: "'kern' Horizontal Kerning lookup 15-1" uniFECB dx=-200 dy=0 dh=-200 dv=0 dx=0 dy=0 dh=0 dv=0
PairPos2: "'kern' Horizontal Kerning lookup 15-1" uniFEC7 dx=-200 dy=0 dh=-200 dv=0 dx=0 dy=0 dh=0 dv=0
PairPos2: "'kern' Horizontal Kerning lookup 15-1" uni0638 dx=-200 dy=0 dh=-200 dv=0 dx=0 dy=0 dh=0 dv=0
PairPos2: "'kern' Horizontal Kerning lookup 15-1" uniFEC3 dx=-200 dy=0 dh=-200 dv=0 dx=0 dy=0 dh=0 dv=0
PairPos2: "'kern' Horizontal Kerning lookup 15-1" uni0637 dx=-200 dy=0 dh=-200 dv=0 dx=0 dy=0 dh=0 dv=0
PairPos2: "'kern' Horizontal Kerning lookup 15-1" uniFEBF dx=-200 dy=0 dh=-200 dv=0 dx=0 dy=0 dh=0 dv=0
PairPos2: "'kern' Horizontal Kerning lookup 15-1" uni0636 dx=-200 dy=0 dh=-200 dv=0 dx=0 dy=0 dh=0 dv=0
PairPos2: "'kern' Horizontal Kerning lookup 15-1" uniFEBB dx=-200 dy=0 dh=-200 dv=0 dx=0 dy=0 dh=0 dv=0
PairPos2: "'kern' Horizontal Kerning lookup 15-1" uni0635 dx=-200 dy=0 dh=-200 dv=0 dx=0 dy=0 dh=0 dv=0
PairPos2: "'kern' Horizontal Kerning lookup 15-1" uniFEB7 dx=-200 dy=0 dh=-200 dv=0 dx=0 dy=0 dh=0 dv=0
PairPos2: "'kern' Horizontal Kerning lookup 15-1" uni0634 dx=-200 dy=0 dh=-200 dv=0 dx=0 dy=0 dh=0 dv=0
PairPos2: "'kern' Horizontal Kerning lookup 15-1" uniFEB3 dx=-200 dy=0 dh=-200 dv=0 dx=0 dy=0 dh=0 dv=0
PairPos2: "'kern' Horizontal Kerning lookup 15-1" uni0633 dx=-200 dy=0 dh=-200 dv=0 dx=0 dy=0 dh=0 dv=0
PairPos2: "'kern' Horizontal Kerning lookup 15-1" uni0632 dx=-80 dy=0 dh=-80 dv=0 dx=0 dy=0 dh=0 dv=0
PairPos2: "'kern' Horizontal Kerning lookup 15-1" uni0631 dx=-80 dy=0 dh=-80 dv=0 dx=0 dy=0 dh=0 dv=0
PairPos2: "'kern' Horizontal Kerning lookup 15-1" uni0630 dx=-200 dy=0 dh=-200 dv=0 dx=0 dy=0 dh=0 dv=0
PairPos2: "'kern' Horizontal Kerning lookup 15-1" uni062F dx=-200 dy=0 dh=-200 dv=0 dx=0 dy=0 dh=0 dv=0
PairPos2: "'kern' Horizontal Kerning lookup 15-1" uniFEA7 dx=-200 dy=0 dh=-200 dv=0 dx=0 dy=0 dh=0 dv=0
PairPos2: "'kern' Horizontal Kerning lookup 15-1" uniFEA3 dx=-200 dy=0 dh=-200 dv=0 dx=0 dy=0 dh=0 dv=0
PairPos2: "'kern' Horizontal Kerning lookup 15-1" uniFE9F dx=-200 dy=0 dh=-200 dv=0 dx=0 dy=0 dh=0 dv=0
PairPos2: "'kern' Horizontal Kerning lookup 15-1" uniFE9B dx=-200 dy=0 dh=-200 dv=0 dx=0 dy=0 dh=0 dv=0
PairPos2: "'kern' Horizontal Kerning lookup 15-1" uni062B dx=-200 dy=0 dh=-200 dv=0 dx=0 dy=0 dh=0 dv=0
PairPos2: "'kern' Horizontal Kerning lookup 15-1" uniFE97 dx=-200 dy=0 dh=-200 dv=0 dx=0 dy=0 dh=0 dv=0
PairPos2: "'kern' Horizontal Kerning lookup 15-1" uni062A dx=-200 dy=0 dh=-200 dv=0 dx=0 dy=0 dh=0 dv=0
PairPos2: "'kern' Horizontal Kerning lookup 15-1" uni0629 dx=-200 dy=0 dh=-200 dv=0 dx=0 dy=0 dh=0 dv=0
PairPos2: "'kern' Horizontal Kerning lookup 15-1" uniFE91 dx=-80 dy=0 dh=-80 dv=0 dx=0 dy=0 dh=0 dv=0
PairPos2: "'kern' Horizontal Kerning lookup 15-1" uni0628 dx=-200 dy=0 dh=-200 dv=0 dx=0 dy=0 dh=0 dv=0
PairPos2: "'kern' Horizontal Kerning lookup 15-1" uni0627 dx=-200 dy=0 dh=-200 dv=0 dx=0 dy=0 dh=0 dv=0
PairPos2: "'kern' Horizontal Kerning lookup 15-1" uni0623 dx=-200 dy=0 dh=-200 dv=0 dx=0 dy=0 dh=0 dv=0
PairPos2: "'kern' Horizontal Kerning lookup 15-1" uni0622 dx=-200 dy=0 dh=-200 dv=0 dx=0 dy=0 dh=0 dv=0
PairPos2: "'kern' Horizontal Kerning lookup 15-1" uni0621 dx=-200 dy=0 dh=-200 dv=0 dx=0 dy=0 dh=0 dv=0
PairPos2: "'kern' Horizontal Kerning lookup 15-1" uniFB94 dx=-200 dy=0 dh=-200 dv=0 dx=0 dy=0 dh=0 dv=0
PairPos2: "'kern' Horizontal Kerning lookup 15-1" uniFB92 dx=-200 dy=0 dh=-200 dv=0 dx=0 dy=0 dh=0 dv=0
PairPos2: "'kern' Horizontal Kerning lookup 15-1" afii57509 dx=-200 dy=0 dh=-200 dv=0 dx=0 dy=0 dh=0 dv=0
PairPos2: "'kern' Horizontal Kerning lookup 15-1" afii57508 dx=-80 dy=0 dh=-80 dv=0 dx=0 dy=0 dh=0 dv=0
PairPos2: "'kern' Horizontal Kerning lookup 15-1" uniFB7C dx=-150 dy=0 dh=-150 dv=0 dx=0 dy=0 dh=0 dv=0
PairPos2: "'kern' Horizontal Kerning lookup 15-1" afii57506 dx=-200 dy=0 dh=-200 dv=0 dx=0 dy=0 dh=0 dv=0
PairPos2: "'kern' Horizontal Kerning lookup 15-1" afii57440 dx=-200 dy=0 dh=-200 dv=0 dx=0 dy=0 dh=0 dv=0
PairPos2: "'kern' Horizontal Kerning lookup 15-1" uniFE8B dx=-200 dy=0 dh=-200 dv=0 dx=0 dy=0 dh=0 dv=0
Substitution2: "'fina' Terminal Forms in Arabic lookup 9 subtable" uniFEAE
EndChar

StartChar: uni0633
Encoding: 1587 1587 27
Width: 2266
VWidth: 2181
GlyphClass: 2
Flags: W
AnchorPoint: "Anchor-7" 343.5 -661.03 basechar 0
AnchorPoint: "Anchor-10" 535.51 849.5 basechar 0
LayerCount: 2
Fore
SplineSet
1225.50292969 66.4169921875 m 1,0,1
 1215 -488 1215 -488 650.827148438 -488.2890625 c 4,2,3
 253 -488 253 -488 129 -203.55078125 c 4,4,5
 66.37890625 -59.39453125 66.37890625 -59.39453125 96.2236328125 144.134765625 c 4,6,7
 116 279 116 279 174.080078125 409.20703125 c 5,8,-1
 323.830078125 357.799804688 l 5,9,10
 248 174 248 174 248.125976562 33.2744140625 c 4,11,12
 248 2 248 2 252 -28 c 4,13,14
 291 -325 291 -325 663.5 -325 c 132,-1,15
 1036 -325 1036 -325 1081.14355469 3.3720703125 c 0,16,17
 1086 39 1086 39 1085.6484375 73.818359375 c 0,18,19
 1086 246 1086 246 974.734375 387.435546875 c 1,20,-1
 1113.06640625 519.13671875 l 1,21,22
 1160 371 1160 371 1207.1640625 290.859375 c 24,23,24
 1277 171 1277 171 1408.49023438 170.215820312 c 0,25,26
 1539.23632812 168.998046875 1539.23632812 168.998046875 1559.28808594 351.79296875 c 2,27,-1
 1580.63085938 546.360351562 l 1,28,-1
 1705.67480469 546.360351562 l 1,29,-1
 1732.39160156 380.944335938 l 2,30,31
 1766 175 1766 175 1876.85742188 174.408203125 c 0,32,33
 1966 174 1966 174 1990.94824219 229.07421875 c 128,-1,34
 2016 284 2016 284 2015.9140625 350.92578125 c 128,-1,35
 2016 418 2016 418 1974.34863281 650.006835938 c 1,36,-1
 2122.63183594 697.526367188 l 1,37,38
 2175 546 2175 546 2175 374.5 c 128,-1,39
 2175 203 2175 203 2110 111.5 c 0,40,41
 2031 0 2031 0 1872 0 c 128,-1,42
 1713 0 1713 0 1646.12011719 139.125976562 c 1,43,44
 1598 3 1598 3 1433.70800781 1.41015625 c 0,45,46
 1296 0 1296 0 1225.50292969 66.4169921875 c 1,0,1
EndSplineSet
Substitution2: "'fina' Terminal Forms in Arabic lookup 9 subtable" uniFEB2
Substitution2: "'medi' Medial Forms in Arabic lookup 11 subtable" uniFEB4
Substitution2: "'init' Initial Forms in Arabic lookup 13 subtable" uniFEB3
EndChar

StartChar: uni0635
Encoding: 1589 1589 29
Width: 2376
VWidth: 2181
GlyphClass: 2
Flags: W
AnchorPoint: "Anchor-10" 435.84 849.5 basechar 0
AnchorPoint: "Anchor-7" 400.84 -698.5 basechar 0
LayerCount: 2
Fore
SplineSet
656.287109375 -488.25 m 28,0,1
 252 -488 252 -488 128 -203.55078125 c 4,2,3
 65 -59 65 -59 95.2236328125 144.134765625 c 4,4,5
 115 279 115 279 173.080078125 409.20703125 c 5,6,-1
 322.830078125 357.799804688 l 5,7,8
 247 174 247 174 247.125976562 33.2744140625 c 4,9,10
 247 2 247 2 251 -28 c 4,11,12
 290 -325 290 -325 662.5 -325 c 4,13,14
 1044 -326 1044 -326 1085.14355469 3.3720703125 c 0,15,16
 1112 217 1112 217 978.736328125 387.4375 c 1,17,-1
 1117.06152344 519.1328125 l 1,18,19
 1154 433 1154 433 1211.13867188 290.919921875 c 1,20,21
 1237 238 1237 238 1297.62207031 234.241210938 c 1,22,23
 1641 710 1641 710 1955.05371094 709.329101562 c 0,24,25
 2061 709 2061 709 2145.6640625 658.848632812 c 0,26,27
 2283 577 2283 577 2284.74414062 399 c 0,28,29
 2285.98810082 229.620213447 2285.98810082 229.620213447 2132.34082031 107.3203125 c 0,30,31
 1996.49417964 -1.60375863383 1996.49417964 -1.60375863383 1634.984375 -0.6708984375 c 2,32,-1
 1374.9921875 0 l 2,33,34
 1299 0 1299 0 1242.56640625 73.7724609375 c 1,35,-1
 1229.61035156 73.9697265625 l 1,36,37
 1223 -489 1223 -489 656.287109375 -488.25 c 28,0,1
1446.77050781 185.337890625 m 1,38,-1
 1619.20898438 185.337890625 l 2,39,40
 1875.48468027 185.330077401 1875.48468027 185.330077401 1986.96777344 228.629882812 c 0,41,42
 2129.15136719 283.265625 2129.15136719 283.265625 2117.19628906 403.921875 c 0,43,44
 2113.14708973 440.226259963 2113.14708973 440.226259963 2077.32500971 488.808930763 c 128,-1,45
 2041.50292969 537.391601562 2041.50292969 537.391601562 1959.09179688 540.88671875 c 0,46,47
 1830.04101562 547.276367188 1830.04101562 547.276367188 1703.07666016 445.008789062 c 128,-1,48
 1576.11230469 342.741210938 1576.11230469 342.741210938 1446.77050781 185.337890625 c 1,38,-1
EndSplineSet
Substitution2: "'fina' Terminal Forms in Arabic lookup 9 subtable" uniFEBA
Substitution2: "'medi' Medial Forms in Arabic lookup 11 subtable" uniFEBC
Substitution2: "'init' Initial Forms in Arabic lookup 13 subtable" uniFEBB
EndChar

StartChar: uni0637
Encoding: 1591 1591 31
Width: 1457
VWidth: 2181
GlyphClass: 2
Flags: W
AnchorPoint: "Anchor-10" 288.72 1607.47 basechar 0
AnchorPoint: "Anchor-7" 710.72 -255 basechar 0
LayerCount: 2
Fore
SplineSet
527.7265625 186.008789062 m 1,0,-1
 700.165039062 186.008789062 l 2,1,2
 956.4375 186 956.4375 186 1067.92382812 229.30078125 c 0,3,4
 1210.10742188 283.935546875 1210.10742188 283.935546875 1198.15234375 404.592773438 c 0,5,6
 1194.10565036 440.895149049 1194.10565036 440.895149049 1158.28231737 489.478824524 c 128,-1,7
 1122.45898438 538.0625 1122.45898438 538.0625 1040.04785156 541.557617188 c 0,8,9
 910.997070312 547.947265625 910.997070312 547.947265625 784.032714844 445.6796875 c 128,-1,10
 657.068359375 343.412109375 657.068359375 343.412109375 527.7265625 186.008789062 c 1,0,-1
383.060546875 241.125976562 m 1,11,12
 722.563865951 710 722.563865951 710 1036 710 c 0,13,14
 1181.26203656 710 1181.26203656 710 1276.12304688 622.930664062 c 0,15,16
 1364.33100173 541.964331146 1364.33100173 541.964331146 1365.70019531 399.677734375 c 0,17,18
 1367.38671875 215.799804688 1367.38671875 215.799804688 1214.17089844 107.899902344 c 128,-1,19
 1060.95507812 0 1060.95507812 0 715.948242188 0 c 2,20,-1
 91.75 0 l 1,21,-1
 91.75 174.978515625 l 1,22,-1
 259.178710938 174.98046875 l 1,23,-1
 218.211914062 1412.90039062 l 1,24,-1
 383.16015625 1478.30664062 l 5,25,-1
 383.060546875 241.125976562 l 1,11,12
EndSplineSet
Substitution2: "'fina' Terminal Forms in Arabic lookup 9 subtable" uniFEC2
Substitution2: "'medi' Medial Forms in Arabic lookup 11 subtable" uniFEC4
Substitution2: "'init' Initial Forms in Arabic lookup 13 subtable" uniFEC3
EndChar

StartChar: uni0639
Encoding: 1593 1593 33
Width: 1177
VWidth: 2181
GlyphClass: 2
Flags: W
AnchorPoint: "Anchor-10" 523.325 1413.51 basechar 0
AnchorPoint: "Anchor-7" 291.235 -726.76 basechar 0
LayerCount: 2
Fore
SplineSet
791.229492188 803.374023438 m 1,0,1
 663.300375118 865.002962928 663.300375118 865.002962928 558.03515625 865.428710938 c 0,2,3
 453.250057611 865.005915407 453.250057611 865.005915407 400.624052243 812.380887391 c 128,-1,4
 347.998046875 759.755859375 347.998046875 759.755859375 347.964355469 701.030761719 c 128,-1,5
 347.930664062 642.305664062 347.930664062 642.305664062 364.569335938 605.951171875 c 0,6,7
 397.893993612 533.134535658 397.893993612 533.134535658 498.584960938 491.032226562 c 0,8,9
 543.607421875 472 543.607421875 472 570.286621094 472.006835938 c 0,10,11
 614.951490492 472.018280294 614.951490492 472.018280294 687.235351562 481.509765625 c 128,-1,12
 759.647460938 490.979492188 759.647460938 490.979492188 821.633789062 497.478027344 c 128,-1,13
 883.706525388 503.98562138 883.706525388 503.98562138 949.040039062 513.881835938 c 1,14,-1
 949.040039062 356.932617188 l 1,15,16
 706.877341887 340.071043801 706.877341887 340.071043801 514.833007812 238.931640625 c 0,17,18
 255.000976562 101.1953125 255.000976562 101.1953125 255.080078125 -132.1640625 c 0,19,20
 255.000976562 -278.559570312 255.000976562 -278.559570312 362.534179688 -365.280761719 c 128,-1,21
 470.067382812 -452.001953125 470.067382812 -452.001953125 737.771484375 -452.520507812 c 0,22,23
 876.425527215 -452.997763644 876.425527215 -452.997763644 1036.92773438 -406.314453125 c 1,24,-1
 1086.82324219 -554.962890625 l 1,25,26
 901.38073362 -611.974764109 901.38073362 -611.974764109 742.818359375 -612.13671875 c 0,27,28
 333.608398438 -612 333.608398438 -612 187.1484375 -438.98828125 c 0,29,30
 88.998046875 -323.09765625 88.998046875 -323.09765625 88.9985351562 -141.575683594 c 128,-1,31
 88.9990234375 39.9462890625 88.9990234375 39.9462890625 185.471679688 176.992675781 c 128,-1,32
 281.944335938 314.0390625 281.944335938 314.0390625 416.313476562 376.443359375 c 1,33,34
 319.501953125 402.134765625 319.501953125 402.134765625 257.750488281 488.083496094 c 128,-1,35
 195.999023438 574.032226562 195.999023438 574.032226562 196.150390625 682.706054688 c 0,36,37
 195.997880122 783.852779826 195.997880122 783.852779826 251.008217405 871.667600851 c 0,38,39
 342.676053639 1018 342.676053639 1018 550 1018 c 0,40,41
 689.687966345 1018 689.687966345 1018 830.838867188 937.89453125 c 1,42,-1
 791.229492188 803.374023438 l 1,0,1
EndSplineSet
Substitution2: "'fina' Terminal Forms in Arabic lookup 9 subtable" uniFECA
Substitution2: "'medi' Medial Forms in Arabic lookup 11 subtable" uniFECC
Substitution2: "'init' Initial Forms in Arabic lookup 13 subtable" uniFECB
EndChar

StartChar: afii57440
Encoding: 1600 1600 35
Width: 648
VWidth: 2181
GlyphClass: 2
Flags: W
AnchorPoint: "Anchor-10" 324 1277.5 basechar 0
AnchorPoint: "Anchor-7" 324 -113.5 basechar 0
LayerCount: 2
Fore
SplineSet
-10.400390625 0 m 1,0,-1
 -10.400390625 174.978515625 l 1,1,-1
 658.400390625 174.978515625 l 1,2,-1
 658.400390625 0 l 1,3,-1
 -10.400390625 0 l 1,0,-1
EndSplineSet
EndChar

StartChar: uni0643
Encoding: 1603 1603 38
Width: 1770
VWidth: 2181
GlyphClass: 2
Flags: W
AnchorPoint: "Anchor-10" 534 1397.5 basechar 0
AnchorPoint: "Anchor-7" 482 -220.5 basechar 0
LayerCount: 2
Fore
SplineSet
1517.41601562 439.60546875 m 1,0,1
 1472.52686389 1409.81824485 1472.52686389 1409.81824485 1472.33300781 1413.98144531 c 1,2,-1
 1639.29980469 1478.33105469 l 1,3,-1
 1639.29980469 409.7890625 l 2,4,5
 1638.99804688 391.884765625 1638.99804688 391.884765625 1636.64257812 353.302734375 c 0,6,7
 1621.85253906 137.749023438 1621.85253906 137.749023438 1330.04199219 46.412109375 c 0,8,9
 1187.4647063 2.00180024993 1187.4647063 2.00180024993 861.434013308 0.999923562463 c 128,-1,10
 535.403320312 -0.001953125 535.403320312 -0.001953125 375.833007812 66.6142578125 c 0,11,12
 117.779296875 175.525390625 117.779296875 175.525390625 96.009765625 436.756835938 c 0,13,14
 84.9696892021 572.247440483 84.9696892021 572.247440483 123.673828125 709.411132812 c 1,15,-1
 257.858398438 674.005859375 l 1,16,17
 236.009933883 534.836221204 236.009933883 534.836221204 238.534179688 478.390625 c 0,18,19
 251.923638051 214.889730384 251.923638051 214.889730384 604.396484375 184.330078125 c 0,20,21
 762.959490699 170.588687385 762.959490699 170.588687385 1127.76734301 186.590730411 c 128,-1,22
 1492.57519531 202.592773438 1492.57519531 202.592773438 1511.62597656 384.362304688 c 2,23,-1
 1517.41601562 439.60546875 l 1,0,1
689.1484375 725.588867188 m 1,24,25
 753.07790538 717.158203125 753.07790538 717.158203125 811.187878471 717.158203125 c 128,-1,26
 869.297851562 717.158203125 869.297851562 717.158203125 917.022460938 735.946289062 c 0,27,28
 999.450195312 767.603515625 999.450195312 767.603515625 999.450195312 819.8984375 c 0,29,30
 999.450195312 877.883789062 999.450195312 877.883789062 904.047851562 893.4296875 c 0,31,32
 781.919957287 912.034217189 781.919957287 912.034217189 784.374023438 1024.97460938 c 0,33,34
 786.295898438 1102.67578125 786.295898438 1102.67578125 862.845703125 1141.43554688 c 128,-1,35
 939.399187422 1180.19717561 939.399187422 1180.19717561 1050.76953125 1187.25585938 c 1,36,-1
 1050.76953125 1129.33300781 l 1,37,38
 978.684029384 1124.01397921 978.684029384 1124.01397921 940.666992188 1110.00097656 c 0,39,40
 845.330078125 1074.26074219 845.330078125 1074.26074219 845.330078125 1028.54980469 c 0,41,42
 845.330078125 968.894485149 845.330078125 968.894485149 895.333984375 951.030273438 c 0,43,44
 919.310546875 942.46484375 919.310546875 942.46484375 964.172851562 935.867675781 c 128,-1,45
 1009.03515625 929.270507812 1009.03515625 929.270507812 1025.02001953 914.669433594 c 128,-1,46
 1041.00488281 900.068359375 1041.00488281 900.068359375 1045.78222656 893.083007812 c 128,-1,47
 1050.56054688 886.098632812 1050.56054688 886.098632812 1053.72363281 878.004882812 c 0,48,49
 1060.04980469 861.824331477 1060.04980469 861.824331477 1060.04980469 827.151423551 c 128,-1,50
 1060.04980469 792.478515625 1060.04980469 792.478515625 1037.29296875 755.094726562 c 128,-1,51
 1014.53515625 717.7109375 1014.53515625 717.7109375 957.153808594 685.261230469 c 0,52,53
 863.111271646 632.079266345 863.111271646 632.079266345 689.1484375 661.174804688 c 1,54,-1
 689.1484375 725.588867188 l 1,24,25
EndSplineSet
Substitution2: "'fina' Terminal Forms in Arabic lookup 9 subtable" uniFEDA
Substitution2: "'medi' Medial Forms in Arabic lookup 11 subtable" uniFEDC
Substitution2: "'init' Initial Forms in Arabic lookup 13 subtable" uniFEDB
EndChar

StartChar: uni0644
Encoding: 1604 1604 39
Width: 1292
VWidth: 2181
GlyphClass: 2
Flags: W
AnchorPoint: "Anchor-10" 465.01 1022.5 basechar 0
AnchorPoint: "Anchor-7" 362.15 -624.616 basechar 0
LayerCount: 2
Fore
SplineSet
1158.45800781 182.189453125 m 5,0,1
 1156 22 1156 22 1094.38476562 -123.240234375 c 0,2,3
 977 -398 977 -398 638.123046875 -399.997070312 c 0,4,5
 354 -402 354 -402 197 -237 c 0,6,7
 84 -118 84 -118 91.20703125 91.7578125 c 0,8,9
 98 291 98 291 180.145507812 485.856445312 c 1,10,-1
 328 441 l 1,11,12
 245 245 245 245 244 77 c 0,13,14
 243 -66 243 -66 331 -144 c 0,15,16
 444 -245 444 -245 658.268554688 -242.953125 c 0,17,18
 822 -241 822 -241 919 -141 c 0,19,20
 1033.13045861 -23.8661082671 1033.13045861 -23.8661082671 1031.54003906 209.798828125 c 2,21,-1
 1029.91015625 449.26171875 l 1,22,-1
 998.844726562 1410.0078125 l 1,23,-1
 1161.79003906 1477.52050781 l 1,24,-1
 1161.79003906 449.3203125 l 2,25,26
 1162 378 1162 378 1158.45800781 182.189453125 c 5,0,1
EndSplineSet
Substitution2: "'fina' Terminal Forms in Arabic lookup 9 subtable" uniFEDE
Substitution2: "'medi' Medial Forms in Arabic lookup 11 subtable" uniFEE0
Substitution2: "'init' Initial Forms in Arabic lookup 13 subtable" uniFEDF
EndChar

StartChar: uni0645
Encoding: 1605 1605 40
Width: 1123
VWidth: 2181
GlyphClass: 2
Flags: W
AnchorPoint: "Anchor-10" 571.5 1009.31 basechar 0
AnchorPoint: "Anchor-7" 158.631 -726.952 basechar 0
LayerCount: 2
Fore
SplineSet
454.006835938 327.827148438 m 2,0,1
 454.371514958 318.397590897 454.371514958 318.397590897 551.17062076 313.698795448 c 128,-1,2
 647.969726562 309 647.969726562 309 683.520996094 308.999511719 c 0,3,4
 811.559803934 308.997753161 811.559803934 308.997753161 840.743164062 328.182617188 c 0,5,6
 860.407283625 341.104667476 860.407283625 341.104667476 876.265625 375.51953125 c 0,7,8
 933.53125 500.642578125 933.53125 500.642578125 663.1015625 618.086914062 c 0,9,10
 556.770507812 664.547851562 556.770507812 664.547851562 493.630859375 587.7265625 c 1,11,12
 488.686523438 591.791015625 488.686523438 591.791015625 474.700195312 546.528320312 c 128,-1,13
 460.713867188 501.265625 460.713867188 501.265625 454.140625 384.688476562 c 1,14,-1
 454.006835938 327.827148438 l 2,0,1
917.288085938 168.459960938 m 1,15,16
 852.290630882 142.853263243 852.290630882 142.853263243 678.668752941 148.427119903 c 128,-1,17
 505.046875 154.000976562 505.046875 154.000976562 389.710449219 154.000488281 c 128,-1,18
 274.374023438 154 274.374023438 154 239.00390625 84.626953125 c 128,-1,19
 203.633789062 15.25390625 203.633789062 15.25390625 213.0703125 -118.041992188 c 2,20,-1
 245.204101562 -571.927734375 l 1,21,-1
 90 -660.15625 l 1,22,-1
 90 -72 l 2,23,24
 90 116.303710938 90 116.303710938 165.573242188 211.765625 c 0,25,26
 216.085092867 276.144067435 216.085092867 276.144067435 298.084960938 290.331054688 c 1,27,28
 283.289213745 591.399573409 283.289213745 591.399573409 401.484375 702.942382812 c 0,29,30
 548.71484375 843.064453125 548.71484375 843.064453125 727.753417969 757.5703125 c 0,31,32
 1079.51544017 589.597617654 1079.51544017 589.597617654 1027.29003906 387.247070312 c 0,33,34
 969.986472725 166.16970657 969.986472725 166.16970657 917.288085938 168.459960938 c 1,15,16
EndSplineSet
Substitution2: "'init' Initial Forms in Arabic lookup 13 subtable" uniFEE3
Substitution2: "'medi' Medial Forms in Arabic lookup 11 subtable" uniFEE4
Substitution2: "'fina' Terminal Forms in Arabic lookup 9 subtable" uniFEE2
EndChar

StartChar: uni0647
Encoding: 1607 1607 42
Width: 931
VWidth: 2181
GlyphClass: 2
Flags: W
AnchorPoint: "Anchor-10" 422.924 1100.58 basechar 0
AnchorPoint: "Anchor-7" 335.864 -178.56 basechar 0
LayerCount: 2
Fore
SplineSet
459.512695312 626.456054688 m 1,0,1
 204.149394393 367.87224106 204.149394393 367.87224106 275.651367188 234.403320312 c 0,2,3
 297.220123228 193.142033446 297.220123228 193.142033446 370.741897552 163.634981567 c 128,-1,4
 444.263671875 134.127929688 444.263671875 134.127929688 554.720703125 158.173828125 c 0,5,6
 636.616134169 175.560508444 636.616134169 175.560508444 655.229942084 240.712383128 c 128,-1,7
 673.84375 305.864257812 673.84375 305.864257812 640.134765625 399.024414062 c 1,8,9
 650.909179688 402.922851562 650.909179688 402.922851562 565.099609375 506.52734375 c 128,-1,10
 479.290039062 610.1328125 479.290039062 610.1328125 459.512695312 626.456054688 c 1,0,1
471.268554688 3.5302734375 m 0,11,12
 148.766987703 7.03323220477 148.766987703 7.03323220477 105.592773438 234.750976562 c 0,13,14
 79.83984375 370.58203125 79.83984375 370.58203125 157.229003906 496.903808594 c 128,-1,15
 234.618164062 623.225585938 234.618164062 623.225585938 338.627929688 728.495117188 c 1,16,-1
 301.091796875 760.771484375 l 1,17,-1
 407.032226562 874.094726562 l 1,18,19
 686.376854562 671.99938749 686.376854562 671.99938749 777.61328125 477.14453125 c 0,20,21
 916.869140625 182.8359375 916.869140625 182.8359375 697.37109375 49.896484375 c 0,22,23
 618.829016364 1.99171907423 618.829016364 1.99171907423 471.268554688 3.5302734375 c 0,11,12
EndSplineSet
Substitution2: "'fina' Terminal Forms in Arabic lookup 9 subtable" uniFEEA
Substitution2: "'medi' Medial Forms in Arabic lookup 11 subtable" uniFEEC
Substitution2: "'init' Initial Forms in Arabic lookup 13 subtable" uniFEEB
EndChar

StartChar: uni0648
Encoding: 1608 1608 43
Width: 841
VWidth: 2181
GlyphClass: 2
Flags: W
AnchorPoint: "Anchor-10" 361.282 1035.17 basechar 0
AnchorPoint: "Anchor-7" 526.191 -586.443 basechar 0
LayerCount: 2
Fore
SplineSet
416.139648438 516.783203125 m 0,0,1
 289.1484375 513.225585938 289.1484375 513.225585938 245.825195312 344.201171875 c 0,2,3
 201.693118258 173.85852287 201.693118258 173.85852287 349.973512254 148.08746456 c 128,-1,4
 498.25390625 122.31640625 498.25390625 122.31640625 604.594726562 202.543945312 c 1,5,6
 611.697265625 228.51171875 611.697265625 228.51171875 593.221679688 326.217285156 c 0,7,8
 556.432218645 520.773232726 556.432218645 520.773232726 416.139648438 516.783203125 c 0,0,1
671.134765625 530.228515625 m 0,9,10
 790.900767951 304.286992325 790.900767951 304.286992325 735.430175781 -19.71484375 c 0,11,12
 709.830078125 -169.244140625 709.830078125 -169.244140625 625.364257812 -278.444335938 c 0,13,14
 450.479492188 -503.987304688 450.479492188 -503.987304688 97.00390625 -507 c 2,15,-1
 95.197265625 -507.015625 l 1,16,-1
 24.1025390625 -375.282226562 l 1,17,18
 547.011623704 -344.420593138 547.011623704 -344.420593138 587.994140625 42.716796875 c 1,19,20
 528.863006818 -6.0972485218 528.863006818 -6.0972485218 391.034179688 -8.2509765625 c 0,21,22
 214.456054688 -11.0244140625 214.456054688 -11.0244140625 148.663574219 82.603515625 c 128,-1,23
 82.87109375 176.231445312 82.87109375 176.231445312 98.326171875 292.444335938 c 0,24,25
 124.16015625 483.388671875 124.16015625 483.388671875 231.581054688 593.33203125 c 128,-1,26
 339.001953125 703.275390625 339.001953125 703.275390625 489.357421875 671.686523438 c 0,27,28
 609.997070312 646.649414062 609.997070312 646.649414062 671.134765625 530.228515625 c 0,9,10
EndSplineSet
Substitution2: "'fina' Terminal Forms in Arabic lookup 9 subtable" uniFEEE
EndChar

StartChar: uni0649
Encoding: 1609 1609 44
Width: 1407
VWidth: 2181
GlyphClass: 2
Flags: W
AnchorPoint: "Anchor-10" 339.722 866.334 basechar 0
AnchorPoint: "Anchor-7" 283.423 -565.472 basechar 0
LayerCount: 2
Fore
SplineSet
995.77734375 150.6953125 m 1,0,-1
 1051.11523438 151.79296875 l 1,1,2
 1159 152 1159 152 1216.59375 128.065429688 c 0,3,4
 1316 88 1316 88 1315.6953125 -21.955078125 c 0,5,6
 1316 -169 1316 -169 1189.18212891 -287.067382812 c 0,7,8
 1062 -405 1062 -405 834.4453125 -438.966796875 c 0,9,10
 774 -448 774 -448 706.612304688 -447.845703125 c 0,11,12
 506 -448 506 -448 361.8125 -385.754882812 c 0,13,14
 -4 -228 -4 -228 123.559570312 287.717773438 c 0,15,16
 166 459 166 459 266.03125 610.983398438 c 1,17,-1
 399.196289062 536.08203125 l 1,18,19
 317 403 317 403 283.892675211 279.431316347 c 0,20,21
 220 40 220 40 282.969726562 -87.671875 c 0,22,23
 382 -288 382 -288 710.165039062 -287.465820312 c 0,24,25
 882 -287 882 -287 980.817724177 -242.071883149 c 0,26,27
 1168 -157 1168 -157 1174.43945312 -69.1748046875 c 0,28,29
 1177 -29 1177 -29 1158.12304688 -19.73828125 c 0,30,31
 1120.10462277 -3.62040565622 1120.10462277 -3.62040565622 1097.08203125 -3.74609375 c 2,32,-1
 1008.89453125 -4.2275390625 l 1,33,34
 751 0 751 0 736.87890625 149.434570312 c 0,35,36
 730 221 730 221 754.963867188 296.704101562 c 0,37,38
 808 457 808 457 941.05859375 569.287109375 c 0,39,40
 1074 682 1074 682 1226.93554688 683.505859375 c 0,41,42
 1272 684 1272 684 1311.76464844 674.151367188 c 1,43,-1
 1255.24023438 501.995117188 l 5,44,-1
 1251.28125 502.00390625 l 6,45,46
 1067 502 1067 502 939.3046875 349.079101562 c 0,47,48
 885 284 885 284 884.99811402 217.452716346 c 128,-1,49
 885 151 885 151 995.77734375 150.6953125 c 1,0,-1
EndSplineSet
Substitution2: "'fina' Terminal Forms in Arabic lookup 9 subtable" uniFEF0
Substitution2: "'medi' Medial Forms in Arabic lookup 11 subtable" uniFBE9
Substitution2: "'init' Initial Forms in Arabic lookup 13 subtable" uniFBE8
EndChar

StartChar: uni064B
Encoding: 1611 1611 46
Width: -27
VWidth: 2304
GlyphClass: 4
Flags: W
AnchorPoint: "Anchor-10" 609.519 1111.82 mark 0
AnchorPoint: "Anchor-9" 609.519 1111.82 mark 0
AnchorPoint: "Anchor-1" 569.519 1660.78 basemark 0
AnchorPoint: "Anchor-1" 609.519 1111.82 mark 0
LayerCount: 2
Fore
SplineSet
302.015625 1058.01181702 m 1,0,-1
 302.015625 1172.7510716 l 1,1,-1
 805.6796875 1378.70301363 l 1,2,-1
 805.6796875 1263.96280149 l 1,3,-1
 302.015625 1058.01181702 l 1,0,-1
302.015625 1331.51572327 m 1,4,-1
 302.015625 1446.25497785 l 1,5,-1
 805.6796875 1652.20691988 l 1,6,-1
 805.6796875 1537.46670774 l 1,7,-1
 302.015625 1331.51572327 l 1,4,-1
EndSplineSet
EndChar

StartChar: uni064C
Encoding: 1612 1612 47
Width: -27
VWidth: 2304
GlyphClass: 4
Flags: W
AnchorPoint: "Anchor-10" 676.432 1216.14 mark 0
AnchorPoint: "Anchor-9" 676.432 1216.14 mark 0
AnchorPoint: "Anchor-1" 567.983 1908.35 basemark 0
AnchorPoint: "Anchor-1" 676.432 1216.14 mark 0
LayerCount: 2
Fore
SplineSet
652.655273437 1732.86425781 m 0,0,1
 569.463867188 1732.86425781 569.463867188 1732.86425781 569.463867188 1658.640625 c 0,2,3
 569.463867188 1604.83203125 569.463867188 1604.83203125 631.455078125 1580.03515625 c 0,4,5
 654.595973423 1570.77996279 654.595973423 1570.77996279 700.032226562 1556.78613281 c 1,6,-1
 713.090820312 1587.25292969 l 2,7,8
 724.69140625 1614.32226562 724.69140625 1614.32226562 724.69140625 1653.09667969 c 0,9,10
 724.69140625 1732.86425781 724.69140625 1732.86425781 652.655273437 1732.86425781 c 0,0,1
347 1360 m 0,11,12
 379 1292 379 1292 449.545331419 1291.76660156 c 0,13,14
 518 1292 518 1292 592.768554688 1364.57714844 c 0,15,16
 636.118126436 1406.1131846 636.118126436 1406.1131846 661.806640625 1457.5 c 2,17,-1
 672.059570312 1478.00976562 l 1,18,19
 557 1502 557 1502 506.392578125 1572.21484375 c 0,20,21
 471 1620 471 1620 480 1688 c 0,22,23
 485 1729 485 1729 509 1761 c 0,24,25
 554 1822 554 1822 636.941420873 1821.69921875 c 0,26,27
 717 1822 717 1822 765.114746094 1774.30517578 c 0,28,29
 813 1728 813 1728 813.52734375 1645.08105469 c 0,30,31
 813.997428752 1605.21804078 813.997428752 1605.21804078 800.791015625 1563.41113281 c 2,32,-1
 793.893554688 1541.57617188 l 1,33,-1
 816.765625 1540.37597656 l 2,34,35
 844 1539 844 1539 880.192382812 1538.27148438 c 1,36,-1
 880.192382812 1449.32617188 l 1,37,38
 838.775681949 1450.00366941 838.775681949 1450.00366941 823.913085938 1451.43261719 c 2,39,-1
 752.243164062 1458.32324219 l 1,40,41
 719 1380 719 1380 655.074213481 1314.56331625 c 128,-1,42
 591 1249 591 1249 543.787109375 1225.83300781 c 0,43,44
 496 1203 496 1203 447.08203125 1202.93164062 c 0,45,46
 332 1203 332 1203 287 1324 c 4,47,48
 257 1405 257 1405 255.86328125 1515.49121094 c 1,49,-1
 322.107421875 1515.49121094 l 1,50,51
 323 1411 323 1411 347 1360 c 0,11,12
854.4921875 1539.21972656 m 2,52,-1
 854.388671875 1539.22558594 l 2,53,54
 854.440429688 1539.22265625 854.440429688 1539.22265625 854.4921875 1539.21972656 c 2,52,-1
EndSplineSet
EndChar

StartChar: uni064D
Encoding: 1613 1613 48
Width: -27
VWidth: 2304
GlyphClass: 4
Flags: W
AnchorPoint: "Anchor-7" 552.623 75.7275 mark 0
AnchorPoint: "Anchor-6" 552.623 75.7275 mark 0
AnchorPoint: "Anchor-0" 597.519 -469.112 basemark 0
AnchorPoint: "Anchor-0" 552.623 75.7275 mark 0
LayerCount: 2
Fore
SplineSet
307.295898438 -515.428599567 m 1,0,-1
 307.295898438 -400.688387431 l 1,1,-1
 810.959960938 -194.737402955 l 1,2,-1
 810.959960938 -309.47665754 l 1,3,-1
 307.295898438 -515.428599567 l 1,0,-1
307.295898438 -241.924693317 m 1,4,-1
 307.295898438 -127.184481181 l 1,5,-1
 810.959960938 78.7665032954 l 1,6,-1
 810.959960938 -35.9727512898 l 1,7,-1
 307.295898438 -241.924693317 l 1,4,-1
EndSplineSet
EndChar

StartChar: uni064E
Encoding: 1614 1614 49
Width: -27
VWidth: 2304
GlyphClass: 4
Flags: W
AnchorPoint: "Anchor-10" 550.839 1358.15 mark 0
AnchorPoint: "Anchor-9" 550.839 1358.15 mark 0
AnchorPoint: "Anchor-1" 537.839 1686.13 basemark 0
AnchorPoint: "Anchor-1" 550.839 1358.15 mark 0
LayerCount: 2
Fore
SplineSet
271.391601562 1330.45909574 m 1,0,-1
 271.391601562 1445.19931378 l 1,1,-1
 775.055664062 1651.15125582 l 1,2,-1
 775.055664062 1536.41103778 l 1,3,-1
 271.391601562 1330.45909574 l 1,0,-1
EndSplineSet
EndChar

StartChar: uni064F
Encoding: 1615 1615 50
Width: -27
VWidth: 2304
GlyphClass: 4
Flags: W
AnchorPoint: "Anchor-10" 615.623 1281.01 mark 0
AnchorPoint: "Anchor-9" 615.623 1281.01 mark 0
AnchorPoint: "Anchor-1" 546.519 1923.2 basemark 0
AnchorPoint: "Anchor-1" 615.623 1281.01 mark 0
LayerCount: 2
Fore
SplineSet
822.727539062 1464.22460938 m 1,0,1
 766 1465 766 1465 690.735351562 1473.01953125 c 1,2,3
 638 1399 638 1399 563.377929688 1352.99902344 c 0,4,5
 445 1279 445 1279 311 1274 c 1,6,-1
 311 1362.74121094 l 1,7,8
 442 1367 442 1367 520.314453125 1432.41015625 c 0,9,10
 554.555842932 1461.14480957 554.555842932 1461.14480957 569.69921875 1477.09472656 c 2,11,-1
 591.280273438 1499.82519531 l 1,12,13
 553.653565673 1508.17814426 553.653565673 1508.17814426 514.827148438 1528.14355469 c 4,14,15
 477 1548 477 1548 448.861328125 1586.5703125 c 0,16,17
 421 1625 421 1625 420.904296875 1671.78222656 c 0,18,19
 421 1753 421 1753 488 1803 c 0,20,21
 534 1837 534 1837 588.962890625 1836.546875 c 0,22,23
 659 1837 659 1837 707.650390625 1789.15234375 c 0,24,25
 756 1742 756 1742 756.0625 1659.92871094 c 0,26,27
 756.000462851 1626.25126302 756.000462851 1626.25126302 741.043945312 1578.18945312 c 2,28,-1
 734.313476562 1556.56152344 l 1,29,-1
 756.931640625 1555.22460938 l 2,30,31
 795 1553 795 1553 822.727539062 1553.02832031 c 1,32,-1
 822.727539062 1464.22460938 l 1,0,1
642.567382812 1571.63476562 m 1,33,-1
 655.625976562 1602.09960938 l 2,34,35
 667 1629 667 1629 667.227539062 1667.94628906 c 0,36,37
 667 1707 667 1707 642.33203125 1727.21582031 c 0,38,39
 617 1748 617 1748 587.764648438 1747.71191406 c 0,40,41
 558 1748 558 1748 536 1731.08984375 c 0,42,43
 511 1710 511 1710 510 1677 c 0,44,45
 509 1621 509 1621 573.990234375 1594.88183594 c 0,46,47
 597 1586 597 1586 642.567382812 1571.63476562 c 1,33,-1
EndSplineSet
EndChar

StartChar: uni0650
Encoding: 1616 1616 51
Width: -27
VWidth: 2304
GlyphClass: 4
Flags: W
AnchorPoint: "Anchor-7" 567.391 -16.2002 mark 0
AnchorPoint: "Anchor-6" 567.391 -16.2002 mark 0
AnchorPoint: "Anchor-0" 615.023 -326.944 basemark 0
AnchorPoint: "Anchor-0" 567.391 -16.2002 mark 0
LayerCount: 2
Fore
SplineSet
317.856445312 -352.804583874 m 1,0,-1
 317.856445312 -238.064361577 l 1,1,-1
 821.51953125 -32.1133848752 l 1,2,-1
 821.51953125 -146.853607173 l 1,3,-1
 317.856445312 -352.804583874 l 1,0,-1
EndSplineSet
EndChar

StartChar: uni0651
Encoding: 1617 1617 52
Width: -27
VWidth: 2304
GlyphClass: 4
Flags: W
AnchorPoint: "Anchor-10" 609.519 1390.22 mark 0
AnchorPoint: "Anchor-9" 609.519 1390.22 mark 0
AnchorPoint: "Anchor-1" 578.847 1840.34 basemark 0
AnchorPoint: "Anchor-1" 609.519 1390.22 mark 0
LayerCount: 2
Fore
SplineSet
577.407226562 1531.921875 m 1,0,1
 547 1367 547 1367 402.48400556 1366.87597656 c 0,2,3
 258 1367 258 1367 257.186523438 1552.89257812 c 0,4,5
 257 1590 257 1590 272.712890625 1693.63867188 c 1,6,-1
 347.826171875 1693.63867188 l 1,7,8
 335 1604 335 1604 335 1576 c 0,9,10
 335 1463 335 1463 414.949708912 1463.0777407 c 0,11,12
 525 1463 525 1463 530.60546875 1607.45214844 c 0,13,14
 532 1647 532 1647 531.875 1694.11621094 c 0,15,16
 532 1741 532 1741 531.86328125 1749.95605469 c 1,17,-1
 606.123046875 1749.95605469 l 1,18,19
 608 1714 608 1714 608.287109375 1665.99121094 c 0,20,21
 608.000414097 1525.20335128 608.000414097 1525.20335128 730.454841185 1525.40617962 c 2,22,-1
 731.086914062 1525.40722656 l 2,23,24
 805 1526 805 1526 805.22265625 1644.49707031 c 0,25,26
 806 1750 806 1750 794.323242188 1812.33496094 c 1,27,-1
 873.943359375 1812.33496094 l 1,28,29
 885 1733 885 1733 885 1639 c 0,30,31
 885 1486 885 1486 800.654296875 1449.91699219 c 0,32,33
 768 1436 768 1436 736 1435 c 0,34,35
 665 1432 665 1432 628 1459 c 0,36,37
 583 1492 583 1492 577.407226562 1531.921875 c 1,0,1
EndSplineSet
EndChar

StartChar: uni0652
Encoding: 1618 1618 53
Width: -27
VWidth: 2304
GlyphClass: 4
Flags: W
AnchorPoint: "Anchor-10" 588.527 1187.7 mark 0
AnchorPoint: "Anchor-9" 588.527 1187.7 mark 0
AnchorPoint: "Anchor-1" 573.743 1793.31 basemark 0
AnchorPoint: "Anchor-1" 588.527 1187.7 mark 0
LayerCount: 2
Fore
SplineSet
707.344726562 1457.10253906 m 0,0,1
 707.344726562 1505.78320312 707.344726562 1505.78320312 673.299804688 1539.828125 c 128,-1,2
 639.258789062 1573.87304688 639.258789062 1573.87304688 589.884765625 1573.87304688 c 0,3,4
 539.819335938 1573.87304688 539.819335938 1573.87304688 506.124023438 1540.17675781 c 128,-1,5
 472.427734375 1506.48046875 472.427734375 1506.48046875 472.427734375 1457.10253906 c 0,6,7
 472.427734375 1407.03808594 472.427734375 1407.03808594 506.124023438 1373.34277344 c 128,-1,8
 539.819335938 1339.64648438 539.819335938 1339.64648438 589.884765625 1339.64648438 c 0,9,10
 639.260742188 1339.64648438 639.260742188 1339.64648438 673.299804688 1373.69140625 c 128,-1,11
 707.344726562 1407.73535156 707.344726562 1407.73535156 707.344726562 1457.10253906 c 0,0,1
779.41796875 1457.21875 m 128,-1,13
 779.41796875 1377.71484375 779.41796875 1377.71484375 724.528320312 1322.47265625 c 128,-1,14
 669.673828125 1267.2734375 669.673828125 1267.2734375 590.212890625 1267.2734375 c 0,15,16
 563.655273438 1267.2734375 563.655273438 1267.2734375 539.920898438 1273.39550781 c 128,-1,17
 516.186523438 1279.51757812 516.186523438 1279.51757812 495.203125 1291.77636719 c 128,-1,18
 474.220703125 1304.03515625 474.220703125 1304.03515625 455.8984375 1322.47265625 c 0,19,20
 428.400390625 1350.14648438 428.400390625 1350.14648438 414.704101562 1383.76074219 c 128,-1,21
 401.006835938 1417.375 401.006835938 1417.375 401.006835938 1457.21875 c 0,22,23
 401.006835938 1536.6953125 401.006835938 1536.6953125 455.8671875 1591.56542969 c 128,-1,24
 510.7265625 1646.42480469 510.7265625 1646.42480469 590.212890625 1646.42480469 c 128,-1,25
 669.698242188 1646.42480469 669.698242188 1646.42480469 724.556640625 1591.56542969 c 128,-1,12
 779.41796875 1536.6953125 779.41796875 1536.6953125 779.41796875 1457.21875 c 128,-1,13
EndSplineSet
EndChar

StartChar: uni0653
Encoding: 1619 1619 54
Width: 0
VWidth: 2186
GlyphClass: 4
Flags: W
AnchorPoint: "Anchor-10" 406.84 1276.52 mark 0
AnchorPoint: "Anchor-9" 406.84 1276.52 mark 0
AnchorPoint: "Anchor-1" 442.84 1600.5 basemark 0
AnchorPoint: "Anchor-1" 406.84 1276.52 mark 0
LayerCount: 2
Fore
SplineSet
167.08203125 1241.04101562 m 1,0,-1
 81 1318 l 1,1,2
 182 1489 182 1489 320 1461 c 2,3,-1
 440 1437 l 6,4,5
 510 1423 510 1423 612 1491 c 5,6,-1
 673 1402 l 5,7,8
 578.671902269 1295.63001745 578.671902269 1295.63001745 431 1322 c 6,9,-1
 319 1342 l 2,10,11
 223.062435599 1359.13170793 223.062435599 1359.13170793 167.08203125 1241.04101562 c 1,0,-1
EndSplineSet
EndChar

StartChar: uni0657
Encoding: 1623 1623 57
Width: 0
VWidth: 2186
GlyphClass: 4
Flags: W
AnchorPoint: "Anchor-10" 547.84 1279.5 mark 0
AnchorPoint: "Anchor-9" 547.84 1279.5 mark 0
AnchorPoint: "Anchor-1" 547.84 1975 basemark 0
AnchorPoint: "Anchor-1" 547.84 1279.5 mark 0
LayerCount: 2
Fore
SplineSet
501.148 1675.55 m 2,0,1
 509.083 1673.79 509.083 1673.79 527.945 1663.86 c 0,2,3
 636.49 1607.58 636.49 1607.58 636.49 1513.83 c 0,4,5
 636.49 1427.22 636.49 1427.22 567.86 1375.5 c 0,6,7
 541.366 1355.63 541.366 1355.63 478.29 1355.63 c 0,8,9
 405.468 1355.63 405.468 1355.63 366.487 1393.64 c 0,10,11
 311.53 1447.59 311.53 1447.59 311.53 1526.67 c 0,12,13
 311.53 1558.94 311.53 1558.94 325.923 1605.2 c 2,14,-1
 330.858 1621.06 l 1,15,-1
 314.272 1622.04 l 2,16,17
 295.871 1623.12 295.871 1623.12 276.421 1623.66 c 0,18,19
 263.452 1624.02 263.452 1624.02 248.4 1624.15 c 1,20,-1
 248.4 1715.83 l 1,21,22
 278.631 1715.51 278.631 1715.51 306.226 1713.79 c 0,23,24
 338.082 1711.66 338.082 1711.66 367.766 1708.48 c 2,25,-1
 375.369 1707.67 l 1,26,-1
 379.775 1713.92 l 2,27,28
 424.231 1776.99 424.231 1776.99 495.801 1820.55 c 0,29,30
 697.387 1944.51 697.387 1944.51 847.28 1950 c 1,31,-1
 847.28 1858.35 l 1,32,33
 687.009 1853.71 687.009 1853.71 540.898 1739.14 c 0,34,35
 515.54 1719.29 515.54 1719.29 494.545 1697.2 c 2,36,-1
 478.72 1680.54 l 1,37,-1
 501.148 1675.55 l 2,0,1
424.935 1605.66 m 1,38,-1
 413.911 1579.94 l 2,39,40
 403.23 1555.02 403.23 1555.02 403.23 1526.67 c 0,41,42
 403.23 1484.16 403.23 1484.16 426.155 1465.28 c 0,43,44
 447.946 1447.33 447.946 1447.33 474.01 1447.33 c 0,45,46
 502.438 1447.33 502.438 1447.33 518.352 1459.67 c 0,47,48
 542.65 1477.96 542.65 1477.96 542.65 1513.83 c 0,49,50
 542.65 1562.22 542.65 1562.22 486.328 1584.75 c 0,51,52
 464.442 1593.51 464.442 1593.51 436.104 1602.22 c 2,53,-1
 424.935 1605.66 l 1,38,-1
EndSplineSet
EndChar

StartChar: uni065A
Encoding: 1626 1626 58
Width: 1095
VWidth: 2186
GlyphClass: 4
Flags: W
AnchorPoint: "Anchor-10" 547.84 1279.5 mark 0
AnchorPoint: "Anchor-9" 547.84 1279.5 mark 0
AnchorPoint: "Anchor-1" 545.7 1761 basemark 0
AnchorPoint: "Anchor-1" 547.84 1279.5 mark 0
LayerCount: 2
Fore
SplineSet
476.032 1358.84 m 1,0,-1
 282.934 1681.66 l 1,1,-1
 401.783 1681.66 l 1,2,-1
 547.84 1462.57 l 1,3,-1
 693.896 1681.66 l 1,4,-1
 812.746 1681.66 l 1,5,-1
 619.646 1358.84 l 1,6,-1
 476.032 1358.84 l 1,0,-1
EndSplineSet
EndChar

StartChar: afii57392
Encoding: 1632 1632 59
Width: 817
VWidth: 2181
GlyphClass: 2
Flags: W
LayerCount: 2
Fore
SplineSet
311.293945312 481.610351562 m 0,0,1
 311.293945312 415.778023605 311.293945312 415.778023605 372.16015625 390.375976562 c 0,2,3
 389.47076556 383.150390625 389.47076556 383.150390625 419.839386686 383.150390625 c 128,-1,4
 450.208007812 383.150390625 450.208007812 383.150390625 479.209960938 412.15234375 c 128,-1,5
 508.213867188 441.15625 508.213867188 441.15625 508.213867188 471.525878906 c 0,6,7
 508.213867188 522.061529992 508.213867188 522.061529992 479.209960938 551.067382812 c 128,-1,8
 450.208007812 580.0703125 450.208007812 580.0703125 409.75390625 580.0703125 c 128,-1,9
 369.299804688 580.0703125 369.299804688 580.0703125 340.295898438 551.067382812 c 128,-1,10
 311.293945312 522.063476562 311.293945312 522.063476562 311.293945312 481.610351562 c 0,0,1
160.8203125 484.561523438 m 128,-1,12
 160.8203125 587.551757812 160.8203125 587.551757812 233.52734375 660.68359375 c 128,-1,13
 306.194768186 733.775390625 306.194768186 733.775390625 408.500976562 733.775390625 c 128,-1,14
 510.811523438 733.775390625 510.811523438 733.775390625 583.474609375 660.68359375 c 128,-1,15
 656.1796875 587.550252032 656.1796875 587.550252032 656.1796875 484.561523438 c 128,-1,16
 656.1796875 381.566008732 656.1796875 381.566008732 583.473632812 308.44140625 c 128,-1,17
 510.801323645 235.350585938 510.801323645 235.350585938 408.500976562 235.350585938 c 128,-1,18
 306.193359375 235.350585938 306.193359375 235.350585938 233.528320312 308.44140625 c 128,-1,11
 160.8203125 381.5703125 160.8203125 381.5703125 160.8203125 484.561523438 c 128,-1,12
EndSplineSet
EndChar

StartChar: afii57393
Encoding: 1633 1633 60
Width: 763
VWidth: 2181
GlyphClass: 2
Flags: W
LayerCount: 2
Fore
SplineSet
572.000976562 8.5 m 1,0,-1
 409.391601562 8.5 l 1,1,-1
 409.385742188 11.494140625 l 2,2,3
 408.559570312 446.771484375 408.559570312 446.771484375 363.950195312 734.493652344 c 128,-1,4
 319.350677402 1022.15224392 319.350677402 1022.15224392 189.837890625 1300.05664062 c 1,5,-1
 334.291015625 1370.39550781 l 1,6,7
 444.156567086 1188.95088495 444.156567086 1188.95088495 519.734375 841.288085938 c 0,8,9
 569.80078125 610.978515625 569.80078125 610.978515625 571.990234375 11.5107421875 c 2,10,-1
 572.000976562 8.5 l 1,0,-1
EndSplineSet
EndChar

StartChar: afii57394
Encoding: 1634 1634 61
Width: 1108
GlyphClass: 2
Flags: W
LayerCount: 2
Fore
SplineSet
243.131835938 1371.11425781 m 5,0,1
 286.213085033 1265.3100331 286.213085033 1265.3100331 318.314453125 1203.03320312 c 0,2,3
 393.3515625 1058.51953125 393.3515625 1058.51953125 532.497070312 1043.48242188 c 0,4,5
 744.5 1020.5703125 744.5 1020.5703125 804.896484375 1160.83691406 c 0,6,7
 833.588104398 1227.46867406 833.588104398 1227.46867406 853.623046875 1370.04785156 c 1,8,-1
 1007.16210938 1332.69921875 l 1,9,10
 1005.34430202 1197.90604943 1005.34430202 1197.90604943 954.262695312 1083.49121094 c 0,11,12
 844.608188265 837.882203666 844.608188265 837.882203666 508.747070312 873.38671875 c 0,13,14
 452.73828125 879.30859375 452.73828125 879.30859375 405.36328125 894.00390625 c 1,15,16
 440.237304688 787.315429688 440.237304688 787.315429688 463.157226562 577.826171875 c 0,17,18
 471.254567014 503.814445544 471.254567014 503.814445544 477.306640625 8.5 c 1,19,-1
 314.668945312 8.5 l 1,20,-1
 314.6640625 11.4951171875 l 2,21,22
 313.890636533 449.230777416 313.890636533 449.230777416 267.982427641 728.035310583 c 128,-1,23
 222.066354866 1006.8876018 222.066354866 1006.8876018 99.3935546875 1270.515625 c 1,24,-1
 243.131835938 1371.11425781 l 5,0,1
EndSplineSet
EndChar

StartChar: afii57395
Encoding: 1635 1635 62
Width: 1215
GlyphClass: 2
Flags: W
LayerCount: 2
Fore
SplineSet
248.081054688 1371.07910156 m 1,0,1
 315.650057604 1212.50807452 315.650057604 1212.50807452 319.393554688 1206 c 0,2,3
 400.922851562 1054.66796875 400.922851562 1054.66796875 485.357910156 1046.73144531 c 128,-1,4
 569.79296875 1038.79492188 569.79296875 1038.79492188 606.771484375 1087.45117188 c 0,5,6
 650.296875 1145.42852942 650.296875 1145.42852942 650.296875 1321.75 c 2,7,-1
 650.296875 1324.77246094 l 1,8,-1
 772.362304688 1323.85742188 l 1,9,10
 774.500900672 1154.51438724 774.500900672 1154.51438724 787.473632812 1121.12304688 c 0,11,12
 820.691810413 1041.85409678 820.691810413 1041.85409678 891.620117188 1047.0078125 c 0,13,14
 1013.46360983 1055.87073779 1013.46360983 1055.87073779 990.412109375 1362.22753906 c 1,15,-1
 1124.52929688 1340.22460938 l 1,16,17
 1154.20042629 882.575606991 1154.20042629 882.575606991 887.321289062 889.046875 c 0,18,19
 777.258789062 891.951171875 777.258789062 891.951171875 716.53125 981.259765625 c 1,20,21
 663.425329161 894.849768095 663.425329161 894.849768095 555.192382812 887.755859375 c 0,22,23
 485.216796875 883.265625 485.216796875 883.265625 407.651367188 909.489257812 c 1,24,25
 441.08546842 799.881394221 441.08546842 799.881394221 476.3828125 480.197265625 c 0,26,27
 493.846303995 317.894227835 493.846303995 317.894227835 484.177734375 8.5 c 1,28,-1
 319.668945312 8.5 l 1,29,-1
 319.6640625 11.4951171875 l 2,30,31
 318.890615338 449.240819852 318.890615338 449.240819852 273.030756888 727.752734145 c 0,32,33
 227.063247417 1006.91842481 227.063247417 1006.91842481 104.393554688 1270.515625 c 1,34,-1
 248.081054688 1371.07910156 l 1,0,1
EndSplineSet
EndChar

StartChar: afii57396
Encoding: 1636 1636 63
Width: 952
VWidth: 2304
GlyphClass: 2
Flags: W
LayerCount: 2
Fore
SplineSet
694.022460938 736.059570312 m 1,0,1
 266 546.007412157 266 546.007412157 266 342 c 0,2,3
 266 170.017578125 266 170.017578125 553.990234375 171 c 2,4,-1
 849.963867188 172.009765625 l 1,5,-1
 852.036132812 -0.0029296875 l 1,6,-1
 516.19921875 0.3642578125 l 2,7,8
 100 1.0048828125 100 1.0048828125 100 306 c 0,9,10
 100 579.219726562 100 579.219726562 418.423828125 794.166992188 c 1,11,12
 173.002929688 813.81640625 173.002929688 813.81640625 173.370117188 1057.5859375 c 0,13,14
 172.997120371 1382.74835365 172.997120371 1382.74835365 660.374023438 1417.8359375 c 1,15,-1
 660.374023438 1239.71289062 l 1,16,17
 353.002890418 1222.20642292 353.002890418 1222.20642292 353.17578125 1048.60449219 c 0,18,19
 352.98497028 898.08174094 352.98497028 898.08174094 642.380859375 916.372070312 c 0,20,21
 667.727127064 917.973999026 667.727127064 917.973999026 691.939453125 921.419921875 c 1,22,-1
 694.022460938 736.059570312 l 1,0,1
EndSplineSet
EndChar

StartChar: afii57397
Encoding: 1637 1637 64
Width: 1168
VWidth: 2181
GlyphClass: 2
Flags: W
LayerCount: 2
Fore
SplineSet
351.074582442 258.176036881 m 128,-1,1
 442.083984375 182.995117188 442.083984375 182.995117188 621.683105469 182.002929688 c 128,-1,2
 801.282226562 181.010742188 801.282226562 181.010742188 867.280273438 294.264648438 c 0,3,4
 916.934570312 379.696289062 916.934570312 379.696289062 904.451171875 536.026367188 c 0,5,6
 891.084068497 703.820439204 891.084068497 703.820439204 770.418987373 849.218325071 c 128,-1,7
 649.75390625 994.616210938 649.75390625 994.616210938 569.3125 1040.37988281 c 1,8,9
 441.546875 934.682617188 441.546875 934.682617188 358.25329821 790.903012456 c 128,-1,10
 274.95972142 647.123407724 274.95972142 647.123407724 267.512450964 490.240182149 c 128,-1,0
 260.065180509 333.356956574 260.065180509 333.356956574 351.074582442 258.176036881 c 128,-1,1
372.6796875 1175.87109375 m 1,11,-1
 481.127929688 1318.40234375 l 1,12,13
 577.726192347 1268.4595247 577.726192347 1268.4595247 744.853515625 1135.93066406 c 0,14,15
 868.275390625 1038.02441406 868.275390625 1038.02441406 968.617675781 875.971679688 c 0,16,17
 1110.85287322 646.261915416 1110.85287322 646.261915416 1072.76074219 363.150390625 c 0,18,19
 1053.54946518 220.36477181 1053.54946518 220.36477181 978.201171875 138.961914062 c 0,20,21
 865.306640625 16.9951171875 865.306640625 16.9951171875 592.497558594 17.4975585938 c 128,-1,22
 319.688476562 18 319.688476562 18 191.270507812 156.993652344 c 128,-1,23
 62.8525390625 295.987304688 62.8525390625 295.987304688 90.4990234375 520.75390625 c 0,24,25
 113.100585938 699.987304688 113.100585938 699.987304688 208.702148438 863.302734375 c 128,-1,26
 304.303710938 1026.61816406 304.303710938 1026.61816406 434.875976562 1133.83398438 c 1,27,-1
 372.6796875 1175.87109375 l 1,11,-1
EndSplineSet
EndChar

StartChar: afii57398
Encoding: 1638 1638 65
Width: 1145
VWidth: 2181
GlyphClass: 2
Flags: W
LayerCount: 2
Fore
SplineSet
89.9501953125 1364.87792969 m 1,0,1
 454.973447288 1269.23823578 454.973447288 1269.23823578 874.254882812 1365.51269531 c 1,2,-1
 874.272460938 1361.76464844 l 2,3,4
 875.723632812 1056.953125 875.723632812 1056.953125 909.920410156 730.51953125 c 128,-1,5
 944.110573103 404.149076823 944.110573103 404.149076823 1045.34472656 8.5 c 1,6,-1
 866.568359375 8.5 l 1,7,8
 778.175919516 350.056692944 778.175919516 350.056692944 746.949776164 682.893580847 c 128,-1,9
 715.71914863 1015.77826528 715.71914863 1015.77826528 713.484375 1176.27636719 c 1,10,11
 593.841686063 1141.40039062 593.841686063 1141.40039062 428.381952462 1141.40039062 c 128,-1,12
 262.92221886 1141.40039062 262.92221886 1141.40039062 89.9501953125 1191.12109375 c 1,13,-1
 89.9501953125 1364.87792969 l 1,0,1
EndSplineSet
EndChar

StartChar: afii57399
Encoding: 1639 1639 66
Width: 1151
VWidth: 2181
GlyphClass: 2
Flags: W
LayerCount: 2
Fore
SplineSet
493.145507812 8.5 m 1,0,1
 477.679279028 204.775459465 477.679279028 204.775459465 370.147744983 598.338413326 c 128,-1,2
 262.640255542 991.813364486 262.640255542 991.813364486 90.0419921875 1288.73730469 c 1,3,-1
 251.094726562 1370.54980469 l 1,4,5
 413.269192477 1041.71896035 413.269192477 1041.71896035 507.577148438 711.629882812 c 0,6,7
 558.740766056 532.553368175 558.740766056 532.553368175 560.7421875 521.537109375 c 2,8,-1
 575.5 440.349609375 l 1,9,-1
 590.256835938 521.536132812 l 2,10,11
 592.254630468 532.531485105 592.254630468 532.531485105 643.422851562 711.629882812 c 0,12,13
 737.65398511 1041.44616805 737.65398511 1041.44616805 899.905273438 1370.55078125 c 1,14,-1
 1060.81933594 1288.73046875 l 1,15,16
 890.514367749 998.28308664 890.514367749 998.28308664 791.228375281 636.181582382 c 128,-1,17
 691.898365222 273.919543537 691.898365222 273.919543537 658.5234375 8.5 c 1,18,-1
 493.145507812 8.5 l 1,0,1
EndSplineSet
EndChar

StartChar: afii57400
Encoding: 1640 1640 67
Width: 1177
VWidth: 2181
GlyphClass: 2
Flags: W
LayerCount: 2
Fore
SplineSet
506.145507812 1369.5 m 1,0,-1
 671.5234375 1369.5 l 1,1,2
 707.655029841 1082.15763251 707.655029841 1082.15763251 793.372070312 781.375976562 c 0,3,4
 919.173020392 339.956132581 919.173020392 339.956132581 1087.12011719 72.98046875 c 1,5,-1
 912.762695312 7.7392578125 l 1,6,7
 750.728037608 336.291224452 750.728037608 336.291224452 656.422851562 666.370117188 c 0,8,9
 608.890625 832.73828125 608.890625 832.73828125 588.5 938.163085938 c 1,10,11
 568.110984649 832.747330942 568.110984649 832.747330942 520.577148438 666.370117188 c 0,12,13
 426.18379842 335.981663088 426.18379842 335.981663088 264.237304688 7.740234375 c 1,14,-1
 89.8173828125 72.947265625 l 1,15,16
 217.65654855 287.825863353 217.65654855 287.825863353 383.4921875 780.900390625 c 0,17,18
 482.921775246 1074.77729523 482.921775246 1074.77729523 506.145507812 1369.5 c 1,0,-1
EndSplineSet
EndChar

StartChar: afii57401
Encoding: 1641 1641 68
Width: 1139
VWidth: 2181
GlyphClass: 2
Flags: W
LayerCount: 2
Fore
SplineSet
861.004882812 8.5 m 1,0,1
 771.876400791 436.807007906 771.876400791 436.807007906 743.734375 668.083007812 c 1,2,3
 234.425303158 630.342916702 234.425303158 630.342916702 121.891601562 901.639648438 c 0,4,5
 100 954.416015625 100 954.416015625 100 1011.65039062 c 0,6,7
 100 1164.51171875 100 1164.51171875 195.337890625 1259.921875 c 0,8,9
 325.517578125 1391.20800781 325.517578125 1391.20800781 492.827148438 1390.70410156 c 128,-1,10
 660.13671875 1390.20019531 660.13671875 1390.20019531 744.33203125 1309.02050781 c 0,11,12
 863.92578125 1192.6875 863.92578125 1192.6875 877.890625 1005.19140625 c 0,13,14
 888.606445312 860.495117188 888.606445312 860.495117188 918.337890625 620.404296875 c 0,15,16
 948.11578603 379.93837738 948.11578603 379.93837738 1039.31542969 8.5 c 1,17,-1
 861.004882812 8.5 l 1,0,1
719.530273438 831.657226562 m 1,18,-1
 719.530273438 926.049804688 l 2,19,20
 719.530273438 1123.28141019 719.530273438 1123.28141019 587.072265625 1197.93066406 c 0,21,22
 539.748046875 1224.59960938 539.748046875 1224.59960938 488.71875 1224.59960938 c 0,23,24
 357.755772547 1224.59960938 357.755772547 1224.59960938 293.021484375 1119.53613281 c 0,25,26
 265.255561827 1074.47727897 265.255561827 1074.47727897 263.128269195 1026.94957698 c 0,27,28
 258.193218813 916.691307744 258.193218813 916.691307744 387.264648438 857.001953125 c 0,29,30
 493.425897347 807.911157565 493.425897347 807.911157565 719.530273438 831.657226562 c 1,18,-1
EndSplineSet
EndChar

StartChar: afii57381
Encoding: 1642 1642 69
Width: 1183
VWidth: 2186
GlyphClass: 2
Flags: W
LayerCount: 2
Fore
SplineSet
305.390625 1121.04980469 m 2,0,1
 268.389648438 1121.04980469 268.389648438 1121.04980469 268.389648438 1162.04980469 c 2,2,-1
 268.389648438 1290.04980469 l 2,3,4
 268.389648438 1325.04980469 268.389648438 1325.04980469 309.389648438 1325.04980469 c 2,5,-1
 424.389648438 1325.04980469 l 2,6,7
 465.389648438 1325.04980469 465.389648438 1325.04980469 465.389648438 1290.04980469 c 2,8,-1
 465.389648438 1161.04980469 l 2,9,10
 465.389648438 1121.05078125 465.389648438 1121.05078125 432.389648438 1121.04003906 c 2,11,-1
 305.390625 1121.04980469 l 2,0,1
917.192382812 107.848632812 m 2,12,13
 917.192382812 67.84765625 917.192382812 67.84765625 884.192382812 67.84765625 c 2,14,-1
 757.192382812 67.84765625 l 2,15,16
 720.192382812 67.84765625 720.192382812 67.84765625 720.192382812 108.84765625 c 2,17,-1
 720.192382812 236.848632812 l 2,18,19
 720.192382812 271.84765625 720.192382812 271.84765625 761.192382812 271.84765625 c 2,20,-1
 876.192382812 271.84765625 l 2,21,22
 917.192382812 271.84765625 917.192382812 271.84765625 917.192382812 236.848632812 c 2,23,-1
 917.192382812 107.848632812 l 2,12,13
873.109375 1380.53613281 m 1,24,-1
 990.047851562 1320.29003906 l 1,25,-1
 305.249023438 -1.109375 l 1,26,-1
 188.987304688 62.7822265625 l 1,27,-1
 873.109375 1380.53613281 l 1,24,-1
EndSplineSet
EndChar

StartChar: uni066B
Encoding: 1643 1643 70
Width: 717
VWidth: 2186
GlyphClass: 2
Flags: W
LayerCount: 2
Fore
SplineSet
407.731445312 493.911132812 m 1,0,-1
 533.180664062 434.94921875 l 1,1,-1
 163.215820312 -231.254882812 l 1,2,-1
 41.876953125 -169.262695312 l 1,3,-1
 407.731445312 493.911132812 l 1,0,-1
EndSplineSet
EndChar

StartChar: uni066C
Encoding: 1644 1644 71
Width: 702
VWidth: 2186
GlyphClass: 2
Flags: W
LayerCount: 2
Fore
SplineSet
291.200195312 1586.00976562 m 1,0,-1
 496.969726562 1586.00976562 l 1,1,-1
 496.969726562 1435.79394531 l 1,2,-1
 325.387695312 1102.04003906 l 1,3,-1
 206.356445312 1102.04003906 l 1,4,-1
 291.200195312 1432.109375 l 1,5,-1
 291.200195312 1586.00976562 l 1,0,-1
EndSplineSet
EndChar

StartChar: uni066E
Encoding: 1646 1646 72
Width: 1738
VWidth: 2181
GlyphClass: 2
Flags: W
AnchorPoint: "Anchor-10" 761.22 1054.5 basechar 0
AnchorPoint: "Anchor-7" 531.22 -206 basechar 0
LayerCount: 2
Fore
SplineSet
867.470703125 0.982421875 m 0,0,1
 535.204101562 -0.001953125 535.204101562 -0.001953125 375.842773438 66.6103515625 c 0,2,3
 116.4375 175.040039062 116.4375 175.040039062 91.388671875 452.954101562 c 0,4,5
 81.2081778162 561.825250052 81.2081778162 561.825250052 123.688476562 709.407226562 c 1,6,-1
 257.866210938 674.00390625 l 1,7,8
 235.618394755 535.106744766 235.618394755 535.106744766 238.534179688 478.392578125 c 0,9,10
 252.828763942 200.403343154 252.828763942 200.403343154 661.288085938 180.3828125 c 0,11,12
 724.327148438 177.293945312 724.327148438 177.293945312 879.896972656 177.755859375 c 128,-1,13
 1035.46679688 178.217773438 1035.46679688 178.217773438 1064.07324219 180.986328125 c 0,14,15
 1470.76464844 220.100585938 1470.76464844 220.100585938 1482.56542969 316.821289062 c 0,16,17
 1491.171875 382.526367188 1491.171875 382.526367188 1478.5 507.456054688 c 128,-1,18
 1465.82981698 632.369061303 1465.82981698 632.369061303 1441.47070312 709.125 c 1,19,-1
 1606.11816406 793.002929688 l 1,20,21
 1633.43324885 680.67782613 1633.43324885 680.67782613 1646.0859375 548.89453125 c 0,22,23
 1669.05371094 309.751953125 1669.05371094 309.751953125 1618.72753906 200.053710938 c 0,24,25
 1526.56347656 2.826171875 1526.56347656 2.826171875 867.470703125 0.982421875 c 0,0,1
EndSplineSet
Substitution2: "'init' Initial Forms in Arabic lookup 13 subtable" uni066E.init
Substitution2: "'medi' Medial Forms in Arabic lookup 11 subtable" uni066E.medi
Substitution2: "'fina' Terminal Forms in Arabic lookup 9 subtable" uni066E.fina
EndChar

StartChar: uni066F
Encoding: 1647 1647 73
Width: 1505
VWidth: 2181
GlyphClass: 2
Flags: W
AnchorPoint: "Anchor-10" 316 1048.5 basechar 0
AnchorPoint: "Anchor-7" 440 -600 basechar 0
LayerCount: 2
Fore
SplineSet
1106.81738281 686.83984375 m 0,0,1
 984.256835938 684.102539062 984.256835938 684.102539062 933.719726562 536.325195312 c 0,2,3
 862.775375424 331.373791836 862.775375424 331.373791836 1084.19042969 316.696289062 c 0,4,5
 1157.55859375 311.78125 1157.55859375 311.78125 1266.21972656 338.754882812 c 1,6,7
 1268.53584169 690.460680696 1268.53584169 690.460680696 1106.81738281 686.83984375 c 0,0,1
1350.58105469 692.09765625 m 0,8,9
 1405.50488281 580.657226562 1405.50488281 580.657226562 1413.19042969 423.172851562 c 128,-1,10
 1420.87597656 265.688476562 1420.87597656 265.688476562 1413.94287109 177.417480469 c 128,-1,11
 1407.00976562 89.146484375 1407.00976562 89.146484375 1384.79492188 13.671875 c 0,12,13
 1340.32547001 -137.41439746 1340.32547001 -137.41439746 1234.76074219 -240.967773438 c 1,14,15
 1041.4765625 -420.14453125 1041.4765625 -420.14453125 687.784179688 -411.745117188 c 0,16,17
 392.15625 -404.872070312 392.15625 -404.872070312 240.274902344 -250.561035156 c 128,-1,18
 88.3935546875 -96.25 88.3935546875 -96.25 91.8515625 171.610351562 c 0,19,20
 94.6132043024 378.152653631 94.6132043024 378.152653631 186.264648438 563.703125 c 1,21,-1
 341.442382812 524.2578125 l 1,22,23
 254.89323475 297.470898511 254.89323475 297.470898511 255.783203125 161.102539062 c 0,24,25
 258.64453125 -256.734375 258.64453125 -256.734375 732.452148438 -251.85546875 c 0,26,27
 1109.80010151 -248.522165495 1109.80010151 -248.522165495 1222.19726562 5.0283203125 c 0,28,29
 1256.01454321 81.3177562318 1256.01454321 81.3177562318 1257.92285156 174.052734375 c 1,30,31
 953.632876208 120.333295598 953.632876208 120.333295598 840.762695312 246.705078125 c 0,32,33
 761.758789062 335.15625 761.758789062 335.15625 781.584960938 494.279296875 c 128,-1,34
 801.411132812 653.40234375 801.411132812 653.40234375 903.951660156 752.759277344 c 128,-1,35
 1006.4921875 852.116210938 1006.4921875 852.116210938 1122.21972656 845.020507812 c 0,36,37
 1279.87011719 835.572265625 1279.87011719 835.572265625 1350.58105469 692.09765625 c 0,8,9
EndSplineSet
Substitution2: "'init' Initial Forms in Arabic lookup 13 subtable" uni066F.init
Substitution2: "'medi' Medial Forms in Arabic lookup 11 subtable" uni066F.medi
Substitution2: "'fina' Terminal Forms in Arabic lookup 9 subtable" uni066F.fina
EndChar

StartChar: uni0670
Encoding: 1648 1648 74
Width: 6
VWidth: 2186
GlyphClass: 4
Flags: W
AnchorPoint: "Anchor-10" 550.84 1282.5 mark 0
AnchorPoint: "Anchor-9" 550.84 1282.5 mark 0
AnchorPoint: "Anchor-1" 550.84 1887 basemark 0
AnchorPoint: "Anchor-1" 550.84 1282.5 mark 0
LayerCount: 2
Fore
SplineSet
526.14453125 1327.80957031 m 1,0,-1
 501.8984375 1786.35058594 l 1,1,-1
 599.690429688 1843.93847656 l 1,2,-1
 599.690429688 1327.80957031 l 1,3,-1
 526.14453125 1327.80957031 l 1,0,-1
EndSplineSet
EndChar

StartChar: uni0674
Encoding: 1652 1652 75
Width: 645
VWidth: 2186
GlyphClass: 2
Flags: W
LayerCount: 2
Fore
SplineSet
289.940429688 1887.50390625 m 0,0,1
 391.540365168 1908.21893655 391.540365168 1908.21893655 478.080078125 1857.24023438 c 1,2,-1
 478.080078125 1751.76660156 l 1,3,-1
 459.266601562 1761.171875 l 2,4,5
 398.0390625 1791.78320312 398.0390625 1791.78320312 336.39453125 1785.07519531 c 0,6,7
 242.560546875 1774.95019531 242.560546875 1774.95019531 236.211914062 1702.9609375 c 0,8,9
 229.505723386 1625.31411381 229.505723386 1625.31411381 336.930664062 1592.77148438 c 0,10,11
 369.819955396 1582.80713365 369.819955396 1582.80713365 500.549804688 1613.0390625 c 1,12,-1
 500.549804688 1503.99511719 l 1,13,-1
 133.540039062 1421.59765625 l 1,14,-1
 133.540039062 1528.6015625 l 1,15,-1
 220.521484375 1548.67285156 l 1,16,17
 135.6796875 1601.68554611 135.6796875 1601.68554611 135.6796875 1694.67675743 c 128,-1,18
 135.6796875 1787.66796875 135.6796875 1787.66796875 200.43359375 1844.77929688 c 0,19,20
 237.059483244 1876.72344732 237.059483244 1876.72344732 289.940429688 1887.50390625 c 0,0,1
EndSplineSet
EndChar

StartChar: uni06A1
Encoding: 1697 1697 79
Width: 1742
VWidth: 2181
GlyphClass: 2
Flags: W
AnchorPoint: "Anchor-10" 504.55 1228.28 basechar 0
AnchorPoint: "Anchor-7" 611.55 -149.88 basechar 0
LayerCount: 2
Fore
SplineSet
1358.0625 46.640625 m 0,0,1
 1204.45996094 -3.00390625 1204.45996094 -3.00390625 866.423339844 0.0009765625 c 128,-1,2
 528.38671875 3.005859375 528.38671875 3.005859375 375.850585938 66.6064453125 c 0,3,4
 118.885742188 174.576171875 118.885742188 174.576171875 94.0126953125 434.719726562 c 0,5,6
 81.9555150148 563.339094089 81.9555150148 563.339094089 123.682617188 709.409179688 c 1,7,-1
 257.837890625 674.01171875 l 1,8,9
 238.010326871 540.799864491 238.010326871 540.799864491 240.53515625 478.3671875 c 0,10,11
 250.891601562 238.577148438 250.891601562 238.577148438 560.249023438 189.340820312 c 0,12,13
 600.280273438 182.993164062 600.280273438 182.993164062 803.196289062 177.015625 c 0,14,15
 1135.6015625 166.014648438 1135.6015625 166.014648438 1325.84765625 224.046875 c 0,16,17
 1473.4743823 268.374057316 1473.4743823 268.374057316 1503.23925781 414.174804688 c 1,18,19
 1446.3976888 368.846694913 1446.3976888 368.846694913 1338.47960612 366.702644332 c 128,-1,20
 1230.56152344 364.55859375 1230.56152344 364.55859375 1172.73242188 387.466796875 c 128,-1,21
 1114.90332031 410.375 1114.90332031 410.375 1080.234375 457.8828125 c 0,22,23
 1018.87988281 542.189453125 1018.87988281 542.189453125 1036.50830078 689.763183594 c 128,-1,24
 1054.13671875 837.336914062 1054.13671875 837.336914062 1142.64648438 931.100585938 c 0,25,26
 1255.96593092 1050.26584199 1255.96593092 1050.26584199 1403.70605469 1019.31445312 c 0,27,28
 1572.62987287 983.279608944 1572.62987287 983.279608944 1633.55175781 733.630859375 c 0,29,30
 1685.37393018 521.286115977 1685.37393018 521.286115977 1636.44575415 320.973136113 c 128,-1,31
 1587.51757812 120.66015625 1587.51757812 120.66015625 1358.0625 46.640625 c 0,0,1
1338.24609375 863.903320312 m 0,32,33
 1221.38671875 860.560546875 1221.38671875 860.560546875 1181.50195312 701.649414062 c 0,34,35
 1142.35594415 543.918242353 1142.35594415 543.918242353 1279.93139004 520.367324302 c 128,-1,36
 1417.50683594 496.81640625 1417.50683594 496.81640625 1511.86230469 568.73046875 c 1,37,38
 1518.24609375 593.686523438 1518.24609375 593.686523438 1504.09228516 669.849609375 c 128,-1,39
 1489.93847656 746.012695312 1489.93847656 746.012695312 1467.90136719 786.3203125 c 0,40,41
 1424.1210917 866.39596129 1424.1210917 866.39596129 1338.24609375 863.903320312 c 0,32,33
EndSplineSet
Substitution2: "'init' Initial Forms in Arabic lookup 13 subtable" uni06A1.init
Substitution2: "'medi' Medial Forms in Arabic lookup 11 subtable" uni06A1.medi
Substitution2: "'fina' Terminal Forms in Arabic lookup 9 subtable" uni06A1.fina
EndChar

StartChar: uni06A9
Encoding: 1705 1705 80
Width: 1758
VWidth: 2181
GlyphClass: 2
Flags: W
AnchorPoint: "Anchor-10" 372 1205.34 basechar 0
AnchorPoint: "Anchor-7" 488 -232.68 basechar 0
LayerCount: 2
Fore
SplineSet
847.779296875 0 m 2,0,1
 539.399414062 0 539.399414062 0 379.84765625 66.607421875 c 0,2,3
 124.7421875 174.053710938 124.7421875 174.053710938 98.0126953125 436.719726562 c 0,4,5
 85.9510059427 565.382632948 85.9510059427 565.382632948 127.693359375 709.40625 c 1,6,-1
 261.916992188 673.990234375 l 1,7,8
 236.015502748 529.748406957 236.015502748 529.748406957 238.533203125 478.400390625 c 0,9,10
 254.940427723 201.32621077 254.940427723 201.32621077 662.921875 180.594726562 c 0,11,12
 723.689453125 177.5078125 723.689453125 177.5078125 807.12109375 177.016601562 c 2,13,-1
 1059.75 175.00390625 l 1,14,-1
 1194.20996094 175.00390625 l 2,15,16
 1473.44042969 175 1473.44042969 175 1496.7578125 321.299804688 c 0,17,18
 1518.77148438 458.8125 1518.77148438 458.8125 1400.11230469 549.174804688 c 2,19,-1
 1039.44824219 823.833007812 l 2,20,21
 962.121608018 882.417889078 962.121608018 882.417889078 956.357421875 952.209960938 c 0,22,23
 945.814453125 1077.07226562 945.814453125 1077.07226562 1065.10742188 1139.57714844 c 2,24,-1
 1711.08984375 1478.04882812 l 1,25,-1
 1711.08984375 1305.60351562 l 1,26,-1
 1101.12792969 986.432617188 l 1,27,28
 1346.76919181 798.342720836 1346.76919181 798.342720836 1514.96711544 660.814426824 c 128,-1,29
 1683.16503906 523.286132812 1683.16503906 523.286132812 1657.72070312 298.658203125 c 0,30,31
 1640.82128906 151.266601562 1640.82128906 151.266601562 1518.39648438 70.498046875 c 0,32,33
 1411.90022355 6.39488462184e-14 1411.90022355 6.39488462184e-14 1235.54003906 0 c 2,34,-1
 847.779296875 0 l 2,0,1
EndSplineSet
Substitution2: "'init' Initial Forms in Arabic lookup 13 subtable" uniFB90
Substitution2: "'medi' Medial Forms in Arabic lookup 11 subtable" uniFB91
Substitution2: "'fina' Terminal Forms in Arabic lookup 9 subtable" uniFB8F
EndChar

StartChar: afii57514
Encoding: 1722 1722 82
Width: 1381
VWidth: 2186
GlyphClass: 2
Flags: W
AnchorPoint: "Anchor-10" 595.734 1055.15 basechar 0
AnchorPoint: "Anchor-7" 541.58 -486.02 basechar 0
LayerCount: 2
Fore
SplineSet
1155.59472656 754.743164062 m 1,0,1
 1284 541 1284 541 1282.75976562 327.8515625 c 4,2,3
 1279 -275 1279 -275 676.80078125 -282 c 0,4,5
 122 -288 122 -288 91.5751953125 229.223632812 c 0,6,7
 87 308 87 308 108.775390625 421.115234375 c 0,8,9
 131 534 131 534 180.58203125 641.030273438 c 1,10,-1
 320.98828125 586.827148438 l 1,11,12
 232 368 232 368 248.4296875 216.265625 c 0,13,14
 287 -129 287 -129 678.040039062 -126.7578125 c 0,15,16
 1108 -124 1108 -124 1126.75292969 272.610351562 c 0,17,18
 1135 451 1135 451 1014.85058594 620.265625 c 1,19,-1
 1155.59472656 754.743164062 l 1,0,1
EndSplineSet
Substitution2: "'init' Initial Forms in Arabic lookup 13 subtable" uni06BA.init
Substitution2: "'medi' Medial Forms in Arabic lookup 11 subtable" uni06BA.medi
Substitution2: "'fina' Terminal Forms in Arabic lookup 9 subtable" uniFB9F
EndChar

StartChar: uni06F4
Encoding: 1780 1780 89
Width: 1078
VWidth: 2181
GlyphClass: 2
Flags: W
LayerCount: 2
Fore
SplineSet
424.875 1230.76074219 m 0,0,1
 549.413932815 1410.82986599 549.413932815 1410.82986599 873.83984375 1340.83203125 c 1,2,-1
 873.83984375 1191.51269531 l 1,3,4
 797.047167062 1218.93731505 797.047167062 1218.93731505 708.264794468 1211.50479034 c 0,5,6
 509.337476466 1194.85134705 509.337476466 1194.85134705 482.181640625 1021.31640625 c 0,7,8
 476.045436576 982.100093914 476.045436576 982.100093914 483.939453125 944.598632812 c 0,9,10
 494.44921875 893.008789062 494.44921875 893.008789062 699.219726562 893.702148438 c 0,11,12
 755.82824705 894.000532289 755.82824705 894.000532289 931.850585938 919.161132812 c 1,13,-1
 934.038085938 767.365234375 l 1,14,15
 736.36849542 742.002481768 736.36849542 742.002481768 682.095868804 741.788350259 c 128,-1,16
 627.823242188 741.57421875 627.823242188 741.57421875 588.072265625 743.942382812 c 128,-1,17
 548.322265625 746.310546875 548.322265625 746.310546875 516.724609375 750.868164062 c 0,18,19
 453.430646932 759.995671442 453.430646932 759.995671442 422.5234375 777.672851562 c 1,20,21
 473.135742188 552.119140625 473.135742188 552.119140625 481.587890625 58.890625 c 0,22,23
 481.999830812 35.0574992636 481.999830812 35.0574992636 481.37109375 8.5 c 1,24,-1
 318.668945312 8.5 l 1,25,-1
 318.6640625 11.4951171875 l 2,26,27
 318 439.84375 318 439.84375 275.038085938 708.025390625 c 0,28,29
 232.159616173 975.763674954 232.159616173 975.763674954 99.427734375 1274.31640625 c 1,30,-1
 246.534179688 1371.16113281 l 1,31,32
 302.856084825 1200.04127282 302.856084825 1200.04127282 359.205078125 1028.11035156 c 1,33,34
 370.762695312 1152.52148438 370.762695312 1152.52148438 424.875 1230.76074219 c 0,0,1
EndSplineSet
EndChar

StartChar: uni06F5
Encoding: 1781 1781 90
Width: 1221
GlyphClass: 2
Flags: W
LayerCount: 2
Fore
SplineSet
805.709960938 190.203125 m 4,0,1
 976 183 976 183 971.389648438 359.4453125 c 4,2,3
 970.216683697 432.444830447 970.216683697 432.444830447 960.923828125 473.3125 c 4,4,5
 890 789 890 789 592.788085938 1047.77441406 c 5,6,7
 355 773 355 773 278.396484375 523.11328125 c 4,8,9
 249 428 249 428 248.823242188 359.2421875 c 4,10,11
 249 190 249 190 407.176757812 190.375976562 c 4,12,13
 545 190 545 190 580.754882812 395.755859375 c 4,14,15
 584 416 l 5,16,17
 656 416 l 5,18,19
 658.481445312 395.596679688 l 4,20,21
 671.362378858 195.88591439 671.362378858 195.88591439 805.709960938 190.203125 c 4,0,1
615.250976562 162.701171875 m 5,22,23
 559.563534254 8.36328125 559.563534254 8.36328125 394.573242188 8.36328125 c 6,24,-1
 393.030273438 8.3642578125 l 6,25,26
 91.912109375 8.3642578125 91.912109375 8.3642578125 91.912109375 330.874023438 c 4,27,28
 91.912109375 683.625976562 91.912109375 683.625976562 474.8984375 1149.65039062 c 5,29,-1
 428.963867188 1189.53125 l 5,30,-1
 530.620117188 1330.51757812 l 5,31,32
 549.750189838 1320.46618402 549.750189838 1320.46618402 611.940429688 1263.17578125 c 4,33,34
 1129.06738281 791.161132812 1129.06738281 791.161132812 1129.06738281 363.215820312 c 4,35,36
 1129.06738281 324.2578125 1129.06738281 324.2578125 1124.78125 285.665039062 c 4,37,38
 1093.64746094 8.5947265625 1093.64746094 8.5947265625 861.092773438 8.5947265625 c 4,39,40
 670.752362386 8.5947265625 670.752362386 8.5947265625 615.250976562 162.701171875 c 5,22,23
EndSplineSet
EndChar

StartChar: uni06F6
Encoding: 1782 1782 91
Width: 968
VWidth: 2181
GlyphClass: 2
Flags: W
LayerCount: 2
Fore
SplineSet
587 1371 m 0,0,1
 661.330642521 1371 661.330642521 1371 754.639648438 1341.36425781 c 1,2,-1
 754.639648438 1185.48730469 l 1,3,4
 540.58379112 1249.73112331 540.58379112 1249.73112331 419.73828125 1163.5546875 c 0,5,6
 331.004882812 1100.45605469 331.004882812 1100.45605469 331.004882812 1006.92138672 c 128,-1,7
 331.004882812 913.38671875 331.004882812 913.38671875 400.944335938 853.790527344 c 128,-1,8
 470.883789062 794.194335938 470.883789062 794.194335938 642.357421875 823.432617188 c 0,9,10
 724.229369001 836.913120286 724.229369001 836.913120286 867.83984375 895.94921875 c 1,11,-1
 867.83984375 736.083007812 l 1,12,13
 556.740105848 634.924280596 556.740105848 634.924280596 376.619140625 305.923828125 c 0,14,15
 301.166200548 168.103096819 301.166200548 168.103096819 261.333984375 8.5 c 1,16,-1
 99.88671875 8.5 l 1,17,18
 176.276200174 280.285000909 176.276200174 280.285000909 278.315834462 455.420332486 c 128,-1,19
 380.35546875 630.555664062 380.35546875 630.555664062 463.3046875 696.2421875 c 1,20,21
 188.903566782 706.614818827 188.903566782 706.614818827 174.005859375 969.322265625 c 0,22,23
 163.922851562 1139.203125 163.922851562 1139.203125 284.859863281 1255.60498047 c 128,-1,24
 405.796875 1372.00683594 405.796875 1372.00683594 587 1371 c 0,0,1
EndSplineSet
EndChar

StartChar: uniFB8F
Encoding: 64399 64399 106
Width: 2030
VWidth: 2181
GlyphClass: 2
Flags: W
AnchorPoint: "Anchor-10" 453 1177.5 basechar 0
AnchorPoint: "Anchor-7" 532 -209 basechar 0
LayerCount: 2
Fore
SplineSet
813.401367188 0.5 m 2,0,1
 541.203125 -0.0009765625 541.203125 -0.0009765625 381.846679688 66.6083984375 c 0,2,3
 121.3984375 175.037109375 121.3984375 175.037109375 96.388671875 452.959960938 c 0,4,5
 86.4520660302 561.859341208 86.4520660302 561.859341208 129.702148438 709.403320312 c 1,6,-1
 263.8671875 674.00390625 l 1,7,8
 241.617854435 535.097274591 241.617854435 535.097274591 244.534179688 478.391601562 c 0,9,10
 256.946289062 236.993164062 256.946289062 236.993164062 566.236328125 189.342773438 c 0,11,12
 642.5234375 177.569335938 642.5234375 177.569335938 805.41796875 175.48046875 c 1,13,-1
 1255.66894531 175.629882812 l 2,14,15
 1468.89355469 175.700195312 1468.89355469 175.700195312 1496.73144531 311.078125 c 0,16,17
 1512.57617188 388.098632812 1512.57617188 388.098632812 1436.44042969 472.622070312 c 2,18,-1
 1175.49121094 762.341796875 l 2,19,20
 1084.11621094 863.784179688 1084.11621094 863.784179688 1081.23242188 934.801757812 c 0,21,22
 1076.73632812 1045.46777344 1076.73632812 1045.46777344 1197.80175781 1111.01855469 c 2,23,-1
 1877.04980469 1478.79589844 l 1,24,-1
 1877.04980469 1305.15332031 l 1,25,-1
 1219.48828125 948.705078125 l 1,26,-1
 1832.92480469 267.75390625 l 2,27,28
 1889.14838102 205.696175138 1889.14838102 205.696175138 1939.78610457 190.658634444 c 128,-1,29
 1990.42382812 175.62109375 1990.42382812 175.62109375 2027.50585938 175.791015625 c 2,30,-1
 2049.95019531 175.893554688 l 1,31,-1
 2049.95019531 1 l 1,32,-1
 1997.20996094 1 l 2,33,34
 1826.41796875 1 1826.41796875 1 1630.86914062 257.604492188 c 1,35,36
 1600.84960938 0.5 1600.84960938 0.5 1175.66992188 0.5 c 2,37,-1
 813.401367188 0.5 l 2,0,1
EndSplineSet
EndChar

StartChar: uniFB9F
Encoding: 64415 64415 114
Width: 1384
VWidth: 2181
GlyphClass: 2
Flags: W
AnchorPoint: "Anchor-10" 371.092 714.45 basechar 0
AnchorPoint: "Anchor-7" 276.712 -698.104 basechar 0
LayerCount: 2
Fore
SplineSet
659.287109375 -488.25 m 8,0,1
 251.071793125 -493.540041866 251.071793125 -493.540041866 127 -203.55078125 c 0,2,3
 64 -59 64 -59 94.2236328125 144.134765625 c 0,4,5
 114 279 114 279 172.080078125 409.20703125 c 1,6,-1
 321.830078125 357.799804688 l 1,7,8
 246 174 246 174 246.125976562 33.2744140625 c 0,9,10
 246 2 246 2 250 -28 c 0,11,12
 289 -325 289 -325 661.5 -325 c 0,13,14
 1044 -326 1044 -326 1085.14355469 3.3720703125 c 0,15,16
 1112 217 1112 217 978.737304688 387.436523438 c 1,17,-1
 1117.25585938 519.318359375 l 1,18,19
 1173 366 1173 366 1224.18198144 270.780282464 c 0,20,21
 1275.79447989 175.379882812 1275.79447989 175.379882812 1359.28027344 175.379882812 c 2,22,-1
 1394.53027344 175.379882812 l 1,23,-1
 1394.53027344 0.5 l 1,24,-1
 1360.44726562 0.5 l 2,25,26
 1277 0 1277 0 1229.76757812 67.0146484375 c 1,27,28
 1234 -473 1234 -473 659.287109375 -488.25 c 8,0,1
EndSplineSet
EndChar

StartChar: uniFBE8
Encoding: 64488 64488 117
Width: 604
VWidth: 2186
GlyphClass: 2
Flags: W
AnchorPoint: "Anchor-10" 276.93 1019.5 basechar 0
AnchorPoint: "Anchor-7" 308.93 -109.5 basechar 0
LayerCount: 2
Fore
SplineSet
415.59375 75.8154296875 m 0,0,1
 327.109375 0 327.109375 0 80.6494140625 0 c 2,2,-1
 -10.400390625 0 l 1,3,-1
 -10.400390625 174.98046875 l 1,4,-1
 94.048828125 174.98046875 l 2,5,6
 153.801757812 175 153.801757812 175 197.303710938 180.755859375 c 0,7,8
 306.904296875 194.756835938 306.904296875 194.756835938 334.927246094 261.124511719 c 128,-1,9
 362.950195312 327.4921875 362.950195312 327.4921875 351.989257812 460.516113281 c 128,-1,10
 341.029183176 593.529567189 341.029183176 593.529567189 317.55078125 686.482421875 c 1,11,-1
 469.576171875 718.661132812 l 1,12,13
 505.966677532 626.71318501 505.966677532 626.71318501 513.498963766 478.735987036 c 0,14,15
 529.126921759 171.713475942 529.126921759 171.713475942 415.59375 75.8154296875 c 0,0,1
EndSplineSet
EndChar

StartChar: uniFBE9
Encoding: 64489 64489 118
Width: 702
VWidth: 2181
GlyphClass: 2
Flags: W
AnchorPoint: "Anchor-10" 299.93 967.5 basechar 0
AnchorPoint: "Anchor-7" 268.93 -249.5 basechar 0
LayerCount: 2
Fore
SplineSet
396.174804688 95.99609375 m 2,0,1
 310.206054688 0 310.206054688 0 161.900390625 0 c 2,2,-1
 -10.400390625 0 l 1,3,-1
 -10.400390625 174.98046875 l 1,4,-1
 115.048828125 174.98046875 l 2,5,6
 228.771484375 175 228.771484375 175 278.843261719 224.581054688 c 128,-1,7
 328.915039062 274.162109375 328.915039062 274.162109375 330.462890625 345.84765625 c 2,8,-1
 335.041992188 558.03515625 l 1,9,-1
 479.744140625 583.041015625 l 1,10,-1
 488.395507812 345.884765625 l 2,11,12
 490.957506494 270.393544193 490.957506494 270.393544193 548.353515625 219.998046875 c 0,13,14
 600.145830505 174.98046875 600.145830505 174.98046875 689.810546875 174.98046875 c 2,15,-1
 712.66015625 174.98046875 l 1,16,-1
 712.66015625 0 l 1,17,-1
 666.959960938 0 l 2,18,19
 506.453532084 0 506.453532084 0 418.2890625 95.330078125 c 2,20,-1
 406.788085938 107.846679688 l 1,21,-1
 396.174804688 95.99609375 l 2,0,1
EndSplineSet
EndChar

StartChar: uniFE73
Encoding: 65139 65139 126
Width: 579
VWidth: 2186
GlyphClass: 2
Flags: W
AnchorPoint: "Anchor-10" 213.79 1282.5 basechar 0
AnchorPoint: "Anchor-7" 213.79 -108.5 basechar 0
LayerCount: 2
Fore
SplineSet
302.23046875 353.740234375 m 2,0,1
 302.23046875 290.749023438 302.23046875 290.749023438 354.913574219 238.064453125 c 128,-1,2
 407.596679688 185.379882812 407.596679688 185.379882812 517.669921875 185.379882812 c 2,3,-1
 587.919921875 185.379882812 l 1,4,-1
 587.919921875 8.5 l 1,5,-1
 458.8203125 8.5 l 2,6,7
 311.0234375 8.5 311.0234375 8.5 218.186523438 101.3359375 c 128,-1,8
 125.349609375 194.171875 125.349609375 194.171875 125.349609375 340.900390625 c 2,9,-1
 125.349609375 376.91015625 l 1,10,-1
 302.23046875 376.91015625 l 1,11,-1
 302.23046875 353.740234375 l 2,0,1
EndSplineSet
EndChar

StartChar: uniFE8E
Encoding: 65166 65166 152
Width: 526
VWidth: 2181
GlyphClass: 2
Flags: W
AnchorPoint: "Anchor-10" 215.95 1583 basechar 0
AnchorPoint: "Anchor-7" 249.95 -203.5 basechar 0
LayerCount: 2
Fore
SplineSet
292.989257812 419.780273438 m 2,0,1
 293.014676497 175.011051965 293.014676497 175.011051965 513.830078125 174.98046875 c 2,2,-1
 536.080078125 174.98046875 l 1,3,-1
 536.080078125 0 l 1,4,-1
 493.98046875 0 l 2,5,6
 314.400390625 0 314.400390625 0 230.30078125 125.333007812 c 0,7,8
 175.034179688 208.0390625 175.034179688 208.0390625 167.51171875 406.828125 c 2,9,-1
 130.436523438 1405.95605469 l 1,10,-1
 293.391601562 1477.62792969 l 1,11,-1
 292.989257812 419.780273438 l 2,0,1
EndSplineSet
EndChar

StartChar: uniFEA2
Encoding: 65186 65186 172
Width: 1305
VWidth: 2181
GlyphClass: 2
Flags: W
AnchorPoint: "Anchor-10" 581.5 1121 basechar 0
AnchorPoint: "Anchor-7" 412.84 -762.64 basechar 0
LayerCount: 2
Fore
SplineSet
1292.50585938 -0.5 m 2,0,1
 935.805199938 0.00218338003547 935.805199938 0.00218338003547 880.439453125 410.497070312 c 1,2,3
 683.84375 375.451171875 683.84375 375.451171875 537.504882812 291.404296875 c 0,4,5
 251.000976562 125.272460938 251.000976562 125.272460938 251.080078125 -132.166015625 c 0,6,7
 251.000976562 -278.559570312 251.000976562 -278.559570312 358.534179688 -365.280761719 c 128,-1,8
 466.067382812 -452.001953125 466.067382812 -452.001953125 733.76953125 -452.520507812 c 0,9,10
 926.498953012 -452.99865258 926.498953012 -452.99865258 1089.94921875 -406.323242188 c 1,11,-1
 1137.8046875 -551.967773438 l 1,12,13
 939.466518009 -613 939.466518009 -613 727 -613 c 0,14,15
 342.611328125 -613 342.611328125 -613 194.15625 -437.99609375 c 0,16,17
 90.998046875 -317.104492188 90.998046875 -317.104492188 90.9985351562 -138.603515625 c 128,-1,18
 90.9990234375 39.8974609375 90.9990234375 39.8974609375 189.981933594 190.130859375 c 128,-1,19
 288.96484375 340.364257812 288.96484375 340.364257812 481.423339844 429.304199219 c 128,-1,20
 673.881835938 518.244140625 673.881835938 518.244140625 822.833007812 531.293945312 c 1,21,22
 757.820417425 547.690543957 757.820417425 547.690543957 679.68266965 584.590389166 c 128,-1,23
 601.544921875 621.490234375 601.544921875 621.490234375 569.151367188 634.969726562 c 0,24,25
 504.761950607 661.762416695 504.761950607 661.762416695 478.248046875 663.987304688 c 0,26,27
 360.330124848 673.878348172 360.330124848 673.878348172 222.522460938 498.813476562 c 1,28,-1
 113.92578125 582.349609375 l 1,29,30
 274.565221501 818 274.565221501 818 463 818 c 0,31,32
 493.412109375 818 493.412109375 818 530.236328125 807.910644531 c 128,-1,33
 567.060546875 797.821289062 567.060546875 797.821289062 715.608886719 725.297363281 c 128,-1,34
 864.157226562 652.7734375 864.157226562 652.7734375 940.425292969 626.353515625 c 128,-1,35
 1016.6711378 599.941291496 1016.6711378 599.941291496 1104.3984375 588.17578125 c 1,36,-1
 1081.62890625 429.193359375 l 1,37,38
 1043.16408235 426.233322031 1043.16408235 426.233322031 1014.37792969 424.088867188 c 1,39,40
 1047.08886719 174.379882812 1047.08886719 174.379882812 1286.12988281 174.379882812 c 2,41,-1
 1315.94042969 174.379882812 l 1,42,-1
 1315.94042969 -0.5 l 1,43,-1
 1292.50585938 -0.5 l 2,0,1
EndSplineSet
EndChar

StartChar: uniFEA3
Encoding: 65187 65187 173
Width: 1332
VWidth: 2181
GlyphClass: 2
Flags: W
AnchorPoint: "Anchor-10" 371 1055.73 basechar 0
AnchorPoint: "Anchor-7" 566 -205.5 basechar 0
LayerCount: 2
Fore
SplineSet
621.161132812 89.7822265625 m 0,0,1
 435.6875 0 435.6875 0 46.2548828125 0 c 2,2,-1
 -10.400390625 0 l 1,3,-1
 -10.400390625 174.98046875 l 1,4,-1
 17.599609375 174.98046875 l 2,5,6
 365.474609375 175 365.474609375 175 501.833007812 224.302734375 c 0,7,8
 734.657226562 308.533203125 734.657226562 308.533203125 920.72265625 399.366210938 c 1,9,10
 840.666992188 407.75390625 840.666992188 407.75390625 673.911621094 481.922851562 c 128,-1,11
 507.15625 556.091796875 507.15625 556.091796875 409.685546875 570.426757812 c 0,12,13
 296.305410267 586.781095306 296.305410267 586.781095306 169.676757812 420.178710938 c 1,14,-1
 60.9951171875 503.780273438 l 1,15,16
 155.874733003 637.164969491 155.874733003 637.164969491 211.354492188 677.4296875 c 0,17,18
 335.399414062 767.26953125 335.399414062 767.26953125 501.6328125 722.4453125 c 0,19,20
 555.992744174 707.838635917 555.992744174 707.838635917 868.047851562 572.299804688 c 0,21,22
 1071.51472044 484.046490958 1071.51472044 484.046490958 1240.68945312 495.243164062 c 1,23,-1
 1217.73339844 356.881835938 l 1,24,25
 1137.88825955 340.096872435 1137.88825955 340.096872435 621.161132812 89.7822265625 c 0,0,1
EndSplineSet
EndChar

StartChar: uniFEA4
Encoding: 65188 65188 174
Width: 1343
VWidth: 2181
GlyphClass: 2
Flags: W
AnchorPoint: "Anchor-10" 379 1075.69 basechar 0
AnchorPoint: "Anchor-7" 547 -213.5 basechar 0
LayerCount: 2
Fore
SplineSet
1224.91992188 0 m 2,0,1
 899.019360152 0 899.019360152 0 835.46484375 191.600585938 c 1,2,3
 740.39453125 146.391601562 740.39453125 146.391601562 621.161132812 89.7822265625 c 0,4,5
 435.6875 0 435.6875 0 46.2548828125 0 c 2,6,-1
 -10.400390625 0 l 1,7,-1
 -10.400390625 174.98046875 l 1,8,-1
 17.599609375 174.98046875 l 2,9,10
 365.474609375 175 365.474609375 175 501.833007812 224.302734375 c 0,11,12
 734.657226562 308.533203125 734.657226562 308.533203125 920.72265625 399.366210938 c 1,13,14
 840.666992188 407.75390625 840.666992188 407.75390625 673.911621094 481.922851562 c 128,-1,15
 507.15625 556.091796875 507.15625 556.091796875 409.685546875 570.426757812 c 0,16,17
 296.305410267 586.781095306 296.305410267 586.781095306 169.676757812 420.178710938 c 1,18,-1
 60.9931640625 503.78125 l 1,19,20
 153.832310688 634.123521048 153.832310688 634.123521048 211.322265625 677.40625 c 0,21,22
 332.99609375 767.993164062 332.99609375 767.993164062 500.73046875 722.690429688 c 0,23,24
 556.78515625 707.495117188 556.78515625 707.495117188 868.047851562 572.299804688 c 0,25,26
 1071.51472044 484.046490958 1071.51472044 484.046490958 1240.68945312 495.243164062 c 1,27,-1
 1217.74121094 356.923828125 l 1,28,29
 1171.29619005 346.216443071 1171.29619005 346.216443071 972.569335938 255.232421875 c 1,30,31
 986.520507812 175.879882812 986.520507812 175.879882812 1246.3203125 175.879882812 c 2,32,-1
 1353.94042969 175.879882812 l 1,33,-1
 1353.94042969 0 l 1,34,-1
 1224.91992188 0 l 2,0,1
EndSplineSet
EndChar

StartChar: uniFEAA
Encoding: 65194 65194 180
Width: 1097
VWidth: 2181
GlyphClass: 2
Flags: W
AnchorPoint: "Anchor-10" 485.99 1216.65 basechar 0
AnchorPoint: "Anchor-7" 448.5 -233 basechar 0
LayerCount: 2
Fore
SplineSet
686.716796875 338.181640625 m 2,0,-1
 440.819335938 837.520507812 l 1,1,-1
 596.19921875 903.55859375 l 1,2,-1
 861.674804688 377.357421875 l 2,3,4
 963.092265905 177.508682403 963.092265905 177.508682403 1076.4453125 175.8046875 c 2,5,-1
 1107.65039062 175.334960938 l 1,6,-1
 1107.65039062 0.5 l 1,7,-1
 1073.44921875 0.5 l 2,8,9
 915.123046875 0.00390625 915.123046875 0.00390625 823.874023438 119.80078125 c 1,10,11
 710.38792853 -28.9376711351 710.38792853 -28.9376711351 341.344726562 -19.9990234375 c 0,12,13
 206.476410688 -16.9893358599 206.476410688 -16.9893358599 90.1748046875 22.970703125 c 1,14,-1
 90.1748046875 209.469726562 l 1,15,16
 207.600589763 158.991711134 207.600589763 158.991711134 351.4609375 157 c 0,17,18
 600.2421875 152.947265625 600.2421875 152.947265625 681.78515625 234.89453125 c 0,19,20
 718.823242188 272.108398438 718.823242188 272.108398438 686.716796875 338.181640625 c 2,0,-1
EndSplineSet
EndChar

StartChar: uniFEAE
Encoding: 65198 65198 184
Width: 931
VWidth: 2186
GlyphClass: 2
Flags: W
AnchorPoint: "Anchor-10" 492 821 basechar 0
AnchorPoint: "Anchor-7" 420.925 -642.55 basechar 0
LayerCount: 2
Fore
SplineSet
923.765625 0.0087890625 m 2,0,1
 784.366631876 0.0828379573043 784.366631876 0.0828379573043 738.705078125 47.5380859375 c 1,2,3
 664.049804688 -501.497070312 664.049804688 -501.497070312 97.7646484375 -503.802734375 c 2,4,-1
 95.466796875 -503.809570312 l 1,5,-1
 24.306640625 -375.09375 l 1,6,7
 541.319709861 -344.143163053 541.319709861 -344.143163053 590.12109375 69.7783203125 c 0,8,9
 601.94903652 170.743491029 601.94903652 170.743491029 519.147460938 466.708984375 c 1,10,-1
 661.591796875 569.33203125 l 1,11,12
 725.845356164 261.951508735 725.845356164 261.951508735 730.451171875 247.4375 c 0,13,14
 755.153320312 174.98046875 755.153320312 174.98046875 918.83984375 174.98046875 c 2,15,-1
 941.599609375 174.98046875 l 1,16,-1
 941.599609375 -0.0009765625 l 1,17,-1
 923.765625 0.0087890625 l 2,0,1
EndSplineSet
PairPos2: "'kern' Horizontal Kerning lookup 15-1" uni06CA dx=-80 dy=0 dh=-80 dv=0 dx=0 dy=0 dh=0 dv=0
PairPos2: "'kern' Horizontal Kerning lookup 15-1" uniFB90 dx=-290 dy=0 dh=-290 dv=0 dx=0 dy=0 dh=0 dv=0
PairPos2: "'kern' Horizontal Kerning lookup 15-1" uniFB8E dx=-200 dy=0 dh=-200 dv=0 dx=0 dy=0 dh=0 dv=0
PairPos2: "'kern' Horizontal Kerning lookup 15-1" uni06A9 dx=-200 dy=0 dh=-200 dv=0 dx=0 dy=0 dh=0 dv=0
PairPos2: "'kern' Horizontal Kerning lookup 15-1" uni064A dx=-100 dy=0 dh=-100 dv=0 dx=0 dy=0 dh=0 dv=0
PairPos2: "'kern' Horizontal Kerning lookup 15-1" afii57414 dx=-100 dy=0 dh=-100 dv=0 dx=0 dy=0 dh=0 dv=0
PairPos2: "'kern' Horizontal Kerning lookup 15-1" uniFBE8 dx=-200 dy=0 dh=-200 dv=0 dx=0 dy=0 dh=0 dv=0
PairPos2: "'kern' Horizontal Kerning lookup 15-1" uni0649 dx=-80 dy=0 dh=-80 dv=0 dx=0 dy=0 dh=0 dv=0
PairPos2: "'kern' Horizontal Kerning lookup 15-1" uni0648 dx=-80 dy=0 dh=-80 dv=0 dx=0 dy=0 dh=0 dv=0
PairPos2: "'kern' Horizontal Kerning lookup 15-1" afii57412 dx=-80 dy=0 dh=-80 dv=0 dx=0 dy=0 dh=0 dv=0
PairPos2: "'kern' Horizontal Kerning lookup 15-1" uniFEEB dx=-200 dy=0 dh=-200 dv=0 dx=0 dy=0 dh=0 dv=0
PairPos2: "'kern' Horizontal Kerning lookup 15-1" uni0647 dx=-200 dy=0 dh=-200 dv=0 dx=0 dy=0 dh=0 dv=0
PairPos2: "'kern' Horizontal Kerning lookup 15-1" uniFEE7 dx=-200 dy=0 dh=-200 dv=0 dx=0 dy=0 dh=0 dv=0
PairPos2: "'kern' Horizontal Kerning lookup 15-1" uni0646 dx=-150 dy=0 dh=-150 dv=0 dx=0 dy=0 dh=0 dv=0
PairPos2: "'kern' Horizontal Kerning lookup 15-1" uniFEE3 dx=-200 dy=0 dh=-200 dv=0 dx=0 dy=0 dh=0 dv=0
PairPos2: "'kern' Horizontal Kerning lookup 15-1" uni0645 dx=-200 dy=0 dh=-200 dv=0 dx=0 dy=0 dh=0 dv=0
PairPos2: "'kern' Horizontal Kerning lookup 15-1" uniFEFB dx=-200 dy=0 dh=-200 dv=0 dx=0 dy=0 dh=0 dv=0
PairPos2: "'kern' Horizontal Kerning lookup 15-1" uniFEDF dx=-200 dy=0 dh=-200 dv=0 dx=0 dy=0 dh=0 dv=0
PairPos2: "'kern' Horizontal Kerning lookup 15-1" uni0644 dx=-150 dy=0 dh=-150 dv=0 dx=0 dy=0 dh=0 dv=0
PairPos2: "'kern' Horizontal Kerning lookup 15-1" uniFEDB dx=-290 dy=0 dh=-290 dv=0 dx=0 dy=0 dh=0 dv=0
PairPos2: "'kern' Horizontal Kerning lookup 15-1" uni0643 dx=-200 dy=0 dh=-200 dv=0 dx=0 dy=0 dh=0 dv=0
PairPos2: "'kern' Horizontal Kerning lookup 15-1" uniFED7 dx=-200 dy=0 dh=-200 dv=0 dx=0 dy=0 dh=0 dv=0
PairPos2: "'kern' Horizontal Kerning lookup 15-1" uni0642 dx=-150 dy=0 dh=-150 dv=0 dx=0 dy=0 dh=0 dv=0
PairPos2: "'kern' Horizontal Kerning lookup 15-1" uniFED3 dx=-200 dy=0 dh=-200 dv=0 dx=0 dy=0 dh=0 dv=0
PairPos2: "'kern' Horizontal Kerning lookup 15-1" uni0641 dx=-200 dy=0 dh=-200 dv=0 dx=0 dy=0 dh=0 dv=0
PairPos2: "'kern' Horizontal Kerning lookup 15-1" uniFECF dx=-200 dy=0 dh=-200 dv=0 dx=0 dy=0 dh=0 dv=0
PairPos2: "'kern' Horizontal Kerning lookup 15-1" uniFECB dx=-200 dy=0 dh=-200 dv=0 dx=0 dy=0 dh=0 dv=0
PairPos2: "'kern' Horizontal Kerning lookup 15-1" uniFEC7 dx=-200 dy=0 dh=-200 dv=0 dx=0 dy=0 dh=0 dv=0
PairPos2: "'kern' Horizontal Kerning lookup 15-1" uni0638 dx=-200 dy=0 dh=-200 dv=0 dx=0 dy=0 dh=0 dv=0
PairPos2: "'kern' Horizontal Kerning lookup 15-1" uniFEC3 dx=-200 dy=0 dh=-200 dv=0 dx=0 dy=0 dh=0 dv=0
PairPos2: "'kern' Horizontal Kerning lookup 15-1" uni0637 dx=-200 dy=0 dh=-200 dv=0 dx=0 dy=0 dh=0 dv=0
PairPos2: "'kern' Horizontal Kerning lookup 15-1" uniFEBF dx=-200 dy=0 dh=-200 dv=0 dx=0 dy=0 dh=0 dv=0
PairPos2: "'kern' Horizontal Kerning lookup 15-1" uni0636 dx=-200 dy=0 dh=-200 dv=0 dx=0 dy=0 dh=0 dv=0
PairPos2: "'kern' Horizontal Kerning lookup 15-1" uniFEBB dx=-200 dy=0 dh=-200 dv=0 dx=0 dy=0 dh=0 dv=0
PairPos2: "'kern' Horizontal Kerning lookup 15-1" uni0635 dx=-200 dy=0 dh=-200 dv=0 dx=0 dy=0 dh=0 dv=0
PairPos2: "'kern' Horizontal Kerning lookup 15-1" uniFEB7 dx=-200 dy=0 dh=-200 dv=0 dx=0 dy=0 dh=0 dv=0
PairPos2: "'kern' Horizontal Kerning lookup 15-1" uni0634 dx=-200 dy=0 dh=-200 dv=0 dx=0 dy=0 dh=0 dv=0
PairPos2: "'kern' Horizontal Kerning lookup 15-1" uniFEB3 dx=-200 dy=0 dh=-200 dv=0 dx=0 dy=0 dh=0 dv=0
PairPos2: "'kern' Horizontal Kerning lookup 15-1" uni0633 dx=-200 dy=0 dh=-200 dv=0 dx=0 dy=0 dh=0 dv=0
PairPos2: "'kern' Horizontal Kerning lookup 15-1" uni0632 dx=-80 dy=0 dh=-80 dv=0 dx=0 dy=0 dh=0 dv=0
PairPos2: "'kern' Horizontal Kerning lookup 15-1" uni0631 dx=-80 dy=0 dh=-80 dv=0 dx=0 dy=0 dh=0 dv=0
PairPos2: "'kern' Horizontal Kerning lookup 15-1" uni0630 dx=-200 dy=0 dh=-200 dv=0 dx=0 dy=0 dh=0 dv=0
PairPos2: "'kern' Horizontal Kerning lookup 15-1" uni062F dx=-200 dy=0 dh=-200 dv=0 dx=0 dy=0 dh=0 dv=0
PairPos2: "'kern' Horizontal Kerning lookup 15-1" uniFEA7 dx=-200 dy=0 dh=-200 dv=0 dx=0 dy=0 dh=0 dv=0
PairPos2: "'kern' Horizontal Kerning lookup 15-1" uniFEA3 dx=-200 dy=0 dh=-200 dv=0 dx=0 dy=0 dh=0 dv=0
PairPos2: "'kern' Horizontal Kerning lookup 15-1" uniFE9F dx=-200 dy=0 dh=-200 dv=0 dx=0 dy=0 dh=0 dv=0
PairPos2: "'kern' Horizontal Kerning lookup 15-1" uniFE9B dx=-200 dy=0 dh=-200 dv=0 dx=0 dy=0 dh=0 dv=0
PairPos2: "'kern' Horizontal Kerning lookup 15-1" uni062B dx=-200 dy=0 dh=-200 dv=0 dx=0 dy=0 dh=0 dv=0
PairPos2: "'kern' Horizontal Kerning lookup 15-1" uniFE97 dx=-200 dy=0 dh=-200 dv=0 dx=0 dy=0 dh=0 dv=0
PairPos2: "'kern' Horizontal Kerning lookup 15-1" uni062A dx=-200 dy=0 dh=-200 dv=0 dx=0 dy=0 dh=0 dv=0
PairPos2: "'kern' Horizontal Kerning lookup 15-1" uni0629 dx=-200 dy=0 dh=-200 dv=0 dx=0 dy=0 dh=0 dv=0
PairPos2: "'kern' Horizontal Kerning lookup 15-1" uniFE91 dx=-200 dy=0 dh=-200 dv=0 dx=0 dy=0 dh=0 dv=0
PairPos2: "'kern' Horizontal Kerning lookup 15-1" uni0628 dx=-200 dy=0 dh=-200 dv=0 dx=0 dy=0 dh=0 dv=0
PairPos2: "'kern' Horizontal Kerning lookup 15-1" uni0627 dx=-200 dy=0 dh=-200 dv=0 dx=0 dy=0 dh=0 dv=0
PairPos2: "'kern' Horizontal Kerning lookup 15-1" uni0623 dx=-200 dy=0 dh=-200 dv=0 dx=0 dy=0 dh=0 dv=0
PairPos2: "'kern' Horizontal Kerning lookup 15-1" uni0622 dx=-200 dy=0 dh=-200 dv=0 dx=0 dy=0 dh=0 dv=0
PairPos2: "'kern' Horizontal Kerning lookup 15-1" uni0621 dx=-200 dy=0 dh=-200 dv=0 dx=0 dy=0 dh=0 dv=0
PairPos2: "'kern' Horizontal Kerning lookup 15-1" uniFB94 dx=-290 dy=0 dh=-290 dv=0 dx=0 dy=0 dh=0 dv=0
PairPos2: "'kern' Horizontal Kerning lookup 15-1" uniFB92 dx=-200 dy=0 dh=-200 dv=0 dx=0 dy=0 dh=0 dv=0
PairPos2: "'kern' Horizontal Kerning lookup 15-1" afii57509 dx=-200 dy=0 dh=-200 dv=0 dx=0 dy=0 dh=0 dv=0
PairPos2: "'kern' Horizontal Kerning lookup 15-1" afii57508 dx=-80 dy=0 dh=-80 dv=0 dx=0 dy=0 dh=0 dv=0
PairPos2: "'kern' Horizontal Kerning lookup 15-1" uniFB7C dx=-150 dy=0 dh=-150 dv=0 dx=0 dy=0 dh=0 dv=0
PairPos2: "'kern' Horizontal Kerning lookup 15-1" afii57506 dx=-200 dy=0 dh=-200 dv=0 dx=0 dy=0 dh=0 dv=0
PairPos2: "'kern' Horizontal Kerning lookup 15-1" afii57440 dx=-200 dy=0 dh=-200 dv=0 dx=0 dy=0 dh=0 dv=0
PairPos2: "'kern' Horizontal Kerning lookup 15-1" uniFE8B dx=-200 dy=0 dh=-200 dv=0 dx=0 dy=0 dh=0 dv=0
EndChar

StartChar: uniFEB2
Encoding: 65202 65202 188
Width: 2420
VWidth: 2181
GlyphClass: 2
Flags: W
AnchorPoint: "Anchor-10" 604 884.5 basechar 0
AnchorPoint: "Anchor-7" 439 -698.5 basechar 0
LayerCount: 2
Fore
SplineSet
660.5 -325 m 4,0,1
 1044 -326 1044 -326 1085.14355469 3.3720703125 c 0,2,3
 1112 217 1112 217 978.736328125 387.4375 c 1,4,-1
 1117.06152344 519.1328125 l 1,5,6
 1154 433 1154 433 1211.12109375 290.963867188 c 1,7,8
 1275 172 1275 172 1419.433749 173.990356556 c 128,-1,9
 1564 176 1564 176 1585.61230469 352.37109375 c 2,10,-1
 1608.22363281 537.650390625 l 1,11,-1
 1735.0703125 537.650390625 l 1,12,-1
 1749.96875 366.268554688 l 2,13,14
 1767.72675782 161.99210068 1767.72675782 161.99210068 1923.86035156 166.505859375 c 0,15,16
 2028 169 2028 169 2042.41699219 377.3203125 c 2,17,-1
 2058.43945312 610.360351562 l 1,18,-1
 2186.38769531 610.360351562 l 1,19,-1
 2204.88867188 390.7734375 l 2,20,21
 2217.45162134 241.664589545 2217.45162134 241.664589545 2266.5 205.237304688 c 0,22,23
 2306 175 2306 175 2410.45996094 175.379882812 c 2,24,-1
 2430.33007812 175.379882812 l 1,25,-1
 2430.33007812 0.5 l 1,26,-1
 2381.91210938 0.5 l 2,27,28
 2194.71983243 0.5 2194.71983243 0.5 2127.27441406 120.866210938 c 1,29,30
 2053 -1 2053 -1 1894.44140625 0 c 0,31,32
 1737 1 1737 1 1671.26464844 132.879882812 c 1,33,34
 1608 -1 1608 -1 1446.79492188 0 c 0,35,36
 1266 1 1266 1 1229.44628906 63.5791015625 c 1,37,38
 1218 -483 1218 -483 658.287109375 -488.25 c 8,39,40
 253 -492 253 -492 128 -203.55078125 c 0,41,42
 65 -59 65 -59 95.2236328125 144.134765625 c 0,43,44
 115 279 115 279 173.080078125 409.20703125 c 1,45,-1
 322.830078125 357.799804688 l 1,46,47
 247 174 247 174 247.125976562 33.2744140625 c 0,48,49
 247 2 247 2 251 -28 c 0,50,51
 290 -325 290 -325 660.5 -325 c 4,0,1
EndSplineSet
EndChar

StartChar: uniFEB3
Encoding: 65203 65203 189
Width: 1521
VWidth: 2181
GlyphClass: 2
Flags: W
AnchorPoint: "Anchor-10" 645.5 956.5 basechar 0
AnchorPoint: "Anchor-7" 665.5 -187 basechar 0
LayerCount: 2
Fore
SplineSet
347.383789062 123.431640625 m 1,0,1
 314.466775954 77.0297246781 314.466775954 77.0297246781 256.685048133 38.5148623391 c 128,-1,2
 198.903320312 0 198.903320312 0 67.7001953125 0 c 2,3,-1
 -10.400390625 0 l 1,4,-1
 -10.400390625 174.98046875 l 1,5,-1
 8.849609375 174.98046875 l 2,6,7
 267.717773438 175 267.717773438 175 282.565429688 371.471679688 c 2,8,-1
 294.475585938 529.0703125 l 1,9,-1
 409.856445312 529.0703125 l 1,10,-1
 425.181640625 371.620117188 l 2,11,12
 444.728141636 167.964710913 444.728141636 167.964710913 624.71875 165.6328125 c 0,13,14
 794.439453125 164.024414062 794.439453125 164.024414062 810.30078125 298.484375 c 2,15,-1
 837.500976562 529.0703125 l 1,16,-1
 949.821289062 529.0703125 l 1,17,-1
 972.182617188 320.5078125 l 2,18,19
 990.663085938 144.36328125 990.663085938 144.36328125 1149.5078125 164.608398438 c 0,20,21
 1213.08675027 172.779498152 1213.08675027 172.779498152 1242.60449219 227.848632812 c 0,22,23
 1282.91015625 304.568359375 1282.91015625 304.568359375 1268.28027344 426.104492188 c 0,24,25
 1262.06655833 479.253653426 1262.06655833 479.253653426 1230.8359375 650.505859375 c 1,26,-1
 1379.11425781 698.0234375 l 1,27,28
 1419.95967173 581.675894813 1419.95967173 581.675894813 1428.55551946 458.597713031 c 0,29,30
 1460.47682797 1.53789341823 1460.47682797 1.53789341823 1123.76171875 0.5 c 0,31,32
 1054.37207031 -0.0048828125 1054.37207031 -0.0048828125 1018.98535156 15.78125 c 0,33,34
 926.088867188 55.8330078125 926.088867188 55.8330078125 894.358398438 138.940429688 c 1,35,36
 842.37109375 -1.9560546875 842.37109375 -1.9560546875 593.423828125 0.005859375 c 0,37,38
 413.676757812 1.9814453125 413.676757812 1.9814453125 347.383789062 123.431640625 c 1,0,1
EndSplineSet
EndChar

StartChar: uniFEB4
Encoding: 65204 65204 190
Width: 1694
VWidth: 2176
GlyphClass: 2
Flags: W
AnchorPoint: "Anchor-10" 665.5 951.5 basechar 0
AnchorPoint: "Anchor-7" 758.5 -207 basechar 0
LayerCount: 2
Fore
SplineSet
1387.18261719 129.70703125 m 1,0,1
 1337.29784717 3.97242937878 1337.29784717 3.97242937878 1157.52490015 1.99695687689 c 128,-1,2
 977.751953125 0.021484375 977.751953125 0.021484375 927.903320312 139.8828125 c 1,3,4
 839.064453125 1.0302734375 839.064453125 1.0302734375 629.640625 3.2099609375 c 0,5,6
 462.665039062 4.982421875 462.665039062 4.982421875 367.069335938 129.084960938 c 1,7,8
 351.78125 99.267578125 351.78125 99.267578125 276.842285156 49.6337890625 c 128,-1,9
 201.903320312 0 201.903320312 0 66.20703125 0 c 2,10,-1
 -10.2744140625 0 l 1,11,-1
 -10.2744140625 174.978515625 l 1,12,-1
 58.6669921875 174.978515625 l 1,13,14
 270.130859375 176.97265625 270.130859375 176.97265625 290.427734375 327.612304688 c 2,15,-1
 317.879882812 531.360351562 l 1,16,-1
 429.581054688 531.360351562 l 1,17,-1
 452.997070312 364.8046875 l 2,18,19
 479.616210938 176.921875 479.616210938 176.921875 653.559570312 171.501464844 c 128,-1,20
 827.502929688 166.081054688 827.502929688 166.081054688 847.864257812 331.815429688 c 2,21,-1
 872.37890625 531.360351562 l 1,22,-1
 983.71484375 531.360351562 l 1,23,-1
 1011.71484375 317.192382812 l 2,24,25
 1030.63451086 171.99272474 1030.63451086 171.99272474 1161.31445312 171.607421875 c 0,26,27
 1287.72070312 171.010742188 1287.72070312 171.010742188 1302.97363281 331.577148438 c 2,28,-1
 1328.47167969 600 l 1,29,-1
 1439.40917969 600 l 1,30,-1
 1466.2421875 363.453125 l 2,31,32
 1478.83691406 249.642578125 1478.83691406 249.642578125 1529.48828125 212.761230469 c 128,-1,33
 1580.13964844 175.879882812 1580.13964844 175.879882812 1686.45019531 175.879882812 c 2,34,-1
 1704.63964844 175.879882812 l 1,35,-1
 1704.63964844 0 l 1,36,-1
 1660.66015625 0 l 2,37,38
 1453.60058594 0 1453.60058594 0 1387.18261719 129.70703125 c 1,0,1
EndSplineSet
EndChar

StartChar: uniFEBA
Encoding: 65210 65210 196
Width: 2481
VWidth: 2181
GlyphClass: 2
Flags: W
AnchorPoint: "Anchor-10" 631 984.5 basechar 0
AnchorPoint: "Anchor-7" 418 -670.5 basechar 0
LayerCount: 2
Fore
SplineSet
659.287109375 -488.25 m 12,0,1
 250.016884707 -490.756735733 250.016884707 -490.756735733 126 -203.55078125 c 4,2,3
 63 -59 63 -59 93.2236328125 144.134765625 c 0,4,5
 113 279 113 279 171.080078125 409.20703125 c 1,6,-1
 320.830078125 357.799804688 l 1,7,8
 245 174 245 174 245.125976562 33.2744140625 c 0,9,10
 245 2 245 2 249 -28 c 0,11,12
 288 -325 288 -325 660.5 -325 c 0,13,14
 1044 -326 1044 -326 1085.14355469 3.3720703125 c 0,15,16
 1112 217 1112 217 978.736328125 387.4375 c 1,17,-1
 1117.06152344 519.1328125 l 1,18,19
 1153 432 1153 432 1211.16503906 290.856445312 c 0,20,21
 1232 240 1232 240 1290.66601562 234.298828125 c 1,22,23
 1635 710 1635 710 1948.05371094 709.329101562 c 0,24,25
 2054 709 2054 709 2138.66992188 658.845703125 c 0,26,27
 2277 576 2277 576 2277.74414062 398.991210938 c 0,28,29
 2278 332 2278 332 2256.58691406 271.721679688 c 1,30,31
 2335.23592884 174.708984375 2335.23592884 174.708984375 2455.55371094 174.708984375 c 2,32,-1
 2491.84375 174.708984375 l 1,33,-1
 2491.84375 -0.1708984375 l 1,34,-1
 2434.15136719 -0.1708984375 l 2,35,36
 2243 -0 2243 -0 2153.67675781 128.958984375 c 1,37,38
 2139 117 2139 117 2125.38574219 107.353515625 c 0,39,40
 1976.42109874 -1.69174683956 1976.42109874 -1.69174683956 1627.98339844 -0.6708984375 c 2,41,-1
 1398.99121094 0 l 2,42,43
 1300 0 1300 0 1242.58398438 73.7724609375 c 1,44,-1
 1229.61035156 73.9697265625 l 1,45,46
 1223 -481 1223 -481 659.287109375 -488.25 c 12,0,1
1439.77050781 185.337890625 m 1,47,-1
 1612.20898438 185.337890625 l 2,48,49
 1868.48468027 185.330077401 1868.48468027 185.330077401 1979.96777344 228.629882812 c 0,50,51
 2122.15136719 283.265625 2122.15136719 283.265625 2110.19628906 403.921875 c 0,52,53
 2106.1484375 440.2265625 2106.1484375 440.2265625 2070.32568359 488.809082031 c 128,-1,54
 2034.50292969 537.391601562 2034.50292969 537.391601562 1952.09179688 540.88671875 c 0,55,56
 1823.04101562 547.276367188 1823.04101562 547.276367188 1696.07666016 445.008789062 c 128,-1,57
 1569.11230469 342.741210938 1569.11230469 342.741210938 1439.77050781 185.337890625 c 1,47,-1
EndSplineSet
EndChar

StartChar: uniFEBB
Encoding: 65211 65211 197
Width: 1623
VWidth: 2181
GlyphClass: 2
Flags: W
AnchorPoint: "Anchor-10" 551.3 1072.8 basechar 0
AnchorPoint: "Anchor-7" 670.3 -250 basechar 0
LayerCount: 2
Fore
SplineSet
693.7265625 186.008789062 m 1,0,-1
 866.165039062 186.008789062 l 2,1,2
 1122.45165916 186.001957849 1122.45165916 186.001957849 1233.92382812 229.30078125 c 0,3,4
 1376.10742188 283.936523438 1376.10742188 283.936523438 1364.15234375 404.592773438 c 0,5,6
 1360.10449219 440.897460938 1360.10449219 440.897460938 1324.28173828 489.479980469 c 128,-1,7
 1288.45898438 538.0625 1288.45898438 538.0625 1206.04785156 541.557617188 c 0,8,9
 1076.99707031 547.947265625 1076.99707031 547.947265625 950.032714844 445.6796875 c 128,-1,10
 823.068359375 343.412109375 823.068359375 343.412109375 693.7265625 186.008789062 c 1,0,-1
544.737304688 235.134765625 m 1,11,12
 886.476708439 710 886.476708439 710 1202 710 c 0,13,14
 1307.82445468 710 1307.82445468 710 1392.61523438 659.522460938 c 0,15,16
 1529.98339844 577.71484375 1529.98339844 577.71484375 1531.49707031 396.579589844 c 128,-1,17
 1533.01074219 215.444335938 1533.01074219 215.444335938 1378.93554688 107.189453125 c 128,-1,18
 1224.86035156 -1.0654296875 1224.86035156 -1.0654296875 881.938476562 0 c 2,19,-1
 665.946289062 0.6708984375 l 2,20,21
 444.92578125 1.357421875 444.92578125 1.357421875 348.779296875 153.857421875 c 1,22,23
 233.123046875 0 233.123046875 0 63.990234375 0 c 2,24,-1
 -10.400390625 0 l 1,25,-1
 -10.400390625 174.98046875 l 1,26,-1
 5.763671875 174.979492188 l 2,27,28
 119.23046875 175.209960938 119.23046875 175.209960938 173.159179688 217.557617188 c 0,29,30
 267.046875 290.504882812 267.046875 290.504882812 270.213867188 388.4765625 c 2,31,-1
 275.716796875 537.040039062 l 1,32,-1
 427.893554688 537.040039062 l 1,33,-1
 434.5234375 367.305664062 l 2,34,35
 438.889246389 255.538241201 438.889246389 255.538241201 544.737304688 235.134765625 c 1,11,12
EndSplineSet
EndChar

StartChar: uniFEBC
Encoding: 65212 65212 198
Width: 1735
VWidth: 2181
GlyphClass: 2
Flags: W
AnchorPoint: "Anchor-10" 583.5 1137.5 basechar 0
AnchorPoint: "Anchor-7" 669.5 -257 basechar 0
LayerCount: 2
Fore
SplineSet
693.7265625 186.008789062 m 1,0,-1
 866.165039062 186.008789062 l 2,1,2
 1122.45165916 186.001957849 1122.45165916 186.001957849 1233.92382812 229.30078125 c 0,3,4
 1376.10742188 283.936523438 1376.10742188 283.936523438 1364.15234375 404.592773438 c 0,5,6
 1360.10449219 440.897460938 1360.10449219 440.897460938 1324.28173828 489.479980469 c 128,-1,7
 1288.45898438 538.0625 1288.45898438 538.0625 1206.04785156 541.557617188 c 0,8,9
 1076.99707031 547.947265625 1076.99707031 547.947265625 950.032714844 445.6796875 c 128,-1,10
 823.068359375 343.412109375 823.068359375 343.412109375 693.7265625 186.008789062 c 1,0,-1
544.737304688 235.134765625 m 1,11,12
 886.476308193 710 886.476308193 710 1202 710 c 0,13,14
 1307.82445468 710 1307.82445468 710 1392.61523438 659.522460938 c 0,15,16
 1529.98339844 577.71484375 1529.98339844 577.71484375 1531.70019531 399.6640625 c 0,17,18
 1531.99804688 332.520507812 1531.99804688 332.520507812 1510.54003906 272.388671875 c 1,19,20
 1588.1484375 175.379882812 1588.1484375 175.379882812 1709.50976562 175.379882812 c 2,21,-1
 1745.79980469 175.379882812 l 1,22,-1
 1745.79980469 0.5 l 1,23,-1
 1688.11816406 0.5 l 2,24,25
 1496.6640625 0.001953125 1496.6640625 0.001953125 1407.60742188 129.655273438 c 1,26,27
 1327.59582305 67.1535730792 1327.59582305 67.1535730792 1253.48638809 46.2130170084 c 128,-1,28
 1179.37695312 25.2724609375 1179.37695312 25.2724609375 1125.859375 16.697265625 c 0,29,30
 1018.99461504 -0.425822167268 1018.99461504 -0.425822167268 881.938476562 0 c 2,31,-1
 665.951171875 0.6708984375 l 2,32,33
 445.145507812 0.998046875 445.145507812 0.998046875 348.779296875 153.857421875 c 1,34,35
 233.123046875 0 233.123046875 0 63.990234375 0 c 2,36,-1
 -10.400390625 0 l 1,37,-1
 -10.400390625 174.98046875 l 1,38,-1
 5.138671875 174.98046875 l 2,39,40
 118.962890625 175 118.962890625 175 173.159179688 217.557617188 c 0,41,42
 266.571289062 290.134765625 266.571289062 290.134765625 270.213867188 388.4765625 c 2,43,-1
 275.716796875 537.040039062 l 1,44,-1
 427.893554688 537.040039062 l 1,45,-1
 434.5234375 367.305664062 l 2,46,47
 438.864257812 255.541992188 438.864257812 255.541992188 544.737304688 235.134765625 c 1,11,12
EndSplineSet
EndChar

StartChar: uniFEC2
Encoding: 65218 65218 204
Width: 1571
VWidth: 2181
GlyphClass: 2
Flags: W
AnchorPoint: "Anchor-7" 663.13 -222 basechar 0
AnchorPoint: "Anchor-10" 307.67 1593.79 basechar 0
LayerCount: 2
Fore
SplineSet
527.7265625 186.008789062 m 1,0,-1
 700.165039062 186.008789062 l 2,1,2
 956.4375 186 956.4375 186 1067.92382812 229.30078125 c 0,3,4
 1210.10742188 283.935546875 1210.10742188 283.935546875 1198.15234375 404.592773438 c 0,5,6
 1194.10565036 440.895149049 1194.10565036 440.895149049 1158.28231737 489.478824524 c 128,-1,7
 1122.45898438 538.0625 1122.45898438 538.0625 1040.04785156 541.557617188 c 0,8,9
 910.997070312 547.947265625 910.997070312 547.947265625 784.032714844 445.6796875 c 128,-1,10
 657.068359375 343.412109375 657.068359375 343.412109375 527.7265625 186.008789062 c 1,0,-1
383.060546875 241.125976562 m 1,11,12
 722.563865951 710 722.563865951 710 1036 710 c 0,13,14
 1141.82445468 710 1141.82445468 710 1226.61523438 659.522460938 c 0,15,16
 1363.98339844 577.71484375 1363.98339844 577.71484375 1365.70019531 399.663085938 c 0,17,18
 1365.99804688 329.53515625 1365.99804688 329.53515625 1344.30957031 270.513671875 c 1,19,20
 1418.22326943 175.379882812 1418.22326943 175.379882812 1545.50976562 175.379882812 c 2,21,-1
 1581.79980469 175.379882812 l 1,22,-1
 1581.79980469 0.5 l 1,23,-1
 1524.11816406 0.5 l 2,24,25
 1325.72210287 0.00161073791762 1325.72210287 0.00161073791762 1238.15917969 127.052734375 c 1,26,27
 1213.30566406 107.998046875 l 1,28,29
 1060.95507812 0 1060.95507812 0 715.948242188 0 c 2,30,-1
 91.75 0 l 1,31,-1
 91.75 174.978515625 l 1,32,-1
 259.178710938 174.98046875 l 1,33,-1
 218.211914062 1412.90039062 l 1,34,-1
 383.16015625 1478.30664062 l 1,35,-1
 383.060546875 241.125976562 l 1,11,12
EndSplineSet
EndChar

StartChar: uniFEC3
Encoding: 65219 65219 205
Width: 1389
VWidth: 2181
GlyphClass: 2
Flags: W
AnchorPoint: "Anchor-10" 213.57 1598.47 basechar 0
AnchorPoint: "Anchor-7" 543.57 -235 basechar 0
LayerCount: 2
Fore
SplineSet
459.7265625 186.008789062 m 1,0,-1
 632.165039062 186.008789062 l 2,1,2
 888.440734954 186.000975839 888.440734954 186.000975839 999.923828125 229.30078125 c 0,3,4
 1142.10742188 283.936523438 1142.10742188 283.936523438 1130.15234375 404.592773438 c 0,5,6
 1126.10314442 440.897158401 1126.10314442 440.897158401 1090.2810644 489.4798292 c 128,-1,7
 1054.45898438 538.0625 1054.45898438 538.0625 972.047851562 541.557617188 c 0,8,9
 760.492605393 552.032281773 760.492605393 552.032281773 459.7265625 186.008789062 c 1,0,-1
315.060546875 241.125976562 m 1,10,11
 654.563865951 710 654.563865951 710 968 710 c 0,12,13
 1073.82445468 710 1073.82445468 710 1158.61523438 659.522460938 c 0,14,15
 1295.98246038 577.714366556 1295.98246038 577.714366556 1296.96925753 397.027105153 c 128,-1,16
 1297.95605469 216.33984375 1297.95605469 216.33984375 1145.45556641 108.169921875 c 128,-1,17
 992.955078125 0 992.955078125 0 647.948242188 0 c 2,18,-1
 -10.25 0 l 1,19,-1
 -10.25 174.978515625 l 1,20,-1
 191.1796875 174.98046875 l 1,21,-1
 150.211914062 1412.90039062 l 1,22,-1
 315.16015625 1478.30664062 l 1,23,-1
 315.060546875 241.125976562 l 1,10,11
EndSplineSet
EndChar

StartChar: uniFEC4
Encoding: 65220 65220 206
Width: 1510
VWidth: 2181
GlyphClass: 2
Flags: W
AnchorPoint: "Anchor-10" 233.27 1587.79 basechar 0
AnchorPoint: "Anchor-7" 591.73 -207 basechar 0
LayerCount: 2
Fore
SplineSet
466.7265625 186.008789062 m 1,0,-1
 639.165039062 186.008789062 l 2,1,2
 895.440734954 186.000975839 895.440734954 186.000975839 1006.92382812 229.30078125 c 0,3,4
 1149.10742188 283.936523438 1149.10742188 283.936523438 1137.15234375 404.592773438 c 0,5,6
 1133.10379798 440.898264514 1133.10379798 440.898264514 1097.28139118 489.480382257 c 128,-1,7
 1061.45898438 538.0625 1061.45898438 538.0625 979.047851562 541.557617188 c 0,8,9
 849.997070312 547.947265625 849.997070312 547.947265625 708.874023438 433.657226562 c 0,10,11
 596.065979625 343.410399995 596.065979625 343.410399995 466.7265625 186.008789062 c 1,0,-1
322.060546875 241.125976562 m 1,12,13
 661.563865951 710 661.563865951 710 975 710 c 0,14,15
 1080.82445468 710 1080.82445468 710 1165.61523438 659.522460938 c 0,16,17
 1302.98339844 577.71484375 1302.98339844 577.71484375 1304.70019531 399.663085938 c 0,18,19
 1304.99753159 329.531105827 1304.99753159 329.531105827 1283.30957031 270.513671875 c 1,20,21
 1357.22363281 175.379882812 1357.22363281 175.379882812 1484.50976562 175.379882812 c 2,22,-1
 1520.79980469 175.379882812 l 1,23,-1
 1520.79980469 0.5 l 1,24,-1
 1463.11816406 0.5 l 2,25,26
 1264.72210287 0.00161073791762 1264.72210287 0.00161073791762 1177.15917969 127.052734375 c 1,27,-1
 1152.30566406 107.998046875 l 1,28,29
 999.955078125 0 999.955078125 0 654.948242188 0 c 2,30,-1
 -10.25 0 l 1,31,-1
 -10.25 174.978515625 l 1,32,-1
 198.1796875 174.98046875 l 1,33,-1
 157.211914062 1412.90039062 l 1,34,-1
 322.16015625 1478.30664062 l 1,35,-1
 322.060546875 241.125976562 l 1,12,13
EndSplineSet
EndChar

StartChar: uniFECA
Encoding: 65226 65226 212
Width: 1197
VWidth: 2181
GlyphClass: 2
Flags: W
AnchorPoint: "Anchor-10" 490 1136.05 basechar 0
AnchorPoint: "Anchor-7" 354.69 -762.64 basechar 0
LayerCount: 2
Fore
SplineSet
1086.91308594 -554.934570312 m 1,0,1
 902 -612 902 -612 718.701371908 -612.023444857 c 0,2,3
 334 -612 334 -612 187.1484375 -438.98828125 c 0,4,5
 89 -323 89 -323 88.998046875 -145.028320312 c 128,-1,6
 89 33 89 33 194.974121094 166.880859375 c 0,7,8
 301 301 301 301 459.5546875 384.290039062 c 1,9,10
 328 441 328 441 233.8727788 519.122738079 c 0,11,12
 141 597 141 597 146.8671875 683.7265625 c 0,13,14
 153 781 153 781 287.600585938 842.224609375 c 4,15,16
 451 918 451 918 737.895507812 889.25390625 c 4,17,18
 915 871 915 871 970.838867188 762.581054688 c 0,19,20
 1064 581 1064 581 704.266601562 381.599609375 c 1,21,22
 928.586773878 175.379882812 928.586773878 175.379882812 1153.5 175.379882812 c 2,23,-1
 1207.70019531 175.379882812 l 1,24,-1
 1207.70019531 0.5 l 1,25,-1
 1181.625 0.5 l 2,26,27
 855 0 855 0 575.434570312 294.234375 c 1,28,-1
 554.456054688 282.376953125 l 1,29,30
 255 119 255 119 255.080078125 -132.166015625 c 0,31,32
 255 -277 255 -277 363.553710938 -365.467773438 c 0,33,34
 470 -452 470 -452 737.771484375 -452.520507812 c 0,35,36
 889 -453 889 -453 1033.84863281 -411.348632812 c 1,37,-1
 1086.91308594 -554.934570312 l 1,0,1
838.8671875 652.044921875 m 0,38,39
 839.048073491 743.019528951 839.048073491 743.019528951 586.662109375 742.999023438 c 0,40,41
 438.391020252 742.999023438 438.391020252 742.999023438 348.20703125 705.771484375 c 0,42,43
 293.21484375 683.072265625 293.21484375 683.072265625 306.803710938 651.049316406 c 128,-1,44
 320.392578125 619.026367188 320.392578125 619.026367188 405.979492188 564.112304688 c 128,-1,45
 491.56640625 509.198242188 491.56640625 509.198242188 586.684570312 464.8203125 c 1,46,47
 696.199035093 514.173737632 696.199035093 514.173737632 767.596099578 569.813431316 c 128,-1,48
 838.993164062 625.453125 838.993164062 625.453125 838.8671875 652.044921875 c 0,38,39
EndSplineSet
EndChar

StartChar: uniFECB
Encoding: 65227 65227 213
Width: 1023
VWidth: 2181
GlyphClass: 2
Flags: W
AnchorPoint: "Anchor-10" 376.265 1219.23 basechar 0
AnchorPoint: "Anchor-7" 501.6 -242.5 basechar 0
LayerCount: 2
Fore
SplineSet
932 103.9765625 m 1,0,1
 528.248316505 -0.0253889294087 528.248316505 -0.0253889294087 327.356445312 -0.015625 c 2,2,-1
 -10.400390625 0 l 1,3,-1
 -10.400390625 174.98046875 l 1,4,-1
 41.330078125 174.98046875 l 2,5,6
 209.045898438 175 209.045898438 175 209.967773438 174.96875 c 2,7,-1
 245.176757812 175.018554688 l 1,8,9
 127.002929688 297.057617188 127.002929688 297.057617188 127.231445312 443.08984375 c 0,10,11
 126.998046875 532.600585938 126.998046875 532.600585938 156.538085938 602.96484375 c 0,12,13
 252.0078125 827.985351562 252.0078125 827.985351562 528.984375 830 c 0,14,15
 719.131496873 831.005599353 719.131496873 831.005599353 861.623046875 697.266601562 c 1,16,-1
 804.125 575.071289062 l 1,17,18
 666.100443065 661.999990963 666.100443065 661.999990963 536.403320312 661.96484375 c 0,19,20
 295.990280252 662.005858667 295.990280252 662.005858667 278.658203125 452.0703125 c 0,21,22
 277.825195312 441.98046875 277.825195312 441.98046875 277.655273438 432.271484375 c 0,23,24
 277.995512887 301.535453581 277.995512887 301.535453581 422.05078125 197.436523438 c 0,25,26
 459.616232746 170.441177829 459.616232746 170.441177829 635.149414062 204.463867188 c 2,27,-1
 932 262.001953125 l 1,28,-1
 932 103.9765625 l 1,0,1
EndSplineSet
EndChar

StartChar: uniFECC
Encoding: 65228 65228 214
Width: 1018
VWidth: 2181
GlyphClass: 2
Flags: W
AnchorPoint: "Anchor-10" 460.58 1071.5 basechar 0
AnchorPoint: "Anchor-7" 496.58 -197.5 basechar 0
LayerCount: 2
Fore
SplineSet
773.27734375 532.778320312 m 0,0,1
 773.008789062 623.991210938 773.008789062 623.991210938 504.992675781 623.497070312 c 128,-1,2
 236.9765625 623.002929688 236.9765625 623.002929688 236.348632812 544.431640625 c 0,3,4
 235.896913113 498.453218147 235.896913113 498.453218147 425.942382812 393.965820312 c 0,5,6
 473.807617188 367.6484375 473.807617188 367.6484375 521.127929688 345.53515625 c 1,7,8
 602.500186855 380.317144737 602.500186855 380.317144737 705.828125 453.19921875 c 0,9,10
 773.012695312 501.546875 773.012695312 501.546875 773.27734375 532.778320312 c 0,0,1
639.521484375 262.778320312 m 1,11,12
 786 173 786 173 959.44140625 174.966796875 c 0,13,14
 962 175 962 175 963.84375 174.979492188 c 2,15,-1
 1028.55957031 175.375976562 l 1,16,-1
 1028.55957031 0.5 l 1,17,-1
 940.305664062 0.5 l 2,18,19
 940 0 940 0 938.733398438 0.498046875 c 0,20,21
 682 0 682 0 518.029296875 163.125976562 c 1,22,23
 346 0 346 0 92.8603515625 0 c 2,24,-1
 -10.400390625 0 l 1,25,-1
 -10.400390625 174.98046875 l 1,26,-1
 69.3203125 174.98046875 l 2,27,28
 289 175 289 175 397.360351562 264.48046875 c 1,29,30
 86 400 86 400 86.88671875 556.072265625 c 0,31,32
 87 574 87 574 91.0732421875 592.658203125 c 0,33,34
 121 732 121 732 349.534179688 767.963867188 c 4,35,36
 425 780 425 780 506.390625 779.8046875 c 4,37,38
 588 780 588 780 672.31640625 770.983398438 c 4,39,40
 847 752 847 752 905.24609375 643.317382812 c 0,41,42
 925 606 925 606 924.725585938 567.057617188 c 0,43,44
 925 420 925 420 639.521484375 262.778320312 c 1,11,12
EndSplineSet
EndChar

StartChar: uniFEDA
Encoding: 65242 65242 228
Width: 1846
VWidth: 2181
GlyphClass: 2
Flags: W
AnchorPoint: "Anchor-10" 542 1370.5 basechar 0
AnchorPoint: "Anchor-7" 573 -225.5 basechar 0
LayerCount: 2
Fore
SplineSet
1615.36523438 252.280273438 m 1,0,1
 1671.72160329 175.379882809 1671.72160329 175.379882809 1826.96972656 175.379882812 c 2,2,-1
 1856.21972656 175.379882812 l 5,3,-1
 1856.21972656 0.5 l 5,4,-1
 1815.12890625 0.5 l 2,5,6
 1640 0 1640 0 1519.54589844 121.205078125 c 1,7,8
 1406 52 1406 52 1247.84826297 25.9338657861 c 0,9,10
 1090 -0 1090 -0 861.456054688 0.982421875 c 0,11,12
 524 1 524 1 382.775878906 61.1049804688 c 0,13,14
 241 121 241 121 171.120117188 213.833007812 c 0,15,16
 101 306 101 306 90.0219726562 439.375 c 0,17,18
 79 572 79 572 117.673828125 709.411132812 c 1,19,-1
 251.858398438 674.005859375 l 1,20,21
 230 535 230 535 232.534179688 478.390625 c 0,22,23
 245 236 245 236 554.22265625 189.344726562 c 0,24,25
 630 178 630 178 829.576660156 177.499511719 c 128,-1,26
 1029 177 1029 177 1133.98828125 182.455078125 c 0,27,28
 1496.98006596 200.998981644 1496.98006596 200.998981644 1513.53125 394.38671875 c 2,29,-1
 1517.42480469 439.879882812 l 1,30,-1
 1477.35058594 1398.79003906 l 1,31,-1
 1640.29980469 1478.77441406 l 1,32,-1
 1640.29980469 409.78125 l 1,33,34
 1638 319 1638 319 1615.36523438 252.280273438 c 1,0,1
690.1484375 725.588867188 m 1,35,36
 754.07790538 717.158203125 754.07790538 717.158203125 812.187878471 717.158203125 c 128,-1,37
 870.297851562 717.158203125 870.297851562 717.158203125 918.022460938 735.946289062 c 0,38,39
 1000.45019531 767.603515625 1000.45019531 767.603515625 1000.45019531 819.8984375 c 0,40,41
 1000.45019531 877.883789062 1000.45019531 877.883789062 905.047851562 893.4296875 c 0,42,43
 782.920074571 912.03961481 782.920074571 912.03961481 785.374023438 1024.97460938 c 0,44,45
 787.295898438 1102.67578125 787.295898438 1102.67578125 863.845703125 1141.43554688 c 128,-1,46
 940.399187422 1180.19717561 940.399187422 1180.19717561 1051.76953125 1187.25585938 c 1,47,-1
 1051.76953125 1129.33300781 l 1,48,49
 979.684029384 1124.01397921 979.684029384 1124.01397921 941.666992188 1110.00097656 c 0,50,51
 846.330078125 1074.26074219 846.330078125 1074.26074219 846.330078125 1028.54980469 c 0,52,53
 846.330078125 993.440429688 846.330078125 993.440429688 863.592285156 970.854003906 c 128,-1,54
 880.854492188 948.267578125 880.854492188 948.267578125 945.444824219 938.769042969 c 0,55,56
 1061.04980469 921.768387659 1061.04980469 921.768387659 1061.04980469 841.297851562 c 0,57,58
 1061.04980469 743.449001842 1061.04980469 743.449001842 970.315429688 692.139648438 c 0,59,60
 864.111921734 632.079157617 864.111921734 632.079157617 690.1484375 661.174804688 c 1,61,-1
 690.1484375 725.588867188 l 1,35,36
EndSplineSet
EndChar

StartChar: uniFEDB
Encoding: 65243 65243 229
Width: 902
VWidth: 2181
GlyphClass: 2
Flags: W
AnchorPoint: "Anchor-10" 209.5 1383 basechar 0
AnchorPoint: "Anchor-7" 308 -227 basechar 0
LayerCount: 2
Fore
SplineSet
621.913085938 270.282226562 m 0,0,1
 556.359375 0 556.359375 0 160.875 0 c 2,2,-1
 -10.400390625 0 l 1,3,-1
 -10.400390625 174.978515625 l 1,4,-1
 240.876953125 175.129882812 l 2,5,6
 454.545898438 175.001953125 454.545898438 175.001953125 481.9375 310.581054688 c 0,7,8
 497.839986242 387.531157672 497.839986242 387.531157672 421.645507812 472.122070312 c 2,9,-1
 160.685546875 761.845703125 l 2,10,11
 70.0441347255 862.800875958 70.0441347255 862.800875958 67.376953125 931.883789062 c 0,12,13
 62.9267578125 1046.82226562 62.9267578125 1046.82226562 182.950195312 1111.609375 c 2,14,-1
 862.25 1478.28808594 l 1,15,-1
 862.25 1304.65429688 l 1,16,-1
 204.693359375 948.208984375 l 1,17,-1
 533.227539062 585.008789062 l 2,18,19
 664.266981986 439.697810758 664.266981986 439.697810758 621.913085938 270.282226562 c 0,0,1
EndSplineSet
EndChar

StartChar: uniFEDC
Encoding: 65244 65244 230
Width: 1029
VWidth: 2181
GlyphClass: 2
Flags: W
AnchorPoint: "Anchor-10" 209.5 1383 basechar 0
AnchorPoint: "Anchor-7" 320 -217 basechar 0
LayerCount: 2
Fore
SplineSet
616.078125 257.087890625 m 1,0,1
 584.446289062 0.560546875 584.446289062 0.560546875 160.875 0 c 2,2,-1
 -10.400390625 0 l 1,3,-1
 -10.400390625 174.978515625 l 1,4,-1
 240.876953125 175.129882812 l 2,5,6
 454.545898438 175.001953125 454.545898438 175.001953125 481.9375 310.581054688 c 0,7,8
 497.774203699 387.60524575 497.774203699 387.60524575 421.645507812 472.122070312 c 2,9,-1
 160.685546875 761.845703125 l 2,10,11
 70.0441347255 862.800875958 70.0441347255 862.800875958 67.376953125 931.883789062 c 0,12,13
 62.9267578125 1046.82324219 62.9267578125 1046.82324219 182.950195312 1111.61035156 c 2,14,-1
 862.25 1478.28808594 l 1,15,-1
 862.25 1304.65332031 l 1,16,-1
 204.686523438 948.205078125 l 1,17,-1
 817.768554688 267.650390625 l 2,18,19
 901.452148438 174.869140625 901.452148438 174.869140625 1012.70898438 175.291015625 c 2,20,-1
 1039.15039062 175.391601562 l 1,21,-1
 1039.15039062 0.5 l 1,22,-1
 982.418945312 0.5 l 2,23,24
 811.615234375 0.001953125 811.615234375 0.001953125 616.078125 257.087890625 c 1,0,1
EndSplineSet
EndChar

StartChar: uniFEDE
Encoding: 65246 65246 232
Width: 1415
VWidth: 2181
GlyphClass: 2
Flags: W
AnchorPoint: "Anchor-10" 443.5 883.5 basechar 0
AnchorPoint: "Anchor-7" 393.974 -771.619 basechar 0
LayerCount: 2
Fore
SplineSet
1148.56738281 76 m 5,0,1
 1134 -29 1134 -29 1094.38476562 -123.240234375 c 4,2,3
 978 -398 978 -398 638.123046875 -399.997070312 c 4,4,5
 354 -402 354 -402 197 -237 c 4,6,7
 84 -118 84 -118 91.20703125 91.7578125 c 4,8,9
 98 291 98 291 180.145507812 485.856445312 c 5,10,-1
 328 441 l 5,11,12
 245 245 245 245 244 77 c 4,13,14
 243 -66 243 -66 331 -144 c 4,15,16
 444 -245 444 -245 658.268554688 -242.953125 c 4,17,18
 822 -241 822 -241 919 -141 c 4,19,20
 1033.13045861 -23.8661082671 1033.13045861 -23.8661082671 1031.54003906 209.798828125 c 6,21,-1
 1029.91015625 449.26171875 l 5,22,-1
 998.844726562 1410.0078125 l 5,23,-1
 1161.79003906 1477.52050781 l 5,24,-1
 1162.28027344 401.302734375 l 6,25,26
 1162.00047048 175.379882812 1162.00047048 175.379882812 1372.71972656 175.379882812 c 6,27,-1
 1425.96972656 175.379882812 l 5,28,-1
 1425.96972656 0.5 l 5,29,-1
 1385.88183594 0.5 l 6,30,31
 1223 0 1223 0 1148.56738281 76 c 5,0,1
EndSplineSet
EndChar

StartChar: uniFEDF
Encoding: 65247 65247 233
Width: 530
VWidth: 2181
GlyphClass: 2
Flags: W
AnchorPoint: "Anchor-10" 300.73 1590 basechar 0
AnchorPoint: "Anchor-7" 233.73 -191.5 basechar 0
LayerCount: 2
Fore
SplineSet
399.169921875 439.690429688 m 2,0,1
 399.169921875 207.030273438 399.169921875 207.030273438 305.249023438 103.515136719 c 128,-1,2
 211.328125 0 211.328125 0 64.7001953125 0 c 2,3,-1
 -10.400390625 0 l 1,4,-1
 -10.400390625 174.98046875 l 1,5,-1
 15.849609375 174.98046875 l 2,6,7
 192.270592256 175.005490518 192.270592256 175.005490518 250.2265625 310.172851562 c 0,8,9
 276.520418831 371.496493577 276.520418831 371.496493577 273.291992188 452.41015625 c 2,10,-1
 235.2109375 1406.95800781 l 1,11,-1
 399.169921875 1478.61523438 l 1,12,-1
 399.169921875 439.690429688 l 2,0,1
EndSplineSet
EndChar

StartChar: uniFEE0
Encoding: 65248 65248 234
Width: 621
VWidth: 2181
GlyphClass: 2
Flags: W
AnchorPoint: "Anchor-10" 280.73 1586 basechar 0
AnchorPoint: "Anchor-7" 246.73 -241.5 basechar 0
LayerCount: 2
Fore
SplineSet
83.7001953125 0 m 2,0,-1
 -10.400390625 0 l 1,1,-1
 -10.400390625 174.98046875 l 1,2,-1
 25.3876953125 174.98046875 l 2,3,4
 130.166992188 175.286132812 130.166992188 175.286132812 191.042480469 229.779296875 c 128,-1,5
 251.91796875 284.272460938 251.91796875 284.272460938 247.291992188 403.193359375 c 2,6,-1
 208.211914062 1407.90722656 l 1,7,-1
 371.169921875 1477.50292969 l 1,8,-1
 371.169921875 403.305664062 l 2,9,10
 371.00237364 285.250398049 371.00237364 285.250398049 426.63009307 230.114456837 c 128,-1,11
 482.2578125 174.978515625 482.2578125 174.978515625 597.610351562 174.98046875 c 2,12,-1
 631.860351562 174.98046875 l 1,13,-1
 631.860351562 0 l 1,14,-1
 538.759765625 0 l 2,15,16
 390.719726562 0 390.719726562 0 289.58984375 107.86328125 c 1,17,18
 191.712890625 0 191.712890625 0 83.7001953125 0 c 2,0,-1
EndSplineSet
EndChar

StartChar: uniFEE2
Encoding: 65250 65250 236
Width: 1120
VWidth: 2181
GlyphClass: 2
Flags: W
AnchorPoint: "Anchor-10" 546.5 994 basechar 0
AnchorPoint: "Anchor-7" 184.188 -755.422 basechar 0
LayerCount: 2
Fore
SplineSet
457.75 393.122070312 m 1,0,1
 465.615234375 189.114257812 465.615234375 189.114257812 578.672851562 108.9453125 c 0,2,3
 648.53125 59.302734375 648.53125 59.302734375 730.926757812 84.6962890625 c 0,4,5
 828.631835938 115.09375 828.631835938 115.09375 791.817382812 348.083007812 c 0,6,7
 774.373046875 458.405273438 774.373046875 458.405273438 671.166015625 460.491210938 c 0,8,9
 549.033203125 462.958007812 549.033203125 462.958007812 457.75 393.122070312 c 1,0,1
948.130859375 246.549804688 m 1,10,11
 996.032226562 175.196289062 996.032226562 175.196289062 1103.55371094 174.712890625 c 2,12,-1
 1129.99023438 174.59375 l 1,13,-1
 1129.99023438 0.7099609375 l 1,14,-1
 1089.49414062 0.7099609375 l 2,15,16
 952.375976562 0.9931640625 952.375976562 0.9931640625 898.368164062 75.4091796875 c 1,17,18
 856.426131596 -60.0748025542 856.426131596 -60.0748025542 731.3046875 -72.984375 c 0,19,20
 632.574852818 -83.0590473502 632.574852818 -83.0590473502 552.379882812 -51.283203125 c 0,21,22
 339.713867188 34.2841796875 339.713867188 34.2841796875 326.205078125 338.958007812 c 1,23,24
 198.282516426 290.514244411 198.282516426 290.514244411 215.446289062 22.2861328125 c 2,25,-1
 252.573242188 -557.939453125 l 1,26,-1
 90.9140625 -638.856445312 l 1,27,-1
 90.9140625 81.51171875 l 2,28,29
 91.0009765625 347.537109375 91.0009765625 347.537109375 267.176757812 474.430664062 c 0,30,31
 446.127168352 603.956446967 446.127168352 603.956446967 655.611328125 606.681640625 c 0,32,33
 881.551349643 609.628054875 881.551349643 609.628054875 927.276367188 389.30078125 c 0,34,35
 938.821802807 333.673661241 938.821802807 333.673661241 948.130859375 246.549804688 c 1,10,11
EndSplineSet
EndChar

StartChar: uniFEE3
Encoding: 65251 65251 237
Width: 914
VWidth: 2181
GlyphClass: 2
Flags: W
AnchorPoint: "Anchor-10" 383.69 973.5 basechar 0
AnchorPoint: "Anchor-7" 347.69 -206.5 basechar 0
LayerCount: 2
Fore
SplineSet
817.90625 125.2578125 m 0,0,1
 774 -43 774 -43 550.94140625 -24.017578125 c 0,2,3
 376 -9 376 -9 253.772460938 88.5244140625 c 1,4,5
 198 0 198 0 38.98046875 0 c 2,6,-1
 -10.400390625 0 l 5,7,-1
 -10.400390625 174.978515625 l 5,8,-1
 53.958984375 174.978515625 l 2,9,10
 146 175 146 175 160.7890625 234.573242188 c 0,11,12
 189 347 189 347 211.197265625 414.607421875 c 0,13,14
 285 638 285 638 458.571289062 674.0078125 c 0,15,16
 680 719 680 719 781.19921875 457.60546875 c 0,17,18
 855 267 855 267 817.90625 125.2578125 c 0,0,1
312.204101562 231.517578125 m 1,19,20
 389.210616376 172.455494613 389.210616376 172.455494613 456.806640625 151.497070312 c 0,21,22
 612.811523438 103.12890625 612.811523438 103.12890625 663.418945312 188.529296875 c 0,23,24
 678.942382812 214.725585938 678.942382812 214.725585938 674.520996094 271.612792969 c 128,-1,25
 670.099609375 328.5 670.099609375 328.5 630.033203125 413.875976562 c 128,-1,26
 589.966796875 499.251953125 589.966796875 499.251953125 522.139160156 508.5234375 c 128,-1,27
 454.311523438 517.794921875 454.311523438 517.794921875 400.764648438 448.52734375 c 128,-1,28
 347.217773438 379.259765625 347.217773438 379.259765625 312.204101562 231.517578125 c 1,19,20
EndSplineSet
EndChar

StartChar: uniFEE4
Encoding: 65252 65252 238
Width: 1021
VWidth: 2181
GlyphClass: 2
Flags: W
AnchorPoint: "Anchor-10" 435.79 939.5 basechar 0
AnchorPoint: "Anchor-7" 399.79 -215.5 basechar 0
LayerCount: 2
Fore
SplineSet
321.44140625 218.984375 m 0,0,1
 404.091796875 151.609375 404.091796875 151.609375 493.319335938 123.785644531 c 128,-1,2
 582.546875 95.9619140625 582.546875 95.9619140625 633.307617188 126.529296875 c 0,3,4
 734.270712636 188.457542618 734.270712636 188.457542618 632.221679688 385.540039062 c 0,5,6
 571.796875 500.2265625 571.796875 500.2265625 486.860351562 493.049804688 c 0,7,8
 351.799804688 481.640625 351.799804688 481.640625 320.84765625 220.452148438 c 0,9,10
 320.741210938 219.555664062 320.741210938 219.555664062 321.44140625 218.984375 c 0,0,1
995.434570312 0.2099609375 m 2,11,12
 856.498902213 0.00464017986863 856.498902213 0.00464017986863 782.038085938 112.970703125 c 1,13,14
 753.399365964 -48.0171661729 753.399365964 -48.0171661729 583.335913451 -50.0071182427 c 128,-1,15
 413.272460938 -51.9970703125 413.272460938 -51.9970703125 254.913085938 85.228515625 c 1,16,17
 159.561523438 0 159.561523438 0 20.599609375 0 c 2,18,-1
 -10.400390625 0 l 1,19,-1
 -10.400390625 174.978515625 l 1,20,-1
 27.0185546875 174.978515625 l 2,21,22
 159.760742188 175 159.760742188 175 176.01171875 229.77734375 c 0,23,24
 184.58203125 261.349609375 184.58203125 261.349609375 195.184570312 328.2734375 c 0,25,26
 219.173828125 475.305664062 219.173828125 475.305664062 281.500976562 548.719726562 c 0,27,28
 376.716796875 661.126953125 376.716796875 661.126953125 509.256835938 649.294921875 c 0,29,30
 703.130859375 631.8203125 703.130859375 631.8203125 809.793945312 354.057617188 c 0,31,32
 879.021484375 175.08984375 879.021484375 175.08984375 998.280273438 175.08984375 c 2,33,-1
 1031.1796875 175.08984375 l 1,34,-1
 1031.1796875 0.2099609375 l 1,35,-1
 995.434570312 0.2099609375 l 2,11,12
EndSplineSet
EndChar

StartChar: uniFEEA
Encoding: 65258 65258 244
Width: 1080
VWidth: 2181
GlyphClass: 2
Flags: W
AnchorPoint: "Anchor-10" 598.95 1188.81 basechar 0
AnchorPoint: "Anchor-7" 397.88 -183 basechar 0
LayerCount: 2
Fore
SplineSet
696.982421875 388.369140625 m 5,0,1
 682 545 682 545 664.53125 657.677734375 c 5,2,3
 262 583 262 583 248 472 c 0,4,5
 238 392 238 392 324 375 c 0,6,7
 448 350 448 350 696.982421875 388.369140625 c 5,0,1
644.69140625 796.9765625 m 5,8,9
 644 825 644 825 630.748046875 921.30078125 c 5,10,-1
 779.681640625 957.765625 l 5,11,12
 833 451 833 451 843.546875 394.061523438 c 132,-1,13
 854 337 854 337 860.734375 312.65234375 c 4,14,15
 867 288 867 288 875.6015625 268.669921875 c 4,16,17
 884 249 884 249 893.15625 234.374023438 c 4,18,19
 912 205 912 205 935.306640625 194.993164062 c 4,20,21
 981.784600682 175.092229686 981.784600682 175.092229686 1071.30273438 175 c 6,22,-1
 1090.25976562 174.98046875 l 5,23,-1
 1090.25976562 0 l 5,24,-1
 1050.33984375 0 l 6,25,26
 755 0 755 0 714.534179688 240.811523438 c 5,27,28
 218 162 218 162 112 365 c 0,29,30
 93 401 93 401 91.607421875 448.94140625 c 0,31,32
 85 689 85 689 644.69140625 796.9765625 c 5,8,9
EndSplineSet
EndChar

StartChar: uniFEEB
Encoding: 65259 65259 245
Width: 1151
VWidth: 2181
GlyphClass: 2
Flags: W
AnchorPoint: "Anchor-10" 558.801 1216.23 basechar 0
AnchorPoint: "Anchor-7" 382.542 -227.946 basechar 0
LayerCount: 2
Fore
SplineSet
718.814453125 500.755859375 m 1,0,1
 744.9765625 402.856445312 744.9765625 402.856445312 707.041992188 325.293457031 c 128,-1,2
 669.084623255 247.68385351 669.084623255 247.68385351 547.173828125 173.451171875 c 1,3,4
 885.403006513 34.8574115486 885.403006513 34.8574115486 922.014648438 224.751953125 c 0,5,6
 942.325195312 330.3046875 942.325195312 330.3046875 718.814453125 500.755859375 c 1,0,1
384.204101562 71.1669921875 m 1,7,8
 227.71535631 0 227.71535631 0 8.6298828125 0 c 2,9,-1
 -10.400390625 0 l 1,10,-1
 -10.400390625 174.98046875 l 1,11,-1
 50.0380859375 174.98046875 l 2,12,13
 50.9130859375 175.006835938 50.9130859375 175.006835938 160.051757812 175.848632812 c 1,14,15
 98.12109375 256.771484375 98.12109375 256.771484375 102.577148438 362.849121094 c 128,-1,16
 107.033203125 468.926757812 107.033203125 468.926757812 162.78515625 556.46875 c 0,17,18
 238.068359375 673.54296875 238.068359375 673.54296875 360.868164062 711.461914062 c 0,19,20
 395.14453125 721.912109375 395.14453125 721.912109375 419.127929688 720.387695312 c 1,21,22
 379.261469302 742.662618636 379.261469302 742.662618636 355.325195312 755.424804688 c 1,23,-1
 408.123046875 877.004882812 l 1,24,-1
 742.919921875 664.387695312 l 1,25,26
 1039.8248712 467.72808978 1039.8248712 467.72808978 1059.05078125 297.028320312 c 0,27,28
 1090.46972656 6.0625 1090.46972656 6.0625 809.905273438 -24.4150390625 c 0,29,30
 634.567382812 -43.0625 634.567382812 -43.0625 384.204101562 71.1669921875 c 1,7,8
589.259765625 384.08203125 m 0,31,32
 646.928710938 513.131835938 646.928710938 513.131835938 568.875976562 564.987304688 c 0,33,34
 430.724609375 657.59765625 430.724609375 657.59765625 321.080078125 525.465820312 c 0,35,36
 264.178710938 456.896484375 264.178710938 456.896484375 253.570800781 390.840332031 c 0,37,38
 230.759799539 248.794731063 230.759799539 248.794731063 375.420898438 201.435546875 c 1,39,40
 543.208007812 283.59375 543.208007812 283.59375 589.259765625 384.08203125 c 0,31,32
EndSplineSet
EndChar

StartChar: uniFEEC
Encoding: 65260 65260 246
Width: 957
VWidth: 2181
GlyphClass: 2
Flags: W
AnchorPoint: "Anchor-7" 276.88 -690.244 basechar 0
AnchorPoint: "Anchor-10" 416.76 1085.74 basechar 0
LayerCount: 2
Fore
SplineSet
311.866210938 175.037109375 m 1,0,-1
 349.194335938 176.99609375 l 2,1,2
 424.6328125 180.955078125 424.6328125 180.955078125 463.950195312 238.655273438 c 0,3,4
 531.688476562 340.98046875 531.688476562 340.98046875 531.688476562 483.295898438 c 0,5,6
 531.688476562 561.375976562 531.688476562 561.375976562 510.98046875 593.687988281 c 128,-1,7
 490.272460938 626 490.272460938 626 448.3515625 626 c 0,8,9
 362.418945312 626 362.418945312 626 326.600097656 466.700195312 c 128,-1,10
 290.78125 307.400390625 290.78125 307.400390625 311.866210938 175.037109375 c 1,0,-1
487.555664062 -557.1796875 m 1,11,12
 202.269203969 -458.524320662 202.269203969 -458.524320662 174 0 c 1,13,-1
 -10.935546875 0 l 1,14,-1
 -10.935546875 174.979492188 l 1,15,-1
 171.888671875 175.037109375 l 1,16,17
 162.357421875 476.44140625 162.357421875 476.44140625 217.19140625 600.548828125 c 0,18,19
 290.041992188 768.018554688 290.041992188 768.018554688 449.366210938 766.504882812 c 0,20,21
 636.367501244 765.652164494 636.367501244 765.652164494 676.552734375 582.432617188 c 0,22,23
 684.055657324 548.237335397 684.055657324 548.237335397 684.08203125 509.892578125 c 0,24,25
 683.999924257 229.671185346 683.999924257 229.671185346 510.701171875 72.1552734375 c 0,26,27
 432.294180668 1.03038637984 432.294180668 1.03038637984 326.22265625 0.0126953125 c 1,28,29
 318.045898438 -196.037109375 318.045898438 -196.037109375 417.473632812 -340.327148438 c 1,30,31
 460.241522292 -57.0646836384 460.241522292 -57.0646836384 661.547851562 94.3974609375 c 0,32,33
 765.96875 172.978515625 765.96875 172.978515625 902.334960938 176.080078125 c 1,34,-1
 967.639648438 175.381835938 l 1,35,-1
 967.639648438 0.4775390625 l 1,36,-1
 860.364257812 0 l 2,37,38
 610.419373842 -0.990205595392 610.419373842 -0.990205595392 487.555664062 -557.1796875 c 1,11,12
EndSplineSet
EndChar

StartChar: uniFEEE
Encoding: 65262 65262 248
Width: 854
VWidth: 2181
GlyphClass: 2
Flags: W
AnchorPoint: "Anchor-10" 325 1062 basechar 0
AnchorPoint: "Anchor-7" 502.515 -611.238 basechar 0
LayerCount: 2
Fore
SplineSet
527.344726562 476.501953125 m 0,0,1
 491.209960938 515.791992188 491.209960938 515.791992188 445.397460938 514.812011719 c 0,2,3
 364.430769786 513.080043895 364.430769786 513.080043895 321.052787237 463.292463354 c 0,4,5
 256.943541236 389.710335714 256.943541236 389.710335714 250.754973743 315.356144419 c 128,-1,6
 244.56640625 241.001953125 244.56640625 241.001953125 283.758789062 205.5703125 c 128,-1,7
 322.951171875 170.139648438 322.951171875 170.139648438 390.729980469 164.595214844 c 128,-1,8
 458.508789062 159.05078125 458.508789062 159.05078125 595.30859375 166.053710938 c 1,9,10
 596.237801764 401.589275423 596.237801764 401.589275423 527.344726562 476.501953125 c 0,0,1
586.43359375 1.388671875 m 1,11,12
 555.581097837 1.01508539319 555.581097837 1.01508539319 420.83203125 1.2392578125 c 0,13,14
 241.62890625 0.998046875 241.62890625 0.998046875 165.248046875 89.0126953125 c 128,-1,15
 88.8671875 177.02734375 88.8671875 177.02734375 103.6328125 304.662109375 c 0,16,17
 123.141601562 476.416992188 123.141601562 476.416992188 229.00390625 578.247070312 c 0,18,19
 366.336193892 710.348460141 366.336193892 710.348460141 521.782226562 659.504882812 c 0,20,21
 621.195564754 626.986610747 621.195564754 626.986610747 673.845340971 518.357074905 c 128,-1,22
 726.495117188 409.727539062 726.495117188 409.727539062 739.002929688 259.6171875 c 0,23,24
 744.944335938 188.321289062 744.944335938 188.321289062 746.208984375 175 c 1,25,-1
 864.66015625 175 l 1,26,-1
 864.66015625 0 l 1,27,-1
 732.279296875 0 l 1,28,29
 704.844533811 -180.953479065 704.844533811 -180.953479065 584.2734375 -320.958007812 c 0,30,31
 424.913085938 -506 424.913085938 -506 94.2705078125 -506.138671875 c 2,32,-1
 92.44140625 -506.139648438 l 1,33,-1
 24.4931640625 -374.423828125 l 1,34,35
 518.503799846 -344.388317531 518.503799846 -344.388317531 586.43359375 1.388671875 c 1,11,12
EndSplineSet
EndChar

StartChar: uniFEF0
Encoding: 65264 65264 250
Width: 1398
VWidth: 2181
GlyphClass: 2
Flags: W
AnchorPoint: "Anchor-10" 549.857 466.69 basechar 0
AnchorPoint: "Anchor-7" 322.067 -732.505 basechar 0
LayerCount: 2
Fore
SplineSet
1407.88964844 175.375 m 1,0,-1
 1407.88964844 0.5 l 1,1,-1
 1285.79003906 0.544921875 l 1,2,-1
 1123.5 0 l 2,3,4
 1070.88183594 0 1070.88183594 0 1057.20117188 -28.3056640625 c 0,5,6
 1043.95287285 -55.7792528885 1043.95287285 -55.7792528885 1070.94176846 -70.9306420692 c 128,-1,7
 1097.93066406 -86.08203125 1097.93066406 -86.08203125 1137.22314453 -90.3872070312 c 128,-1,8
 1176.515625 -94.6923828125 1176.515625 -94.6923828125 1192.13183594 -97.4697265625 c 0,9,10
 1223.4331941 -103.036674384 1223.4331941 -103.036674384 1245.12011719 -111.0703125 c 0,11,12
 1320.00878906 -138.91796875 1320.00878906 -138.91796875 1319.61914062 -234.021484375 c 0,13,14
 1320.00390625 -384.364257812 1320.00390625 -384.364257812 1217.48583984 -472.778320312 c 0,15,16
 1018.95325756 -643.997625881 1018.95325756 -643.997625881 660.321289062 -644.469726562 c 0,17,18
 93.0048828125 -642.310546875 93.0048828125 -642.310546875 91.1337890625 -162.982421875 c 0,19,20
 90.9990234375 -92.6787109375 90.9990234375 -92.6787109375 119.596191406 37.2631835938 c 128,-1,21
 148.162953191 167.06691629 148.162953191 167.06691629 236.2421875 297.692382812 c 1,22,-1
 366.45703125 239.2890625 l 1,23,24
 277.84148329 105.81327455 277.84148329 105.81327455 249.999843207 -55.2642611627 c 128,-1,25
 222.158203125 -216.341796875 222.158203125 -216.341796875 296.056640625 -328.651367188 c 0,26,27
 392.621931315 -476.000107189 392.621931315 -476.000107189 697.966796875 -476.064453125 c 0,28,29
 975.072198885 -475.921276469 975.072198885 -475.921276469 1110.28515625 -377.467773438 c 0,30,31
 1181.84714216 -325.362997413 1181.84714216 -325.362997413 1182.13476562 -275.50390625 c 0,32,33
 1182.00846369 -226.921719031 1182.00846369 -226.921719031 1107.91601562 -224.999023438 c 0,34,35
 890.001273933 -218.91731658 890.001273933 -218.91731658 889.891601562 -32.2333984375 c 0,36,37
 890.001953125 21.7548828125 890.001953125 21.7548828125 918.357421875 74.7646484375 c 0,38,39
 973.013671875 175.631835938 973.013671875 175.631835938 1130.78222656 175.5390625 c 2,40,-1
 1407.88964844 175.375 l 1,0,-1
EndSplineSet
EndChar

StartChar: uniFEFB
Encoding: 65275 65275 261
Width: 1073
VWidth: 2181
GlyphClass: 3
Flags: W
AnchorPoint: "Anchor-9" 823.69 1588 baselig 0
AnchorPoint: "Anchor-6" 845.69 -216.5 baselig 0
AnchorPoint: "Anchor-6" 281.5 -261.908 baselig 1
AnchorPoint: "Anchor-9" 124.565 1489.84 baselig 1
LayerCount: 2
Fore
SplineSet
229.77734375 1348.6640625 m 1,0,1
 468.33727477 953.820040281 468.33727477 953.820040281 570.579101562 176.404296875 c 1,2,3
 688.290039062 193.959960938 688.290039062 193.959960938 757.512207031 282.821777344 c 128,-1,4
 826.734375 371.68359375 826.734375 371.68359375 819.29296875 530.389648438 c 2,5,-1
 778.196289062 1406.95214844 l 1,6,-1
 942.169921875 1478.61523438 l 1,7,-1
 942.169921875 517.688476562 l 2,8,9
 941.999023438 245.638671875 941.999023438 245.638671875 795.033691406 117.295410156 c 128,-1,10
 648.068359375 -11.0478515625 648.068359375 -11.0478515625 305.563476562 3.4716796875 c 0,11,12
 197.863176197 8.04590289929 197.863176197 8.04590289929 167.690429688 33.05859375 c 1,13,-1
 167.690429688 197.5 l 1,14,15
 307.767992733 154.809358779 307.767992733 154.809358779 436.608398438 164.732421875 c 1,16,17
 334.501483603 926.618662885 334.501483603 926.618662885 89.7861328125 1239.51855469 c 1,18,-1
 229.77734375 1348.6640625 l 1,0,1
EndSplineSet
LCarets2: 1 0
Ligature2: "'rlig' Required Ligatures in Arabic lookup 16 subtable" uniFEDF uniFE8E
EndChar

StartChar: uniFEFC
Encoding: 65276 65276 262
Width: 1203
VWidth: 2181
GlyphClass: 3
Flags: W
AnchorPoint: "Anchor-9" 876.69 1572 baselig 0
AnchorPoint: "Anchor-6" 877.69 -209.5 baselig 0
AnchorPoint: "Anchor-6" 242 -263 baselig 1
AnchorPoint: "Anchor-9" 106.5 1472.5 baselig 1
LayerCount: 2
Fore
SplineSet
230.171875 1372.66113281 m 1,0,1
 427.415579872 1046.82334773 427.415579872 1046.82334773 535.40625 197.36328125 c 1,2,3
 732.966796875 289.729492188 732.966796875 289.729492188 786.075195312 531.668945312 c 0,4,5
 825.393554688 703.596679688 825.393554688 703.596679688 814.400390625 910.830078125 c 2,6,-1
 788.142578125 1405.00976562 l 1,7,-1
 951.129882812 1477.734375 l 1,8,-1
 951.129882812 635.498046875 l 2,9,10
 951 463.499023438 951 463.499023438 984.964355469 363.875488281 c 0,11,12
 1049.22760148 175.379882813 1049.22760148 175.379882813 1174.58984375 175.379882812 c 2,13,-1
 1213.94042969 175.379882812 l 1,14,-1
 1213.94042969 0.5 l 1,15,-1
 1175.91601562 0.5 l 2,16,17
 923.435546875 0.0029296875 923.435546875 0.0029296875 852.583007812 339.905273438 c 1,18,19
 817.138671875 245.389648438 817.138671875 245.389648438 741.443359375 160.925292969 c 0,20,21
 599.027814971 2.011395007 599.027814971 2.011395007 328.001953125 0.5 c 0,22,23
 202.729480163 -0.000953179480824 202.729480163 -0.000953179480824 115.080078125 16.6240234375 c 1,24,-1
 115.080078125 184.599609375 l 1,25,26
 340.000003093 141.84878436 340.000003093 141.84878436 406.87109375 167.654296875 c 1,27,28
 287.809942521 995.216643993 287.809942521 995.216643993 90.2509765625 1263.57128906 c 1,29,-1
 230.171875 1372.66113281 l 1,0,1
EndSplineSet
LCarets2: 1 0
Ligature2: "'rlig' Required Ligatures in Arabic lookup 16 subtable" uniFEE0 uniFE8E
EndChar

StartChar: arabic_dot
Encoding: 65536 -1 263
Width: 156
GlyphClass: 2
Flags: W
LayerCount: 2
Fore
SplineSet
106.87109375 188.7109375 m 2,0,-1
 185.37109375 110.2109375 l 2,1,2
 210.083007812 85.5 210.083007812 85.5 185.87109375 61.2890625 c 2,3,-1
 103.87109375 -20.7109375 l 2,4,5
 77.5 -47.0830078125 77.5 -47.0830078125 51.62890625 -21.2109375 c 2,6,-1
 -30.37109375 60.7890625 l 2,7,8
 -55.0830078125 85.5 -55.0830078125 85.5 -27.37109375 113.2109375 c 2,9,-1
 49.12890625 189.7109375 l 2,10,11
 77.5 218.083007812 77.5 218.083007812 106.87109375 188.7109375 c 2,0,-1
EndSplineSet
EndChar

StartChar: arabic_2dots
Encoding: 65537 -1 264
Width: 458
GlyphClass: 2
Flags: W
LayerCount: 2
Fore
SplineSet
399.87109375 188.7109375 m 2,0,-1
 478.37109375 110.2109375 l 2,1,2
 503.083007812 85.5 503.083007812 85.5 478.87109375 61.2890625 c 2,3,-1
 396.87109375 -20.7109375 l 2,4,5
 370.5 -47.08203125 370.5 -47.08203125 344.62890625 -21.2109375 c 2,6,-1
 262.62890625 60.7890625 l 2,7,8
 237.916992188 85.5 237.916992188 85.5 265.62890625 113.2109375 c 2,9,-1
 342.12890625 189.7109375 l 2,10,11
 370.5 218.083007812 370.5 218.083007812 399.87109375 188.7109375 c 2,0,-1
116.87109375 188.7109375 m 2,12,-1
 195.37109375 110.2109375 l 2,13,14
 220.083007812 85.5 220.083007812 85.5 195.87109375 61.2890625 c 2,15,-1
 113.87109375 -20.7109375 l 2,16,17
 87.5 -47.08203125 87.5 -47.08203125 61.62890625 -21.2109375 c 2,18,-1
 -20.37109375 60.7890625 l 2,19,20
 -45.08203125 85.5 -45.08203125 85.5 -17.37109375 113.2109375 c 2,21,-1
 59.12890625 189.7109375 l 2,22,23
 87.5 218.083007812 87.5 218.083007812 116.87109375 188.7109375 c 2,12,-1
EndSplineSet
EndChar

StartChar: arabic_3dots
Encoding: 65538 -1 265
Width: 461
GlyphClass: 2
Flags: W
LayerCount: 2
Fore
SplineSet
258.787109375 401.12109375 m 2,0,-1
 337.287109375 322.62109375 l 2,1,2
 362.002057811 297.913190624 362.002057811 297.913190624 337.787109375 273.698242188 c 2,3,-1
 255.787109375 191.698242188 l 2,4,5
 229.416015625 165.327148438 229.416015625 165.327148438 203.544921875 191.198242188 c 2,6,-1
 121.544921875 273.198242188 l 2,7,8
 96.9779158563 298.056087369 96.9779158563 298.056087369 124.544921875 325.62109375 c 2,9,-1
 201.044921875 402.12109375 l 2,10,11
 229.416015625 430.4921875 229.416015625 430.4921875 258.787109375 401.12109375 c 2,0,-1
400.87109375 176.7109375 m 2,12,-1
 479.37109375 98.2109375 l 2,13,14
 504.083007812 73.5 504.083007812 73.5 479.87109375 49.2890625 c 2,15,-1
 397.87109375 -32.7109375 l 2,16,17
 371.5 -59.08203125 371.5 -59.08203125 345.62890625 -33.2109375 c 2,18,-1
 263.62890625 48.7890625 l 2,19,20
 238.916992188 73.5 238.916992188 73.5 266.62890625 101.2109375 c 2,21,-1
 343.12890625 177.7109375 l 2,22,23
 371.5 206.083007812 371.5 206.083007812 400.87109375 176.7109375 c 2,12,-1
117.87109375 176.7109375 m 2,24,-1
 196.37109375 98.2109375 l 2,25,26
 221.083007812 73.5 221.083007812 73.5 196.87109375 49.2890625 c 2,27,-1
 114.87109375 -32.7109375 l 2,28,29
 88.5 -59.08203125 88.5 -59.08203125 62.62890625 -33.2109375 c 2,30,-1
 -19.37109375 48.7890625 l 2,31,32
 -44.08203125 73.5 -44.08203125 73.5 -16.37109375 101.2109375 c 2,33,-1
 60.12890625 177.7109375 l 2,34,35
 88.5 206.083007812 88.5 206.083007812 117.87109375 176.7109375 c 2,24,-1
EndSplineSet
EndChar

StartChar: arabic_3dots_a
Encoding: 65539 -1 266
Width: 460
GlyphClass: 2
Flags: W
LayerCount: 2
Fore
SplineSet
253.12109375 -11.4267578125 m 2,0,-1
 331.62109375 -89.9267578125 l 2,1,2
 356.333007812 -114.637695312 356.333007812 -114.637695312 332.12109375 -138.849609375 c 2,3,-1
 250.12109375 -220.849609375 l 2,4,5
 223.75 -247.220703125 223.75 -247.220703125 197.87890625 -221.349609375 c 2,6,-1
 115.87890625 -139.349609375 l 2,7,8
 91.16796875 -114.637695312 91.16796875 -114.637695312 118.87890625 -86.9267578125 c 2,9,-1
 195.75390625 -10.0517578125 l 2,10,11
 224.153320312 17.541015625 224.153320312 17.541015625 253.12109375 -11.4267578125 c 2,0,-1
400.87109375 196.7109375 m 2,12,-1
 479.37109375 118.2109375 l 2,13,14
 504.083007812 93.5 504.083007812 93.5 479.87109375 69.2890625 c 2,15,-1
 397.87109375 -12.7109375 l 2,16,17
 371.5 -39.08203125 371.5 -39.08203125 345.62890625 -13.2109375 c 2,18,-1
 263.62890625 68.7890625 l 2,19,20
 238.916992188 93.5 238.916992188 93.5 266.62890625 121.2109375 c 2,21,-1
 343.12890625 197.7109375 l 2,22,23
 371.5 226.083007812 371.5 226.083007812 400.87109375 196.7109375 c 2,12,-1
117.87109375 196.7109375 m 2,24,-1
 196.37109375 118.2109375 l 2,25,26
 221.083007812 93.5 221.083007812 93.5 196.87109375 69.2890625 c 2,27,-1
 114.87109375 -12.7109375 l 2,28,29
 88.5 -39.08203125 88.5 -39.08203125 62.62890625 -13.2109375 c 2,30,-1
 -19.37109375 68.7890625 l 2,31,32
 -44.08203125 93.5 -44.08203125 93.5 -16.37109375 121.2109375 c 2,33,-1
 60.12890625 197.7109375 l 2,34,35
 88.5 226.083007812 88.5 226.083007812 117.87109375 196.7109375 c 2,24,-1
EndSplineSet
EndChar

StartChar: uni066E.fina
Encoding: 65540 -1 267
Width: 2012
VWidth: 2181
GlyphClass: 2
Flags: W
AnchorPoint: "Anchor-10" 701 1063.5 basechar 0
AnchorPoint: "Anchor-7" 701 -176 basechar 0
LayerCount: 2
Fore
SplineSet
855.779296875 0 m 0,0,1
 535.399414062 0 535.399414062 0 375.846679688 66.6083984375 c 0,2,3
 118.17578125 173.926757812 118.17578125 173.926757812 94.01171875 440.737304688 c 0,4,5
 82.9565656084 566.359958788 82.9565656084 566.359958788 123.6796875 709.409179688 c 1,6,-1
 257.837890625 674.01171875 l 1,7,8
 238.010327074 540.799865853 238.010327074 540.799865853 240.536132812 478.353515625 c 0,9,10
 249.90234375 235.600585938 249.90234375 235.600585938 560.22265625 189.344726562 c 0,11,12
 636.231445312 177.999023438 636.231445312 177.999023438 803.103515625 177.016601562 c 0,13,14
 1259.328125 176.001953125 1259.328125 176.001953125 1417.71484375 251.08984375 c 0,15,16
 1605.22519047 340.004574317 1605.22519047 340.004574317 1630.66113281 543.794921875 c 1,17,-1
 1744.97460938 543.794921875 l 1,18,19
 1758.59419577 377.411922738 1758.59419577 377.411922738 1785.20334788 312.771391056 c 128,-1,20
 1811.8125 248.130859375 1811.8125 248.130859375 1838.58789062 222.032226562 c 0,21,22
 1885.84667969 175.379882812 1885.84667969 175.379882812 1979.96972656 175.379882812 c 2,23,-1
 2022.16992188 175.379882812 l 1,24,-1
 2022.16992188 0.5 l 1,25,-1
 1958.03710938 0.5 l 2,26,27
 1737.54882812 0.0009765625 1737.54882812 0.0009765625 1649.14355469 207.172851562 c 1,28,29
 1600.00823273 150.272695335 1600.00823273 150.272695335 1470.27636719 89.1640625 c 0,30,31
 1280.66992188 0 1280.66992188 0 855.779296875 0 c 0,0,1
EndSplineSet
EndChar

StartChar: uni06A1.fina
Encoding: 65543 -1 270
Width: 1880
VWidth: 2181
GlyphClass: 2
Flags: W
AnchorPoint: "Anchor-10" 530 1170.5 basechar 0
AnchorPoint: "Anchor-7" 637 -220.5 basechar 0
LayerCount: 2
Fore
SplineSet
1607.49902344 252.818359375 m 1,0,1
 1689.03384502 175.379882812 1689.03384502 175.379882812 1825.88964844 175.379882812 c 2,2,-1
 1890.59960938 175.379882812 l 1,3,-1
 1890.59960938 0.5 l 1,4,-1
 1818.2265625 0.5 l 2,5,6
 1591.34082031 0.0009765625 1591.34082031 0.0009765625 1441.62597656 148.674804688 c 1,7,8
 1318.10546875 65.908203125 1318.10546875 65.908203125 1203.76416016 32.9541015625 c 128,-1,9
 1089.42285156 0 1089.42285156 0 810.411132812 0 c 128,-1,10
 531.399414062 0 531.399414062 0 371.846679688 66.6083984375 c 0,11,12
 114.16796875 173.9296875 114.16796875 173.9296875 91.0107421875 440.741210938 c 0,13,14
 79.9693315609 568.223042294 79.9693315609 568.223042294 119.670898438 709.411132812 c 1,15,-1
 253.858398438 674.005859375 l 1,16,17
 232.010451207 534.839516434 232.010451207 534.839516434 234.53515625 478.3671875 c 0,18,19
 244.891601562 237.587890625 244.891601562 237.587890625 556.2421875 189.341796875 c 0,20,21
 603.270507812 181.994140625 603.270507812 181.994140625 730.403808594 178.751953125 c 0,22,23
 916.085338056 174.01665301 916.085338056 174.01665301 1058.811712 186.14699838 c 128,-1,24
 1201.53808594 198.27734375 1201.53808594 198.27734375 1253.07226562 223.721679688 c 1,25,26
 1194.24641085 265.379865068 1194.24641085 265.379865068 1158.83789062 310.245117188 c 0,27,28
 1035.57519531 469.5234375 1035.57519531 469.5234375 1104.95703125 642.221679688 c 1,29,30
 1161.79433698 769.409680476 1161.79433698 769.409680476 1308.06269583 820.351324613 c 128,-1,31
 1454.33105469 871.29296875 1454.33105469 871.29296875 1588.52929688 791.581054688 c 0,32,33
 1719.71135784 713.880165935 1719.71135784 713.880165935 1744.81054688 573.630859375 c 0,34,35
 1780.34215086 381.42375766 1780.34215086 381.42375766 1607.49902344 252.818359375 c 1,0,1
1289.69140625 637.26171875 m 128,-1,37
 1236.05957031 583.62403313 1236.05957031 583.62403313 1236.05957031 514.163085938 c 0,38,39
 1236.05957031 402.455186121 1236.05957031 402.455186121 1327.92480469 348.590820312 c 0,40,41
 1391.91698298 311.074452428 1391.91698298 311.074452428 1467.21289062 330.729492188 c 0,42,43
 1512.74430827 342.617351285 1512.74430827 342.617351285 1557.46199788 387.332113142 c 128,-1,44
 1602.1796875 432.046875 1602.1796875 432.046875 1602.1796875 507.83984375 c 128,-1,45
 1602.1796875 583.631835938 1602.1796875 583.631835938 1548.54882812 637.263671875 c 128,-1,46
 1494.90820312 690.896484375 1494.90820312 690.896484375 1419.12011719 690.896484375 c 128,-1,36
 1343.33203125 690.896484375 1343.33203125 690.896484375 1289.69140625 637.26171875 c 128,-1,37
EndSplineSet
EndChar

StartChar: uni06A1.init
Encoding: 65544 -1 271
Width: 821
VWidth: 2181
GlyphClass: 2
Flags: W
AnchorPoint: "Anchor-10" 408.53 1227.5 basechar 0
AnchorPoint: "Anchor-7" 383.53 -167 basechar 0
LayerCount: 2
Fore
SplineSet
411.190429688 848.134765625 m 0,0,1
 294.330078125 844.791992188 294.330078125 844.791992188 254.438476562 685.881835938 c 0,2,3
 215.303756642 528.148002977 215.303756642 528.148002977 352.877464259 504.598415551 c 128,-1,4
 490.451171875 481.048828125 490.451171875 481.048828125 584.801757812 552.9609375 c 1,5,6
 591.303158375 577.272864059 591.303158375 577.272864059 574.222379969 669.068072654 c 0,7,8
 540.205501215 851.880963656 540.205501215 851.880963656 411.190429688 848.134765625 c 0,0,1
645.881835938 872.860351562 m 0,9,10
 765.220060852 673.178556684 765.220060852 673.178556684 721.23828125 328.63671875 c 0,11,12
 699.033203125 146.47265625 699.033203125 146.47265625 563.870117188 60.46875 c 0,13,14
 468.837890625 0 468.837890625 0 199.23046875 0 c 2,15,-1
 -20.400390625 0 l 1,16,-1
 -20.400390625 174.98046875 l 1,17,-1
 85 174.98046875 l 2,18,19
 405.6171875 174.98046875 405.6171875 174.98046875 446.88671875 189.818359375 c 0,20,21
 571.973632812 235.453125 571.973632812 235.453125 577.7109375 399.612304688 c 1,22,23
 521.670357571 352.88698845 521.670357571 352.88698845 413.007542067 350.922498131 c 128,-1,24
 304.344726562 348.958007812 304.344726562 348.958007812 246.524414062 371.862304688 c 128,-1,25
 188.704101562 394.766601562 188.704101562 394.766601562 153.19921875 442.079101562 c 0,26,27
 90.0537109375 526.225585938 90.0537109375 526.225585938 106.801269531 672.469238281 c 128,-1,28
 123.548828125 818.712890625 123.548828125 818.712890625 215.58984375 915.333984375 c 0,29,30
 329.172851562 1034.5703125 329.172851562 1034.5703125 476.643554688 1003.54882812 c 0,31,32
 580.712549389 981.658480317 580.712549389 981.658480317 645.881835938 872.860351562 c 0,9,10
EndSplineSet
EndChar

StartChar: uni06A1.medi
Encoding: 65545 -1 272
Width: 1010
VWidth: 2181
GlyphClass: 2
Flags: W
AnchorPoint: "Anchor-10" 513.26 1010 basechar 0
AnchorPoint: "Anchor-7" 513.26 -167 basechar 0
LayerCount: 2
Fore
SplineSet
327.426757812 491.6015625 m 128,-1,1
 327.426757812 416.427734375 327.426757812 416.427734375 381.918945312 363.158203125 c 0,2,3
 436.616323992 309.689453125 436.616323992 309.689453125 514.033203125 309.689453125 c 128,-1,4
 591.446289062 309.689453125 591.446289062 309.689453125 646.143554688 363.158203125 c 0,5,6
 700.635742188 416.424160447 700.635742188 416.424160447 700.635742188 491.6015625 c 128,-1,7
 700.635742188 566.76953125 700.635742188 566.76953125 646.040527344 620.139160156 c 128,-1,8
 591.4453125 673.508789062 591.4453125 673.508789062 514.033203125 673.508789062 c 128,-1,9
 436.620117188 673.508789062 436.620117188 673.508789062 382.0234375 620.142089844 c 128,-1,0
 327.426757812 566.775390625 327.426757812 566.775390625 327.426757812 491.6015625 c 128,-1,1
367.745117188 797.142578125 m 0,10,11
 433.454752642 824.018287822 433.454752642 824.018287822 522.056966165 824.511097036 c 128,-1,12
 610.659179688 825.00390625 610.659179688 825.00390625 681.617675781 791.91015625 c 0,13,14
 818.587667736 728.029847044 818.587667736 728.029847044 854.043945312 585.211914062 c 0,15,16
 877.111328125 491.915039062 877.111328125 491.915039062 843.685546875 383.151855469 c 128,-1,17
 810.259765625 274.388671875 810.259765625 274.388671875 682.409179688 199.6875 c 1,18,19
 766.560546875 173.877929688 766.560546875 173.877929688 953.028320312 174.979492188 c 2,20,-1
 1020.91992188 175.380859375 l 1,21,-1
 1020.91992188 0.4970703125 l 1,22,-1
 816.720703125 0 l 2,23,24
 668.271484375 0 668.271484375 0 513.29296875 107.049804688 c 1,25,26
 348.90234375 0 348.90234375 0 210.790039062 0 c 2,27,-1
 -10.400390625 0 l 1,28,-1
 -10.400390625 174.98046875 l 1,29,-1
 73.490234375 174.98046875 l 2,30,31
 254.475276453 174.998061464 254.475276453 174.998061464 332.192382812 202.409179688 c 1,32,33
 236.397460938 266.715820312 236.397460938 266.715820312 191.109863281 367.226074219 c 128,-1,34
 145.822265625 467.736328125 145.822265625 467.736328125 177.848632812 586.814453125 c 0,35,36
 219.50390625 737.2265625 219.50390625 737.2265625 367.745117188 797.142578125 c 0,10,11
EndSplineSet
EndChar

StartChar: uni066F.fina
Encoding: 65546 -1 273
Width: 1534
VWidth: 2181
GlyphClass: 2
Flags: W
AnchorPoint: "Anchor-10" 390 903 basechar 0
AnchorPoint: "Anchor-7" 473.645 -715.82 basechar 0
LayerCount: 2
Fore
SplineSet
1101.91308594 521.63671875 m 0,0,1
 976.33984375 518.768554688 976.33984375 518.768554688 928.842773438 363.212890625 c 0,2,3
 871.508618872 178.950363217 871.508618872 178.950363217 1075.01074219 163.254882812 c 0,4,5
 1128.16503906 159.155273438 1128.16503906 159.155273438 1269.3125 166.060546875 c 1,6,7
 1271.68403229 525.998758992 1271.68403229 525.998758992 1101.91308594 521.63671875 c 0,0,1
1260.9296875 2.4501953125 m 1,8,9
 1237.41275422 1.40294484568 1237.41275422 1.40294484568 1073.16047867 1.20733179784 c 128,-1,10
 908.908203125 1.01171875 908.908203125 1.01171875 832.127441406 90.09375 c 128,-1,11
 755.346679688 179.17578125 755.346679688 179.17578125 770.633789062 304.67578125 c 0,12,13
 791.795898438 483.637695312 791.795898438 483.637695312 896.691894531 585.275390625 c 128,-1,14
 1001.58789062 686.913085938 1001.58789062 686.913085938 1117.31835938 679.817382812 c 0,15,16
 1278.21484375 670.243164062 1278.21484375 670.243164062 1346.68652344 526.861328125 c 0,17,18
 1399.98339844 415.403320312 1399.98339844 415.403320312 1413.00097656 259.600585938 c 0,19,20
 1418.4296875 189.829101562 1418.4296875 189.829101562 1420.12011719 175.469726562 c 1,21,-1
 1494.54980469 175.379882812 l 1,22,-1
 1553.95996094 175.379882812 l 1,23,-1
 1553.95996094 0.4736328125 l 1,24,-1
 1416.80859375 1.6787109375 l 1,25,26
 1400.48828125 -262.430664062 1400.48828125 -262.430664062 1213.36523438 -428.6796875 c 128,-1,27
 1026.2421875 -594.928710938 1026.2421875 -594.928710938 710.576171875 -588.028320312 c 128,-1,28
 394.91015625 -581.127929688 394.91015625 -581.127929688 243.910644531 -427.45703125 c 128,-1,29
 92.9111328125 -273.786132812 92.9111328125 -273.786132812 94.798828125 -9.6328125 c 1,30,-1
 92.9443359375 -9.6328125 l 1,31,-1
 92.9443359375 -3.6328125 l 1,32,-1
 94.8623046875 -3.6328125 l 1,33,34
 97.8337051393 202.608947591 97.8337051393 202.608947591 189.244140625 391.708007812 c 1,35,-1
 344.44140625 352.2578125 l 1,36,37
 257.894402332 125.291991811 257.894402332 125.291991811 258.783203125 -10.8974609375 c 0,38,39
 261.64453125 -428.735351562 261.64453125 -428.735351562 735.452148438 -423.85546875 c 0,40,41
 1029.85253906 -421.25390625 1029.85253906 -421.25390625 1165.69433594 -261.41015625 c 0,42,43
 1257.72949219 -153.111328125 1257.72949219 -153.111328125 1260.9296875 2.4501953125 c 1,8,9
EndSplineSet
EndChar

StartChar: arabic_ring
Encoding: 65549 -1 276
Width: 444
GlyphClass: 2
Flags: W
LayerCount: 2
Fore
SplineSet
251.822265625 133.330078125 m 0,0,1
 316 153.372624555 316 153.372624555 316 222.5 c 0,2,3
 316 261.7578125 316 261.7578125 288.86328125 289.37890625 c 128,-1,4
 261.7265625 317 261.7265625 317 222 317 c 128,-1,5
 182.2421875 317 182.2421875 317 155.12109375 289.87890625 c 128,-1,6
 128 262.7578125 128 262.7578125 128 236.057617188 c 128,-1,7
 128 209.357421875 128 209.357421875 131.014648438 197.286132812 c 0,8,9
 148.061324207 129 148.061324207 129 222 129 c 0,10,11
 237.95703125 129 237.95703125 129 251.822265625 133.330078125 c 0,0,1
444 223 m 128,-1,13
 444 129.771484375 444 129.771484375 380.12109375 64.87890625 c 0,14,15
 315.2421875 0 315.2421875 0 222 0 c 128,-1,16
 128.743164062 0 128.743164062 0 64.3715820312 64.87890625 c 128,-1,17
 0 129.7578125 0 129.7578125 0 223 c 128,-1,18
 0 316.2421875 0 316.2421875 64.37890625 380.62109375 c 128,-1,19
 128.7578125 445 128.7578125 445 222 445 c 128,-1,20
 315.228515625 445 315.228515625 445 380.12109375 381.12109375 c 0,21,12
 444 316.228515625 444 316.228515625 444 223 c 128,-1,13
EndSplineSet
EndChar

StartChar: arabic_gaf_bar
Encoding: 65550 -1 277
Width: 680
GlyphClass: 2
Flags: W
LayerCount: 2
Fore
SplineSet
672 1674.19238281 m 1,0,-1
 0 1319.02148438 l 1,1,-1
 0 1434.80761719 l 1,2,-1
 672 1789.97851562 l 1,3,-1
 672 1674.19238281 l 1,0,-1
EndSplineSet
EndChar

StartChar: uni066E.init.math
Encoding: 65560 -1 287
Width: 883
VWidth: 2181
GlyphClass: 2
Flags: W
LayerCount: 2
Fore
SplineSet
578.8828125 95.0927734375 m 0,0,1
 505.790039062 8.5 505.790039062 8.5 345.400390625 8.5 c 2,2,-1
 -3.400390625 8.5 l 1,3,-1
 -3.400390625 175.379882812 l 1,4,-1
 286.549804688 175.379882812 l 2,5,6
 506.990234375 175.379882812 506.990234375 175.379882812 506.990234375 403.309570312 c 2,7,-1
 506.990234375 620.5 l 1,8,-1
 673.870117188 620.5 l 1,9,-1
 673.870117188 403.309570312 l 2,10,11
 673.870117188 209.239257812 673.870117188 209.239257812 578.8828125 95.0927734375 c 0,0,1
EndSplineSet
EndChar

StartChar: guillemotleft
Encoding: 171 171 288
Width: 1001
Flags: W
LayerCount: 2
Fore
SplineSet
304.268554688 5.177734375 m 1,0,1
 148.0546875 251.243997697 148.0546875 251.243997697 148.0546875 470.660476471 c 128,-1,2
 148.0546875 690.076955245 148.0546875 690.076955245 304.236328125 937.09765625 c 1,3,-1
 445.016601562 937.09765625 l 1,4,-1
 416.97265625 887.78515625 l 2,5,6
 298.0546875 678.694908072 298.0546875 678.694908072 298.0546875 471.6171875 c 0,7,8
 298.0546875 262.766969478 298.0546875 262.766969478 416.926757812 54.5400390625 c 2,9,-1
 445.112304688 5.177734375 l 1,10,-1
 304.268554688 5.177734375 l 1,0,1
680.268554688 5.177734375 m 1,11,12
 524.0546875 251.243997697 524.0546875 251.243997697 524.0546875 470.660476471 c 128,-1,13
 524.0546875 690.076955245 524.0546875 690.076955245 680.236328125 937.09765625 c 1,14,-1
 821.016601562 937.09765625 l 1,15,-1
 792.97265625 887.78515625 l 2,16,17
 674.0546875 678.694908072 674.0546875 678.694908072 674.0546875 471.6171875 c 0,18,19
 674.0546875 263.177038277 674.0546875 263.177038277 792.665039062 55 c 2,20,-1
 821.112304688 5.177734375 l 1,21,-1
 680.268554688 5.177734375 l 1,11,12
EndSplineSet
EndChar

StartChar: guillemotright
Encoding: 187 187 289
Width: 998
Flags: W
LayerCount: 2
Fore
SplineSet
696.763671875 937.09765625 m 1,0,1
 852.9453125 690.076955245 852.9453125 690.076955245 852.9453125 470.668322471 c 128,-1,2
 852.9453125 251.259689697 852.9453125 251.259689697 696.731445312 5.177734375 c 1,3,-1
 555.887695312 5.177734375 l 1,4,-1
 584.073242188 54.5400390625 l 2,5,6
 702.9453125 262.73109858 702.9453125 262.73109858 702.9453125 471.6171875 c 0,7,8
 702.9453125 678.651525254 702.9453125 678.651525254 584.02734375 887.78515625 c 2,9,-1
 555.983398438 937.09765625 l 1,10,-1
 696.763671875 937.09765625 l 1,0,1
320.763671875 937.09765625 m 1,11,12
 476.9453125 690.076955245 476.9453125 690.076955245 476.9453125 470.663449379 c 128,-1,13
 476.9453125 251.249943512 476.9453125 251.249943512 320.731445312 5.177734375 c 1,14,-1
 179.887695312 5.177734375 l 1,15,-1
 208.073242188 54.5400390625 l 2,16,17
 326.9453125 262.73109858 326.9453125 262.73109858 326.9453125 471.6171875 c 0,18,19
 326.9453125 678.651525254 326.9453125 678.651525254 208.02734375 887.78515625 c 2,20,-1
 179.983398438 937.09765625 l 1,21,-1
 320.763671875 937.09765625 l 1,11,12
EndSplineSet
EndChar

StartChar: NameMe.337
Encoding: 65562 -1 296
Width: 621
VWidth: 2181
Flags: W
LayerCount: 2
Fore
SplineSet
278.5546875 95.525390625 m 2,0,1
 193.015625 0 193.015625 0 83.7001953125 0 c 2,2,-1
 -20.400390625 0 l 1,3,-1
 -20.400390625 174.98046875 l 1,4,-1
 24.849609375 174.98046875 l 2,5,6
 129.598632812 174.98046875 129.598632812 174.98046875 191.290039062 230.3203125 c 128,-1,7
 252.981445312 285.66015625 252.981445312 285.66015625 247.293945312 403.165039062 c 2,8,-1
 208.194335938 1210.86425781 l 1,9,-1
 371.169921875 1283.58398438 l 1,10,-1
 371.169921875 403.309570312 l 2,11,12
 371.169921875 284.874023438 371.169921875 284.874023438 397.720214844 246.708007812 c 0,13,14
 447.61767322 174.98046875 447.61767322 174.98046875 597.610351562 174.98046875 c 2,15,-1
 641.860351562 174.98046875 l 1,16,-1
 641.860351562 0 l 1,17,-1
 538.759765625 0 l 2,18,19
 388.670898438 0 388.670898438 0 300.77734375 95.66796875 c 2,20,-1
 289.588867188 107.846679688 l 1,21,-1
 278.5546875 95.525390625 l 2,0,1
EndSplineSet
EndChar

StartChar: NameMe.338
Encoding: 65563 -1 297
Width: 538
VWidth: 2181
Flags: W
LayerCount: 2
Fore
SplineSet
399.169921875 439.690429688 m 2,0,1
 399.169921875 194.548828125 399.169921875 194.548828125 299.497070312 97.2744140625 c 0,2,3
 199.82421875 0 199.82421875 0 57.7001953125 0 c 2,4,-1
 -20.400390625 0 l 1,5,-1
 -20.400390625 174.98046875 l 1,6,-1
 15.849609375 174.98046875 l 2,7,8
 153.55859375 174.98046875 153.55859375 174.98046875 216.073730469 253.098144531 c 0,9,10
 278.588867188 331.215820312 278.588867188 331.215820312 273.29296875 452.399414062 c 2,11,-1
 235.203125 1323.94335938 l 1,12,-1
 399.169921875 1396.64160156 l 1,13,-1
 399.169921875 439.690429688 l 2,0,1
EndSplineSet
EndChar

